<?xml version="1.0" standalone="no"?>
<!DOCTYPE svg PUBLIC "-//W3C//DTD SVG 1.1//EN" "http://www.w3.org/Graphics/SVG/1.1/DTD/svg11.dtd" >
<svg>
<metadata>
Created by FontForge 20090914 at Wed Dec 26 15:07:46 2018
 By www-data
Copyright (c) 2010 by Brian J. Bonislawsky DBA Astigmatic
</metadata>
<defs>
<font id="LuckiestGuy-Regular" horiz-adv-x="1282" >
  <font-face 
    font-family="Luckiest Guy(RUS BY LYAJKA)"
    font-weight="400"
    font-stretch="normal"
    units-per-em="2048"
    panose-1="2 0 5 6 0 0 0 2 0 4"
    ascent="1440"
    descent="-608"
    x-height="1388"
    cap-height="1445"
    bbox="-229.001 -716.001 2177 2045"
    underline-thickness="40"
    underline-position="-226"
    unicode-range="U+001D-U+FB02"
  />
<missing-glyph horiz-adv-x="400" 
 />
    <glyph glyph-name="uniFB01" unicode="fi" horiz-adv-x="1559" 
d="M997 1422c-4 -62.667 -7.66797 -124.667 -11.001 -186s-7.66602 -123.333 -12.999 -186l-424 -22v-126h368l-20 -310l-350 -10l2 -552l-506 -10l32 1402h922zM1529 1408l-70 -1362l-422 -22l-40 1356z" />
    <glyph glyph-name="uniFB02" unicode="fl" horiz-adv-x="1877" 
d="M997 1422c-4 -62.667 -7.66797 -124.667 -11.001 -186s-7.66602 -123.333 -12.999 -186l-424 -22v-126h368l-20 -310l-350 -10l2 -552l-506 -10l32 1402h922zM1881 530l-42 -444l-842 -66l32 1428h520l-74 -918h406z" />
    <glyph glyph-name=".notdef" horiz-adv-x="400" 
 />
    <glyph glyph-name=".null" horiz-adv-x="0" 
 />
    <glyph glyph-name=".null" horiz-adv-x="0" 
 />
    <glyph glyph-name="space" unicode=" " horiz-adv-x="400" 
 />
    <glyph glyph-name="exclam" unicode="!" horiz-adv-x="572" 
d="M541 1486l-82 -1052h-370l-38 1052h490zM475 126c0 -29.333 -5.66699 -56.666 -17 -81.999s-26.5 -47.5 -45.5 -66.5s-41.167 -34 -66.5 -45s-52.333 -16.5 -81 -16.5c-29.333 0 -56.666 5.5 -81.999 16.5s-47.5 26 -66.5 45s-34 41.167 -45 66.5
s-16.5 52.666 -16.5 81.999c0 28.667 5.5 56 16.5 82s26 48.5 45 67.5s41.167 34.167 66.5 45.5s52.666 17 81.999 17c28.667 0 55.667 -5.66699 81 -17s47.5 -26.5 66.5 -45.5s34.167 -41.5 45.5 -67.5s17 -53.333 17 -82z" />
    <glyph glyph-name="quotedbl" unicode="&#x22;" horiz-adv-x="982" 
d="M490 1616l-112 -608l-308 -10l-62 608zM990 1556l-112 -608l-308 -10l-62 608z" />
    <glyph glyph-name="numbersign" unicode="#" horiz-adv-x="1242" 
d="M1146 764l-180 4l-22 -160l174 2l-38 -270h-176l-24 -174l-328 4l28 170h-98l-24 -130l-292 6l20 124l-144 -2l46 268h144l34 178l-150 2l48 260l148 -4l24 154l284 -18l-24 -140h104l44 242l294 -10l-34 -240l178 -2zM554 778l-30 -172l102 2l30 168z" />
    <glyph glyph-name="dollar" unicode="$" horiz-adv-x="894" 
d="M293 -138l9.99707 393.998c-21.333 4 -43 8.83301 -65 14.5s-43.5 11.667 -64.5 18s-41.167 12.833 -60.5 19.5s-36.666 13.334 -51.999 20.001l34 246c42 -21.333 89 -37.333 141 -48s103.667 -16 155 -16c9.33301 0 20.833 0.333008 34.5 1s26.834 2.5 39.501 5.5
s23.5 7.83301 32.5 14.5s13.5 15.667 13.5 27c0 12 -6.5 21.167 -19.5 27.5s-28.333 11 -46 14s-35.5 4.83301 -53.5 5.5s-31.667 1 -41 1c-43.333 0 -82.666 5.66699 -117.999 17s-65.833 27.5 -91.5 48.5s-45.5 46.167 -59.5 75.5s-21 62.333 -21 99
c0 34 5.83301 65.667 17.5 95s28 56 49 80s46 45.167 75 63.5s60.5 33.5 94.5 45.5l-16 422l108 -10v-388c9.33301 2 18.333 3.5 27 4.5s17.667 2.16699 27 3.5l-2 390l108 -2l-14 -388c44 -1.33301 88.333 -5.5 133 -12.5s85.667 -18.167 123 -33.5l-26 -254
c-35.333 9.33301 -71.666 17.333 -108.999 24s-73 10 -107 10c-10.667 0 -24.834 -0.333008 -42.501 -1s-35 -2.66699 -52 -6s-31.667 -8.33301 -44 -15s-18.166 -16 -17.499 -28c0.666992 -10 5 -17.5 13 -22.5s18.167 -8.66699 30.5 -11s26.166 -3.5 41.499 -3.5
s30.166 0.333008 44.499 1s27.833 1.33398 40.5 2.00098s22.667 0.666992 30 0c40 -2 76 -9 108 -21s59.333 -28.167 82 -48.5s40 -44.5 52 -72.5s18 -58.667 18 -92c0 -46.667 -7.83301 -88 -23.5 -124s-37.5 -67.167 -65.5 -93.5s-61.5 -48 -100.5 -65
s-81.833 -29.5 -128.5 -37.5l16 -394l-98 -10l-4 394c-9.33301 -1.33301 -18.666 -2 -27.999 -2h-28h-4l2 -390z" />
    <glyph glyph-name="percent" unicode="%" horiz-adv-x="1484" 
d="M1443 426c0 -35.333 -7.33301 -70.166 -22 -104.499s-36 -65 -64 -92s-61.833 -49 -101.5 -66s-84.5 -25.5 -134.5 -25.5c-49.333 0 -93.833 8.5 -133.5 25.5s-73.334 39 -101.001 66s-48.834 57.667 -63.501 92s-22 69.166 -22 104.499
c0 34.667 7.33301 69.334 22 104.001s35.834 65.5 63.501 92.5s61.334 49 101.001 66s84.167 25.5 133.5 25.5c50 0 94.833 -8.5 134.5 -25.5s73.5 -39 101.5 -66s49.333 -57.833 64 -92.5s22 -69.334 22 -104.001zM1217 428c0 10.667 -1.83301 22.167 -5.5 34.5
s-9.5 24 -17.5 35s-18.167 20.167 -30.5 27.5s-27.166 11 -44.499 11s-32.333 -3.66699 -45 -11s-23 -16.5 -31 -27.5s-14 -22.667 -18 -35s-6 -23.833 -6 -34.5s2 -22.167 6 -34.5s10 -24 18 -35s18.333 -20.167 31 -27.5s27.667 -11 45 -11s32.166 3.66699 44.499 11
s22.5 16.5 30.5 27.5s13.833 22.667 17.5 35s5.5 23.833 5.5 34.5zM683 922c0 -35.333 -7.33301 -70.166 -22 -104.499s-36 -65 -64 -92s-61.833 -49 -101.5 -66s-84.5 -25.5 -134.5 -25.5c-49.333 0 -93.833 8.5 -133.5 25.5s-73.334 39 -101.001 66
s-48.834 57.667 -63.501 92s-22 69.166 -22 104.499c0 34.667 7.33301 69.334 22 104.001s35.834 65.5 63.501 92.5s61.334 49 101.001 66s84.167 25.5 133.5 25.5c50 0 94.833 -8.5 134.5 -25.5s73.5 -39 101.5 -66s49.333 -57.833 64 -92.5s22 -69.334 22 -104.001z
M457 924c0 10.667 -1.83301 22.167 -5.5 34.5s-9.5 24 -17.5 35s-18.167 20.167 -30.5 27.5s-27.166 11 -44.499 11s-32.333 -3.66699 -45 -11s-23 -16.5 -31 -27.5s-14 -22.667 -18 -35s-6 -23.833 -6 -34.5s2 -22.167 6 -34.5s10 -24 18 -35s18.333 -20.167 31 -27.5
s27.667 -11 45 -11s32.166 3.66699 44.499 11s22.5 16.5 30.5 27.5s13.833 22.667 17.5 35s5.5 23.833 5.5 34.5zM1083 1244c-85.333 -186 -164.5 -375.167 -237.5 -567.5s-141.167 -386.5 -204.5 -582.5l-208 76l117.5 289.5l120 287.5l127.5 283.5
c44 93.667 91 186.167 141 277.5z" />
    <glyph glyph-name="ampersand" unicode="&#x26;" horiz-adv-x="1290" 
d="M1086 98l-70 52.0029l-70 52c-32.667 -26 -69.5 -51 -110.5 -75s-84.833 -44.667 -131.5 -62s-95 -30.333 -145 -39s-100.333 -10.667 -151 -6c-58 4 -112.167 15.5 -162.5 34.5s-93.5 43.5 -129.5 73.5s-63.167 64.333 -81.5 103s-24.5 79.667 -18.5 123
c5.33301 36.667 17.5 72.167 36.5 106.5s42.167 67.166 69.5 98.499s58 61.166 92 89.499s68.667 54.833 104 79.5c-25.333 24.667 -49.166 50.834 -71.499 78.501s-41.5 56.334 -57.5 86.001s-27.833 60 -35.5 91s-8.83398 62.5 -3.50098 94.5
c6.66699 42.667 24.334 83 53.001 121s65 70.667 109 98s93.5 48.166 148.5 62.499s112.167 19.166 171.5 14.499c54.667 -4 105.5 -17 152.5 -39s87.167 -49.333 120.5 -82s58.333 -68.834 75 -108.501s22 -79.167 16 -118.5c-4.66699 -32 -15 -62 -31 -90
s-35.5 -54.5 -58.5 -79.5s-48.667 -49 -77 -72l-85.5 -68.5l80.5 -61.5l79.5 -58.5c12 17.333 23.667 35.333 35 54s21.666 38 30.999 58l298 -72c-13.333 -37.333 -30.833 -74.833 -52.5 -112.5s-45.5 -74.167 -71.5 -109.5l86 -61l86 -61zM622 1046
c2 23.333 -2.16797 42.335 -12.501 57.002s-26.166 23 -47.499 25c-22 3.33301 -41 -1.16699 -57 -13.5s-25 -30.5 -27 -54.5c-1.33301 -15.333 -0.333008 -30.833 3 -46.5s8.16602 -31 14.499 -46s13.5 -29.333 21.5 -43s15.667 -25.834 23 -36.501
c8.66699 10 17.5 21.333 26.5 34s17.333 26 25 40s14.334 28.167 20.001 42.5s9.16699 28.166 10.5 41.499zM653.999 390.005l-61.998 74l-62 74c-8.66699 -9.33301 -18.334 -20.666 -29.001 -33.999s-20.834 -27.5 -30.501 -42.5s-18.167 -30.333 -25.5 -46
s-11.666 -30.834 -12.999 -45.501c-1.33301 -19.333 4.16699 -37 16.5 -53s28.166 -25 47.499 -27c14 -2 28.5 0.166992 43.5 6.5s29.5 14.833 43.5 25.5s27.167 22.167 39.5 34.5s22.833 23.5 31.5 33.5z" />
    <glyph glyph-name="quotesingle" unicode="'" horiz-adv-x="476" 
d="M494 1616l-112 -608l-308 -10l-62 608z" />
    <glyph glyph-name="parenleft" unicode="(" horiz-adv-x="797" 
d="M843 1404c-65.333 -38 -122.332 -83.9961 -170.999 -137.996s-89 -112 -121 -174s-56 -125.5 -72 -190.5s-24 -127.5 -24 -187.5s6.33301 -123.333 19 -190s32 -132.5 58 -197.5s58.833 -127.333 98.5 -187s86.5 -112.834 140.5 -159.501l-358 -146
c-48.667 31.333 -92 68.666 -130 111.999s-71.333 90.166 -100 140.499s-52.834 103.166 -72.501 158.499s-35.667 110.5 -48 165.5s-21.333 109 -27 162s-8.5 102.833 -8.5 149.5c0 72.667 10 148.167 30 226.5s49.5 155 88.5 230s87.5 145.5 145.5 211.5
s125.333 122.667 202 170z" />
    <glyph glyph-name="parenright" unicode=")" horiz-adv-x="782" 
d="M756 672c0 -48.667 -4.50293 -98.668 -13.5029 -150.001s-22.167 -102.833 -39.5 -154.5s-39.166 -102.667 -65.499 -153s-56.833 -98.5 -91.5 -144.5s-73.5 -89 -116.5 -129s-90.167 -75.667 -141.5 -107l-348 156c64.667 38.667 121 85 169 139
s87.5 111.833 118.5 173.5s54.167 125 69.5 190s23 127.5 23 187.5c0 60.667 -6.16699 124.334 -18.5 191.001s-31.166 132.5 -56.499 197.5s-57.5 127.333 -96.5 187s-85.167 113.167 -138.5 160.5l356 144c48.667 -32 92.167 -69.833 130.5 -113.5
s71.833 -90.667 100.5 -141s53.167 -103 73.5 -158s36.833 -110 49.5 -165s21.834 -109 27.501 -162s8.5 -102.5 8.5 -148.5z" />
    <glyph glyph-name="asterisk" unicode="*" horiz-adv-x="1110" 
d="M811 920l190 -236l-260 -210l-188 286l-182 -302l-260 200l182 222l-252 98l122 290l212 -106l-6 298l332 12l-12 -322l214 160l148 -296z" />
    <glyph glyph-name="plus" unicode="+" horiz-adv-x="933" 
d="M306 226l-2 262l-250 4l-4 300l250 8v236l310 32l4 -254l262 8l4 -342l-262 4l4 -262z" />
    <glyph glyph-name="comma" unicode="," horiz-adv-x="456" 
d="M436 222c-0.666992 -31.333 -7.49902 -66.001 -20.499 -104.001s-31.5 -75.5 -55.5 -112.5s-52.833 -72 -86.5 -105s-71.5 -60.5 -113.5 -82.5c0 0.666992 -0.333008 8.5 -1 23.5l-2.5 55c-1 21.667 -2.16699 44.834 -3.5 69.501s-2.33301 46.667 -3 66
c-41.333 15.333 -74 41 -98 77s-36 75.667 -36 119c0 28.667 5.5 55.667 16.5 81s26 47.5 45 66.5s41.167 34.167 66.5 45.5s52.666 17 81.999 17c28.667 0 55.834 -5.66699 81.501 -17s48 -26.5 67 -45.5s34.167 -41.167 45.5 -66.5s16.666 -52.333 15.999 -81v-6z" />
    <glyph glyph-name="hyphen" unicode="-" horiz-adv-x="783" 
d="M69 552l-4 300l646 30l4 -342z" />
    <glyph glyph-name="period" unicode="." horiz-adv-x="454" 
d="M438 206c0 -29.333 -5.66699 -56.666 -17 -81.999s-26.5 -47.5 -45.5 -66.5s-41.167 -34 -66.5 -45s-52.333 -16.5 -81 -16.5c-29.333 0 -56.666 5.5 -81.999 16.5s-47.5 26 -66.5 45s-34 41.167 -45 66.5s-16.5 52.666 -16.5 81.999c0 28.667 5.5 56 16.5 82
s26 48.5 45 67.5s41.167 34.167 66.5 45.5s52.666 17 81.999 17c28.667 0 55.667 -5.66699 81 -17s47.5 -26.5 66.5 -45.5s34.167 -41.5 45.5 -67.5s17 -53.333 17 -82z" />
    <glyph glyph-name="slash" unicode="/" horiz-adv-x="1034" 
d="M993 1360c-107.333 -232.667 -206.5 -469.168 -297.5 -709.501s-175.833 -483.166 -254.5 -728.499l-400 156l146 361.5l149.5 359l159.5 354.5c55.333 117.333 114.333 233 177 347z" />
    <glyph glyph-name="zero" unicode="0" horiz-adv-x="1296" 
d="M1267 716c0 -58.667 -6.50098 -116.999 -19.501 -174.999s-31.833 -113.667 -56.5 -167s-54.834 -103 -90.501 -149s-76.5 -86 -122.5 -120s-96.5 -60.667 -151.5 -80s-114.167 -29 -177.5 -29c-64 0 -123.667 9.66699 -179 29s-105.833 46 -151.5 80
s-86.5 74 -122.5 120s-66.333 95.667 -91 149s-43.5 109.166 -56.5 167.499s-19.5 116.5 -19.5 174.5s6.5 116.333 19.5 175s31.833 114.667 56.5 168s55 103.166 91 149.499s76.833 86.5 122.5 120.5s96.334 60.667 152.001 80s115.167 29 178.5 29
s122.5 -9.66699 177.5 -29s105.5 -46 151.5 -80s86.833 -74.167 122.5 -120.5s65.834 -96.166 90.501 -149.499s43.5 -109.333 56.5 -168s19.5 -117 19.5 -175zM844.999 686.001c0 29.333 -4 62 -12 98s-20.333 69.667 -37 101s-38 57.666 -64 78.999s-57 32 -93 32
c-36.667 0 -68 -10.667 -94 -32s-47.5 -47.666 -64.5 -78.999s-29.5 -65 -37.5 -101s-12 -68.667 -12 -98s4 -62 12 -98s20.5 -69.667 37.5 -101s38.5 -57.666 64.5 -78.999s57.333 -32 94 -32c36 0 67 10.667 93 32s47.333 47.666 64 78.999s29 65 37 101s12 68.667 12 98z
" />
    <glyph glyph-name="one" unicode="1" horiz-adv-x="795" 
d="M750 1438l-58 -1422l-436 20l24 946l-160 -110l-150 342l326 244z" />
    <glyph glyph-name="two" unicode="2" horiz-adv-x="1043" 
d="M1008 942c0 -53.333 -9.66992 -104.165 -29.0029 -152.498s-44.833 -93.666 -76.5 -135.999s-67.667 -81.333 -108 -117s-81.166 -67.834 -122.499 -96.501h316l-24 -416l-936 32v364c35.333 12 72.5 26.5 111.5 43.5s77.333 36.5 115 58.5s73.334 46.667 107.001 74
s63.334 57.166 89.001 89.499s46 67.5 61 105.5s22.5 79 22.5 123c0 25.333 -4.5 47.666 -13.5 66.999s-21.5 35.5 -37.5 48.5s-34.5 22.667 -55.5 29s-43.5 9.5 -67.5 9.5c-20 0 -40.333 -2.16699 -61 -6.5s-41 -10.5 -61 -18.5s-38.833 -17.833 -56.5 -29.5
s-33.5 -24.834 -47.5 -39.501l-88 392c24.667 24.667 53 45.334 85 62.001s65.667 30.167 101 40.5s71.333 17.833 108 22.5s72.667 7 108 7c78.667 0 152 -14.167 220 -42.5s127.167 -67.333 177.5 -117s90 -108.5 119 -176.5s43.5 -141.333 43.5 -220z" />
    <glyph glyph-name="three" unicode="3" horiz-adv-x="1081" 
d="M1046 504c0 -88.667 -14.1641 -165.502 -42.4971 -230.502s-67.833 -119 -118.5 -162s-111.167 -75 -181.5 -96s-147.5 -31.5 -231.5 -31.5c-38 0 -77 3.66699 -117 11s-79.667 17.333 -119 30s-77.5 27.667 -114.5 45s-71.5 36 -103.5 56l38 402
c25.333 -17.333 53.666 -33.833 84.999 -49.5s63.833 -29.667 97.5 -42s67.667 -22.166 102 -29.499s67.5 -11 99.5 -11c18.667 0 37.834 1.5 57.501 4.5s37.5 8.5 53.5 16.5s29.167 19.333 39.5 34s15.5 33.667 15.5 57c0 14.667 -6.66699 28.334 -20 41.001
s-29.333 23.5 -48 32.5s-38 16 -58 21s-36.667 7.5 -50 7.5c-9.33301 0 -20.5 -0.5 -33.5 -1.5s-26.167 -2.5 -39.5 -4.5s-26.166 -4.83301 -38.499 -8.5s-21.833 -8.16699 -28.5 -13.5l6 286c11.333 -1.33301 22 -2.33301 32 -3s20.667 -1 32 -1
c23.333 0 48.666 2.16699 75.999 6.5s52.666 12 75.999 23s42.833 26.167 58.5 45.5s23.5 44.333 23.5 75c0 22 -6 39.833 -18 53.5s-26.833 24.167 -44.5 31.5s-36.834 12.333 -57.501 15s-39.334 4 -56.001 4c-54 0 -107.167 -9.33301 -159.5 -28s-98.5 -46 -138.5 -82
l-84 364c61.333 50 131.166 88.167 209.499 114.5s157.166 39.5 236.499 39.5c72.667 0 142.167 -10.5 208.5 -31.5s124.833 -52 175.5 -93s91 -91.5 121 -151.5s45 -129.333 45 -208c0 -22.667 -3.33301 -45.667 -10 -69s-15.667 -46 -27 -68s-24.666 -42.5 -39.999 -61.5
s-31.666 -35.5 -48.999 -49.5c28 -12.667 51 -29.667 69 -51s32.333 -45 43 -71s18 -53.5 22 -82.5s6 -57.5 6 -85.5z" />
    <glyph glyph-name="four" unicode="4" horiz-adv-x="1104" 
d="M1068 480l-88 -2l-18 -432l-452 -40l24 462l-534 -12l148 878h378l-110 -612l132 4l38 758h434l-30 -742l78 4v-266z" />
    <glyph glyph-name="five" unicode="5" horiz-adv-x="1087" 
d="M1066 504c0 -86.667 -15.499 -162 -46.499 -226s-73.167 -117 -126.5 -159s-116 -73.333 -188 -94s-149 -31 -231 -31c-39.333 0 -78 2.83301 -116 8.5s-75.5 13.334 -112.5 23.001s-73.667 20.834 -110 33.501s-72.833 26.334 -109.5 41.001l38 398
c24 -13.333 49.667 -25.666 77 -36.999s55.5 -21 84.5 -29s58.333 -14.333 88 -19s58.5 -7 86.5 -7c16.667 0 37 1.5 61 4.5s47 8.66699 69 17s40.833 19.666 56.5 33.999s23.5 33.166 23.5 56.499c0 22 -6.16699 41 -18.5 57s-28.333 29.167 -48 39.5
s-41.834 18.5 -66.501 24.5s-49.5 10.667 -74.5 14s-48.667 5.33301 -71 6s-40.833 1 -55.5 1c-30 0 -60.5 -1.33301 -91.5 -4s-61.167 -8 -90.5 -16l40 808l810 22l22 -418l-502 28l-10 -178c30 7.33301 60 12.833 90 16.5s60 5.5 90 5.5
c60.667 0 117.167 -9.83301 169.5 -29.5s98 -47.834 137 -84.501s69.667 -80.834 92 -132.501s33.5 -109.5 33.5 -173.5z" />
    <glyph glyph-name="six" unicode="6" horiz-adv-x="1174" 
d="M1158 510c0 -81.333 -14.3301 -155.163 -42.9971 -221.496s-68.167 -123 -118.5 -170s-110.166 -83.5 -179.499 -109.5s-144.333 -39 -225 -39c-66 0 -125.5 9 -178.5 27s-100.333 43 -142 75s-77.5 70 -107.5 114s-54.833 91.667 -74.5 143
s-34.167 105.666 -43.5 162.999s-14 115.333 -14 174c0 72 5.33301 142.167 16 210.5s27.167 132.5 49.5 192.5s51.166 115.333 86.499 166s77.333 94 126 130s104.5 64.167 167.5 84.5s133.833 30.5 212.5 30.5c28.667 0 58 -1.16699 88 -3.5s60 -6.5 90 -12.5
s59.167 -14 87.5 -24s55.166 -22.667 80.499 -38l-30 -394c-47.333 23.333 -98.5 41.166 -153.5 53.499s-108.5 18.5 -160.5 18.5c-41.333 0 -77 -6.16699 -107 -18.5s-55.333 -29.833 -76 -52.5s-36.834 -49.834 -48.501 -81.501s-19.167 -66.834 -22.5 -105.501
c44 25.333 91 45.333 141 60s101 22 153 22c58.667 0 114 -9 166 -27s97.167 -44 135.5 -78s68.666 -75.333 90.999 -124s33.5 -103.667 33.5 -165zM778.003 480.003c0 20.667 -4.5 39.167 -13.5 55.5s-20.667 30.333 -35 42s-30.833 20.667 -49.5 27
s-37.334 9.5 -56.001 9.5s-37 -3.16699 -55 -9.5s-34.167 -15.333 -48.5 -27s-26 -25.667 -35 -42s-13.5 -34.833 -13.5 -55.5c0 -20 4.5 -38.167 13.5 -54.5s20.667 -30.166 35 -41.499s30.5 -20.166 48.5 -26.499s36.333 -9.5 55 -9.5s37.334 3.16699 56.001 9.5
s35.167 15.166 49.5 26.499s26 25.166 35 41.499s13.5 34.5 13.5 54.5z" />
    <glyph glyph-name="seven" unicode="7" horiz-adv-x="1036" 
d="M1010 1100l-183 -513l-69 -193.5l-62.5 -174l-47.5 -132.5c-12.667 -36 -20.667 -58.333 -24 -67l-524 30l462 994l-544 -30v432l992 18v-364z" />
    <glyph glyph-name="eight" unicode="8" horiz-adv-x="1170" 
d="M1141 442c0 -54 -7.33203 -102.334 -21.999 -145.001s-34.834 -80.5 -60.501 -113.5s-56 -61.167 -91 -84.5s-73.333 -42.5 -115 -57.5s-85.5 -26 -131.5 -33s-92.667 -10.5 -140 -10.5c-67.333 0 -133.833 9 -199.5 27s-124.667 45.5 -177 82.5
s-94.666 83.167 -126.999 138.5s-48.5 120.666 -48.5 195.999c0 30.667 3.66699 61.5 11 92.5s18 60.5 32 88.5s31.667 53.333 53 76s46 41.667 74 57c-44 39.333 -77 84.5 -99 135.5s-33 105.833 -33 164.5c0 68.667 15.167 128.834 45.5 180.501s70 95 119 130
s104.167 61.333 165.5 79s122.666 26.5 183.999 26.5c40.667 0 81.5 -4 122.5 -12s80.5 -19.667 118.5 -35s73.5 -34.666 106.5 -57.999s61.667 -50.5 86 -81.5s43.5 -65.667 57.5 -104s21 -80.166 21 -125.499c0 -58.667 -11 -113.5 -33 -164.5s-55 -96.167 -99 -135.5
c64 -33.333 110 -76.333 138 -129s42 -114.334 42 -185.001zM747.001 959.999c0 22 -4.83301 41.833 -14.5 59.5s-22.5 32.834 -38.5 45.501s-33.833 22.334 -53.5 29.001s-39.5 10 -59.5 10c-20.667 0 -41 -3.33301 -61 -10s-38 -16.334 -54 -29.001
s-28.833 -27.834 -38.5 -45.501s-14.5 -37.5 -14.5 -59.5s4.83301 -41.833 14.5 -59.5s22.5 -32.5 38.5 -44.5s34 -21.333 54 -28s40.333 -10 61 -10c20 0 39.833 3.33301 59.5 10s37.5 16 53.5 28s28.833 26.833 38.5 44.5s14.5 37.5 14.5 59.5zM745.001 489.999
c0 22 -4.83301 41.833 -14.5 59.5s-22.167 32.5 -37.5 44.5s-32.833 21.333 -52.5 28s-39.5 10 -59.5 10s-39.833 -3.33301 -59.5 -10s-37.5 -16 -53.5 -28s-28.833 -26.833 -38.5 -44.5s-14.5 -37.5 -14.5 -59.5c0 -21.333 4.83301 -40.666 14.5 -57.999s22.5 -32 38.5 -44
s33.833 -21.333 53.5 -28s39.5 -10 59.5 -10s39.833 3.33301 59.5 10s37.167 16 52.5 28s27.833 26.667 37.5 44s14.5 36.666 14.5 57.999z" />
    <glyph glyph-name="nine" unicode="9" horiz-adv-x="1137" 
d="M1104 818c0 -63.333 -4.99902 -127.167 -14.999 -191.5s-25.5 -126.666 -46.5 -186.999s-47.833 -116.833 -80.5 -169.5s-71.667 -98.5 -117 -137.5s-97.5 -69.833 -156.5 -92.5s-125.167 -34 -198.5 -34c-32 0 -65.5 1.5 -100.5 4.5s-69.667 8 -104 15
s-67.833 16.667 -100.5 29s-62.334 28.166 -89.001 47.499l52 378c20.667 -12 44 -23.167 70 -33.5s52.667 -19.5 80 -27.5s54.666 -14.167 81.999 -18.5s53.333 -6.5 78 -6.5c38.667 0 72.167 5.5 100.5 16.5s52.333 26.833 72 47.5s35.5 45.5 47.5 74.5
s20.667 61.5 26 97.5c-40 -21.333 -82 -37.666 -126 -48.999s-88.667 -17 -134 -17c-56 0 -109.333 8.66699 -160 26s-95 42.166 -133 74.499s-68.333 71.833 -91 118.5s-34 99.667 -34 159c0 76 13.833 145.667 41.5 209s65.5 117.666 113.5 162.999
s104.833 80.666 170.5 105.999s136.5 38 212.5 38c92.667 0 172.834 -17.167 240.501 -51.5s123.667 -80.666 168 -138.999s77.333 -126.166 99 -203.499s32.5 -159.333 32.5 -246zM690.001 963.999c0 20 -4.5 38 -13.5 54s-20.5 29.667 -34.5 41s-30 20 -48 26s-36 9 -54 9
s-35.667 -2.83301 -53 -8.5s-33 -14 -47 -25s-25.167 -24.333 -33.5 -40s-12.5 -33.167 -12.5 -52.5s4.5 -37 13.5 -53s20.5 -29.667 34.5 -41s30 -20.166 48 -26.499s36 -9.5 54 -9.5s35.667 3 53 9s33 14.5 47 25.5s25.167 24.167 33.5 39.5s12.5 32.666 12.5 51.999z" />
    <glyph glyph-name="colon" unicode=":" horiz-adv-x="508" 
d="M464 206c0 -29.333 -5.66699 -56.666 -17 -81.999s-26.5 -47.5 -45.5 -66.5s-41.167 -34 -66.5 -45s-52.333 -16.5 -81 -16.5c-29.333 0 -56.666 5.5 -81.999 16.5s-47.5 26 -66.5 45s-34 41.167 -45 66.5s-16.5 52.666 -16.5 81.999c0 28.667 5.5 56 16.5 82
s26 48.5 45 67.5s41.167 34.167 66.5 45.5s52.666 17 81.999 17c28.667 0 55.667 -5.66699 81 -17s47.5 -26.5 66.5 -45.5s34.167 -41.5 45.5 -67.5s17 -53.333 17 -82zM464 846c0 -29.333 -5.66699 -56.666 -17 -81.999s-26.5 -47.5 -45.5 -66.5s-41.167 -34 -66.5 -45
s-52.333 -16.5 -81 -16.5c-29.333 0 -56.666 5.5 -81.999 16.5s-47.5 26 -66.5 45s-34 41.167 -45 66.5s-16.5 52.666 -16.5 81.999c0 28.667 5.5 56 16.5 82s26 48.5 45 67.5s41.167 34.167 66.5 45.5s52.666 17 81.999 17c28.667 0 55.667 -5.66699 81 -17
s47.5 -26.5 66.5 -45.5s34.167 -41.5 45.5 -67.5s17 -53.333 17 -82z" />
    <glyph glyph-name="semicolon" unicode=";" horiz-adv-x="506" 
d="M462 222c-0.666992 -31.333 -7.49902 -66.001 -20.499 -104.001s-31.5 -75.5 -55.5 -112.5s-52.833 -72 -86.5 -105s-71.5 -60.5 -113.5 -82.5c0 0.666992 -0.333008 8.5 -1 23.5l-2.5 55c-1 21.667 -2.16699 44.834 -3.5 69.501s-2.33301 46.667 -3 66
c-41.333 15.333 -74 41 -98 77s-36 75.667 -36 119c0 28.667 5.5 55.667 16.5 81s26 47.5 45 66.5s41.167 34.167 66.5 45.5s52.666 17 81.999 17c28.667 0 55.834 -5.66699 81.501 -17s48 -26.5 67 -45.5s34.167 -41.167 45.5 -66.5s16.666 -52.333 15.999 -81v-6z
M462.001 845.999c0 -29.333 -5.66699 -56.666 -17 -81.999s-26.5 -47.5 -45.5 -66.5s-41.167 -34 -66.5 -45s-52.333 -16.5 -81 -16.5c-29.333 0 -56.666 5.5 -81.999 16.5s-47.5 26 -66.5 45s-34 41.167 -45 66.5s-16.5 52.666 -16.5 81.999c0 28.667 5.5 56 16.5 82
s26 48.5 45 67.5s41.167 34.167 66.5 45.5s52.666 17 81.999 17c28.667 0 55.667 -5.66699 81 -17s47.5 -26.5 66.5 -45.5s34.167 -41.5 45.5 -67.5s17 -53.333 17 -82z" />
    <glyph glyph-name="less" unicode="&#x3c;" horiz-adv-x="932" 
d="M721 104l-662 396l-14 368l674 426l142 -340l-490 -256l514 -250z" />
    <glyph glyph-name="equal" unicode="=" horiz-adv-x="800" 
d="M77 292l-4 300h646l4 -342zM77 692l-4 300l646 30l4 -342z" />
    <glyph glyph-name="greater" unicode="&#x3e;" horiz-adv-x="932" 
d="M212 104l-144 344l492 256l-512 250l162 340l662 -392l16 -370z" />
    <glyph glyph-name="question" unicode="?" horiz-adv-x="1135" 
d="M647 390l-338.001 -0.000976562c-4.66699 70.667 -0.666992 129.834 12 177.501s29.834 87.334 51.501 119.001s46 57.334 73 77.001s53.333 36.667 79 51s48.334 28.166 68.001 41.499s33.167 30 40.5 50c4.66699 12 6 25.833 4 41.5s-8.83301 30.5 -20.5 44.5
s-29 25.833 -52 35.5s-52.833 14.5 -89.5 14.5c-24 0 -52.5 -2.16699 -85.5 -6.5s-67.5 -11 -103.5 -20s-71.5 -20 -106.5 -33s-66.5 -27.833 -94.5 -44.5l-44 392c24.667 14.667 52.5 29.834 83.5 45.501s65.167 29.667 102.5 42s78 22.5 122 30.5s91.333 12 142 12
c82 0 159.5 -11.333 232.5 -34s136.833 -56 191.5 -100s98 -98.167 130 -162.5s48 -138.166 48 -221.499c0 -63.333 -9 -114.166 -27 -152.499s-41 -69.833 -69 -94.5s-59.333 -45.334 -94 -62.001s-68.5 -34.834 -101.5 -54.501s-63.333 -43.834 -91 -72.501
s-48.834 -67.334 -63.501 -116.001zM696.999 125.999c0 -29.333 -5.66699 -56.666 -17 -81.999s-26.5 -47.5 -45.5 -66.5s-41.167 -34 -66.5 -45s-52.333 -16.5 -81 -16.5c-29.333 0 -56.666 5.5 -81.999 16.5s-47.5 26 -66.5 45s-34 41.167 -45 66.5
s-16.5 52.666 -16.5 81.999c0 28.667 5.5 56 16.5 82s26 48.5 45 67.5s41.167 34.167 66.5 45.5s52.666 17 81.999 17c28.667 0 55.667 -5.66699 81 -17s47.5 -26.5 66.5 -45.5s34.167 -41.5 45.5 -67.5s17 -53.333 17 -82z" />
    <glyph glyph-name="at" unicode="@" horiz-adv-x="1361" 
d="M1316 768c0 -128 -26.5039 -224.996 -79.5039 -290.996s-131.167 -99.667 -234.5 -101c-39.333 -1.33301 -73.666 1.16699 -102.999 7.5s-54 14.333 -74 24s-35.5 20.167 -46.5 31.5s-17.833 21.666 -20.5 30.999c-14 -22 -32.167 -36.833 -54.5 -44.5
s-44.166 -11.5 -65.499 -11.5c-33.333 0 -64.833 4.66699 -94.5 14s-55.5 23.833 -77.5 43.5s-39.5 44.667 -52.5 75s-19.5 66.166 -19.5 107.499c0 38 6.16699 71.167 18.5 99.5s29.5 52 51.5 71s47.833 33.333 77.5 43s61.834 14.5 96.501 14.5c26 0 51.333 -6.5 76 -19.5
s44.667 -35.167 60 -66.5v102l212 2l-6 -362l26 4c10 2.66699 19 10 27 22c6.66699 10 12.834 25.667 18.501 47s8.5 51 8.5 89c0 59.333 -8.66699 110 -26 152s-42.333 76.333 -75 103s-72.667 46.167 -120 58.5s-101 18.5 -161 18.5
c-65.333 -0.666992 -123.666 -13.334 -174.999 -38.001c-22 -10.667 -43.5 -24.334 -64.5 -41.001s-39.667 -37.5 -56 -62.5s-29.5 -54.833 -39.5 -89.5s-15 -75 -15 -121c0 -56.667 6.16699 -105 18.5 -145s28.5 -73.5 48.5 -100.5s42.833 -48.333 68.5 -64
s52.167 -27.5 79.5 -35.5c62.667 -18 134.334 -19.667 215.001 -5v-190c-96 -20 -186 -22.333 -270 -7s-157.333 46.333 -220 93s-112 107.667 -148 183s-54 163 -54 263c0 98 13 181.667 39 251s59.5 127.333 100.5 174s86.667 83.5 137 110.5s100.166 47.5 149.499 61.5
s95.166 23 137.499 27s75.833 6 100.5 6c90 0 171.167 -14 243.5 -42s133.833 -66 184.5 -114s89.667 -104.5 117 -169.5s41 -134.5 41 -208.5zM613.996 662.004c0 -25.333 5.16699 -46.333 15.5 -63s26.5 -25 48.5 -25s40.167 8.33301 54.5 25s21.5 37.667 21.5 63
c0 23.333 -7.16699 40.5 -21.5 51.5s-32.5 16.5 -54.5 16.5c-42.667 0 -64 -22.667 -64 -68z" />
    <glyph glyph-name="A" unicode="A" 
d="M1312 86l-496 -64l-60 226h-228l-50 -226l-510 50l398 1332l556 28zM720 554l-76 348l-74 -348h150z" />
    <glyph glyph-name="B" unicode="B" horiz-adv-x="1217" 
d="M1215 356c0 -55.333 -10.168 -102.997 -30.501 -142.997s-47.5 -74 -81.5 -102s-73.167 -50.833 -117.5 -68.5s-90.5 -31.5 -138.5 -41.5s-96.167 -16.667 -144.5 -20s-93.5 -5 -135.5 -5c-41.333 0 -84.166 1.5 -128.499 4.5s-88.5 8.16699 -132.5 15.5
s-87.333 17.166 -130 29.499s-83 27.833 -121 46.5l-2 1288c37.333 15.333 77 29.166 119 41.499s84.833 22.666 128.5 30.999s87.167 14.666 130.5 18.999s85.333 6.5 126 6.5c47.333 0 95.166 -3 143.499 -9s94.833 -16 139.5 -30s86.334 -32.167 125.001 -54.5
s72.5 -49.833 101.5 -82.5s51.667 -70.667 68 -114s24.5 -93.333 24.5 -150c0 -37.333 -5.33301 -72.333 -16 -105s-26 -62 -46 -88s-44.333 -48.167 -73 -66.5s-61 -31.833 -97 -40.5c43.333 -11.333 82.833 -28 118.5 -50s66 -48.667 91 -80s44.333 -66.666 58 -105.999
s20.5 -81.333 20.5 -126zM706.999 926.003c0 19.333 -3.99805 35.8311 -11.998 49.498s-17.833 24.834 -29.5 33.501s-24.334 15 -38.001 19s-25.834 6 -36.501 6c-13.333 0 -26.333 -2 -39 -6s-25 -8.66699 -37 -14l-6 -222c15.333 0 34.333 1.33301 57 4
s44.5 8.5 65.5 17.5s38.833 22.333 53.5 40s22 41.834 22 72.501zM565.001 600.001c-19.333 0 -38.002 -1.99902 -56.002 -5.99902l-4 -228c10 -2 19.833 -3.83301 29.5 -5.5s19.167 -2.5 28.5 -2.5c14 0 29.333 1.5 46 4.5s32.334 9 47.001 18s26.834 21.167 36.501 36.5
s14.5 35.666 14.5 60.999s-4.83301 46 -14.5 62s-21.5 28.5 -35.5 37.5s-29.333 15 -46 18s-32 4.5 -46 4.5z" />
    <glyph glyph-name="C" unicode="C" horiz-adv-x="1054" 
d="M1042 1406l-56.0039 -422.001c-19.333 5.33301 -38.666 9 -57.999 11s-38.666 3 -57.999 3c-49.333 0 -96.333 -6.5 -141 -19.5s-84.167 -32.833 -118.5 -59.5s-61.666 -60 -81.999 -100s-30.5 -87 -30.5 -141c0 -34.667 5.5 -64.667 16.5 -90s26.5 -46.333 46.5 -63
s43.667 -29 71 -37s57.333 -12 90 -12c24.667 0 50.334 2.66699 77.001 8s53 12.333 79 21s51.333 18.667 76 30s47.334 23 68.001 35l-40 -470c-26 -13.333 -54.167 -25.166 -84.5 -35.499s-61.5 -19.333 -93.5 -27s-64 -13.5 -96 -17.5s-62.667 -6 -92 -6
c-84.667 0 -163.667 15.667 -237 47s-137 74.333 -191 129s-96.5 119.167 -127.5 193.5s-46.5 154.5 -46.5 240.5c0 114 16.333 221.5 49 322.5s80.667 189.5 144 265.5s141.833 136 235.5 180s201.5 66 323.5 66c46 0 93.167 -3.66699 141.5 -11s93.166 -21 134.499 -41z
" />
    <glyph glyph-name="D" unicode="D" horiz-adv-x="1193" 
d="M1184 794c0 -93.333 -12 -177.5 -36 -252.5s-57.5 -141.667 -100.5 -200s-94.167 -108.5 -153.5 -150.5s-124.333 -76.5 -195 -103.5s-145.834 -47 -225.501 -60s-161.5 -19.5 -245.5 -19.5c-31.333 0 -62 0.833008 -92 2.5s-60.667 4.16699 -92 7.5l28 1342
c73.333 23.333 148.833 39.833 226.5 49.5s154.834 14.5 231.501 14.5c95.333 0 183 -14.333 263 -43s149 -70 207 -124s103.167 -120 135.5 -198s48.5 -166.333 48.5 -265zM774 730c0.666992 36 -3.16797 70.666 -11.501 103.999s-22 62.833 -41 88.5
s-43.167 46.334 -72.5 62.001s-64.333 24.167 -105 25.5l-40 -620c40 6 76.333 19.167 109 39.5s60.834 45.333 84.501 75s42 62.667 55 99s20.167 73.833 21.5 112.5v14z" />
    <glyph glyph-name="E" unicode="E" horiz-adv-x="981" 
d="M998 1442c-4 -62.667 -7.66895 -124.667 -11.002 -186s-7.66602 -123.333 -12.999 -186l-424 -22l-10 -126h298l-22 -310l-300 -10l-10 -146h248h176l-12.5 -218.5c-4.33301 -72.333 -8.16602 -144.833 -11.499 -217.5l-862 -20l32 1442h922z" />
    <glyph glyph-name="F" unicode="F" horiz-adv-x="998" 
d="M998 1442c-4 -62.667 -7.66797 -124.667 -11.001 -186s-7.66602 -123.333 -12.999 -186l-424 -22v-126h368l-20 -310l-350 -10l2 -592l-506 -10l32 1442h922z" />
    <glyph glyph-name="G" unicode="G" horiz-adv-x="1283" 
d="M1258 204c-31.333 -39.333 -70.002 -73.6699 -116.002 -103.003s-95.333 -53.666 -148 -72.999s-106.667 -33.833 -162 -43.5s-108 -14.5 -158 -14.5c-96.667 0 -185.667 17.333 -267 52s-151.5 82.5 -210.5 143.5s-105.167 132.833 -138.5 215.5s-50 171.667 -50 267
c0 72.667 8.33301 143.834 25 213.501s40.5 135.334 71.5 197.001s68.833 118.334 113.5 170.001s95.334 96.167 152.001 133.5s118.667 66.333 186 87s139.333 31 216 31c28.667 0 59.334 -1.16699 92.001 -3.5s65.167 -6.33301 97.5 -12s63.833 -13.5 94.5 -23.5
s58.667 -22.333 84 -37l-28 -382c-37.333 14 -75.833 23.5 -115.5 28.5s-78.5 7.5 -116.5 7.5c-53.333 0 -103.166 -8.16699 -149.499 -24.5s-86.666 -39.833 -120.999 -70.5s-61.5 -68 -81.5 -112s-30 -93.667 -30 -149c0 -34.667 4.66699 -68.167 14 -100.5
s23.5 -61 42.5 -86s42.667 -45.167 71 -60.5s61.166 -23 98.499 -23c25.333 0 51.5 3.33301 78.5 10s50.167 18 69.5 34l4 78l-240 4l12 300c99.333 3.33301 198.666 6.16602 297.999 8.49902s199.333 5.5 300 9.5z" />
    <glyph glyph-name="H" unicode="H" 
d="M1238 0l-500 -24l-4 462h-230l-14 -438h-448l38 1406l476 -22l-30 -718h222l2 772l456 -12z" />
    <glyph glyph-name="I" unicode="I" horiz-adv-x="609" 
d="M591 1408l-110 -1362l-422 -22v1356z" />
    <glyph glyph-name="J" unicode="J" horiz-adv-x="1044" 
d="M1006 824l-0.00195312 -117.002c0 -38.667 -2 -77.667 -6 -117c-7.33301 -83.333 -25.333 -162.166 -54 -236.499s-67.5 -139.5 -116.5 -195.5s-108.5 -100.333 -178.5 -133s-150.333 -49 -241 -49c-35.333 0 -72.166 3 -110.499 9s-76.333 15 -114 27
s-73.667 26.833 -108 44.5s-64.833 38.167 -91.5 61.5l62 414c39.333 -38 83 -68.833 131 -92.5s100.333 -35.5 157 -35.5c36.667 0 67.667 5.33301 93 16s46.333 25.334 63 44.001s29.834 40.5 39.501 65.5s16.667 51.667 21 80s7 57.5 8 87.5s1.5 59.667 1.5 89
c0 106 -5.33301 211.5 -16 316.5s-20 210.167 -28 315.5l458 30c20 -208 30 -416 30 -624z" />
    <glyph glyph-name="K" unicode="K" horiz-adv-x="1258" 
d="M1319 1432l-482 -666l406 -708l-464 -82l-304 432l-16 -452l-416 -16l32 1532l466 -26l-36 -452l310 478z" />
    <glyph glyph-name="L" unicode="L" horiz-adv-x="926" 
d="M930 570l-42 -444l-842 -66c4 232.667 8.5 464 13.5 694s11.167 461.333 18.5 694h520l-44 -437.5c-14 -145.667 -24 -292.5 -30 -440.5c31.333 -1.33301 62.333 -2 93 -2h93c37.333 0 74 0.333008 110 1s72.667 1 110 1z" />
    <glyph glyph-name="M" unicode="M" horiz-adv-x="1619" 
d="M1597 1458l-92 -1468l-456 -20l4 774l-206 -624h-176l-158 558l-2 -648l-462 -14l20 1382l514 20l204 -662l272 702h538z" />
    <glyph glyph-name="N" unicode="N" horiz-adv-x="1441" 
d="M1411 1434l-72 -1356l-524 -48l-280 726l-44 -740h-450l36 1418l500 24l346 -720l16 680z" />
    <glyph glyph-name="O" unicode="O" horiz-adv-x="1306" 
d="M1287 706c0 -60.667 -7.00098 -119.169 -21.001 -175.502s-34.167 -109.166 -60.5 -158.499s-58.333 -94.5 -96 -135.5s-80 -76.167 -127 -105.5s-98.167 -52.166 -153.5 -68.499s-114 -24.5 -176 -24.5c-60 0 -117.167 7.66699 -171.5 23s-105.166 36.833 -152.499 64.5
s-90.166 61 -128.499 100s-71 82.333 -98 130s-48 98.834 -63 153.501s-22.5 111.667 -22.5 171c0 58 7 114.833 21 170.5s34.167 108.167 60.5 157.5s58.166 94.666 95.499 135.999s79.166 77 125.499 107s96.5 53.333 150.5 70s111 25 171 25
c96.667 0 184.834 -15 264.501 -45s147.667 -72.833 204 -128.5s100 -123 131 -202s46.5 -167.167 46.5 -264.5zM842.999 679.998c0 28.667 -4.16406 56.5 -12.4971 83.5s-20.5 51 -36.5 72s-35.833 38 -59.5 51s-50.834 19.5 -81.501 19.5
c-31.333 0 -59.333 -5.66699 -84 -17s-45.834 -26.833 -63.501 -46.5s-31.167 -42.667 -40.5 -69s-14 -54.166 -14 -83.499c0 -28 4 -56 12 -84s20 -53.333 36 -76s35.833 -41 59.5 -55s51.167 -21 82.5 -21s59.5 6.16699 84.5 18.5s46.167 29 63.5 50
s30.666 45.167 39.999 72.5s14 55.666 14 84.999z" />
    <glyph glyph-name="P" unicode="P" horiz-adv-x="1220" 
d="M1216 962c0 -64.667 -9.66406 -121.998 -28.9971 -171.998s-45.833 -93.667 -79.5 -131s-73.167 -69 -118.5 -95s-93.833 -47.167 -145.5 -63.5s-105.167 -28.333 -160.5 -36s-109.666 -11.834 -162.999 -12.501v-466h-466c0 152.667 0.333008 304.667 1 456
s1.66699 304 3 458c1.33301 81.333 1.66602 162.666 0.999023 243.999s1 163.333 5 246c85.333 25.333 170.666 44.333 255.999 57s173.333 19 264 19c51.333 0 102.666 -4.16699 153.999 -12.5s100.5 -21.5 147.5 -39.5s90.667 -40.5 131 -67.5
s75.166 -59.167 104.499 -96.5s52.5 -79.833 69.5 -127.5s25.5 -101.167 25.5 -160.5zM772.003 928.002c0 43.333 -13.165 77.167 -39.498 101.5s-60.5 36.5 -102.5 36.5c-14 0 -28.5 -1.16699 -43.5 -3.5s-29.167 -5.16602 -42.5 -8.49902l-12 -292
c9.33301 -1.33301 18.333 -2 27 -2h27c24 0 47.167 4 69.5 12s42.166 19.5 59.499 34.5s31.166 32.667 41.499 53s15.5 43.166 15.5 68.499z" />
    <glyph glyph-name="Q" unicode="Q" horiz-adv-x="1415" 
d="M1395 744c0 -101.333 -18.835 -198.003 -56.502 -290.003s-94.167 -172.667 -169.5 -242l138 -164l-366 -236l-86 236c-25.333 -5.33301 -50.833 -9.33301 -76.5 -12s-51.5 -4 -77.5 -4c-64 0 -125.333 8 -184 24s-113.667 38.5 -165 67.5s-98 64.167 -140 105.5
s-78.167 87.333 -108.5 138s-53.666 105.5 -69.999 164.5s-24.5 120.5 -24.5 184.5c0 63.333 7.83301 124.833 23.5 184.5s38 115.834 67 168.501s64 100.834 105 144.501s86.833 81.334 137.5 113.001s105.334 56.167 164.001 73.5s120.334 26 185.001 26
c103.333 0 198.166 -15.667 284.499 -47s160.5 -76.333 222.5 -135s110.333 -130.167 145 -214.5s52 -179.5 52 -285.5zM908.998 715.997c0 30.667 -4.5 60.5049 -13.5 89.5049s-22.167 54.667 -39.5 77s-39 40.166 -65 53.499s-56 20 -90 20
c-33.333 0 -63.333 -5.83301 -90 -17.5s-49.5 -27.834 -68.5 -48.501s-33.667 -45 -44 -73s-15.5 -58.333 -15.5 -91c0 -30.667 4.5 -60.834 13.5 -90.501s22.167 -56.334 39.5 -80.001s39 -42.834 65 -57.501s56 -22 90 -22c32.667 0 62.5 6.5 89.5 19.5s50 30.5 69 52.5
s33.667 47.5 44 76.5s15.5 59.5 15.5 91.5z" />
    <glyph glyph-name="R" unicode="R" horiz-adv-x="1241" 
d="M1223 964c0 -52 -4.5 -99.165 -13.5 -141.498s-23.167 -81.166 -42.5 -116.499s-44.333 -68 -75 -98s-67.667 -58.667 -111 -86l238 -424l-450 -88l-154 426l-124 -4l-18 -416h-430c3.33301 152 6.5 303.333 9.5 454s6.5 302 10.5 454l4 228
c1.33301 75.333 4 151.333 8 228c46.667 17.333 92.667 31.666 138 42.999s90.833 20.166 136.5 26.499s92 10.666 139 12.999s95.167 3.5 144.5 3.5c76 0 149.5 -10.5 220.5 -31.5s133.833 -52.5 188.5 -94.5s98.5 -94.333 131.5 -157s49.5 -135.667 49.5 -219z
M775 932.002c0 28 -3.83496 53.668 -11.502 77.001s-19 43.5 -34 60.5s-33.667 30.333 -56 40s-48.5 14.5 -78.5 14.5c-13.333 0 -26.333 -0.833008 -39 -2.5s-25 -4.16699 -37 -7.5l-16 -372h24c28.667 0 57.834 3.66699 87.501 11s56.334 18.666 80.001 33.999
s43 35 58 59s22.5 52.667 22.5 86z" />
    <glyph glyph-name="S" unicode="S" horiz-adv-x="1087" 
d="M1075 532c0 -91.333 -15.834 -171.169 -47.501 -239.502s-75 -125.166 -130 -170.499s-119.333 -79.333 -193 -102s-152.834 -34 -237.501 -34c-32.667 0 -68.5 4.33301 -107.5 13s-78.5 19.5 -118.5 32.5s-78.5 27 -115.5 42s-69.833 29.167 -98.5 42.5l44 412
c56.667 -34 119.5 -59.833 188.5 -77.5s136.833 -26.5 203.5 -26.5c12.667 0 28 0.5 46 1.5s35.167 4 51.5 9s30.166 12.5 41.499 22.5s17 24.333 17 43c0 12.667 -4 23.5 -12 32.5s-18.333 16.333 -31 22s-27 10 -43 13s-31.667 5.16699 -47 6.5s-29.666 2 -42.999 2h-32
c-57.333 0 -109.5 10 -156.5 30s-87.333 47.833 -121 83.5s-59.834 78 -78.501 127s-28 102.167 -28 159.5c0 78.667 15.833 149.167 47.5 211.5s74 115.333 127 159s113.833 77.167 182.5 100.5s139.667 35 213 35c32.667 0 66.334 -1.16699 101.001 -3.5
s69.167 -6.5 103.5 -12.5s67.833 -13.667 100.5 -23s63.667 -21 93 -35l-38 -406c-45.333 15.333 -92.833 28.166 -142.5 38.499s-98.167 15.5 -145.5 15.5c-8.66699 0 -19.834 -0.166992 -33.501 -0.5s-28 -1.33301 -43 -3s-30.167 -4.16699 -45.5 -7.5
s-29 -7.83301 -41 -13.5s-21.667 -13.167 -29 -22.5s-10.666 -20.333 -9.99902 -33c0.666992 -14.667 6.16699 -26.5 16.5 -35.5s23.666 -16 39.999 -21s34.333 -8.5 54 -10.5s39.167 -3.16699 58.5 -3.5s37.333 -0.333008 54 0s30.334 -0.166992 41.001 -1.5
c53.333 -3.33301 101.333 -14.666 144 -33.999s78.834 -45 108.501 -77s52.334 -70.167 68.001 -114.5s23.5 -93.166 23.5 -146.499z" />
    <glyph glyph-name="T" unicode="T" horiz-adv-x="1112" 
d="M1108 1430l-10 -424l-298 -12l-76 -948l-422 -22l2 948l-298 -16l12 472z" />
    <glyph glyph-name="U" unicode="U" horiz-adv-x="1276" 
d="M1247 1112c0 -49.333 -2.3291 -103.665 -6.99609 -162.998s-12.334 -120.666 -23.001 -183.999s-24.5 -127.5 -41.5 -192.5s-38.167 -127.5 -63.5 -187.5s-54.833 -116.167 -88.5 -168.5s-72.334 -98 -116.001 -137s-92.5 -69.667 -146.5 -92s-114 -33.5 -180 -33.5
c-77.333 0 -144.5 12.5 -201.5 37.5s-105.833 58.667 -146.5 101s-74 91.666 -100 147.999s-46.333 116 -61 179s-24.834 127.333 -30.501 193s-8.5 128.834 -8.5 189.501c0 93.333 4.66699 186.5 14 279.5s22.666 185.833 39.999 278.5l468 -18
c-18 -104.667 -33.5 -209.834 -46.5 -315.501s-19.5 -211.834 -19.5 -318.501c0 -11.333 0.5 -28.166 1.5 -50.499s2.83301 -47.333 5.5 -75s6.5 -56 11.5 -85s11.833 -55.5 20.5 -79.5s19.167 -43.667 31.5 -59s26.833 -23 43.5 -23c19.333 0 36.666 9.16699 51.999 27.5
s28.833 42.833 40.5 73.5s21.834 66 30.501 106s16 81.667 22 125s10.833 86.666 14.5 129.999s6.66699 83.666 9 120.999s3.83301 70.333 4.5 99s1 50 1 64c0 52 -0.833008 103.833 -2.5 155.5s-4.16699 103.167 -7.5 154.5h468c8 -92 12 -185.333 12 -280z" />
    <glyph glyph-name="V" unicode="V" horiz-adv-x="1255" 
d="M1274 1402l-366 -1392l-496 -28l-450 1406l474 44l192 -820l186 820z" />
    <glyph glyph-name="W" unicode="W" horiz-adv-x="1859" 
d="M1855 1388l-234 -1386l-568 -12l-122 718l-122 -666l-568 -20l-236 1366l496 44l100 -830l134 830h390l156 -840l80 840z" />
    <glyph glyph-name="X" unicode="X" horiz-adv-x="1205" 
d="M1255 1402l-390 -678l332 -590l-418 -130l-180 408l-212 -410l-432 156l368 580l-336 610l458 110l164 -402l174 402z" />
    <glyph glyph-name="Y" unicode="Y" horiz-adv-x="1243" 
d="M1336 1354l-550 -768l-26 -626h-474l12 622l-286 742l510 64l80 -432l254 432z" />
    <glyph glyph-name="Z" unicode="Z" horiz-adv-x="997" 
d="M966 1098l-458 -618h442l-6 -424l-892 -36l-40 392l522 680l-478 -36l-4 402h896z" />
    <glyph glyph-name="bracketleft" unicode="[" horiz-adv-x="749" 
d="M737 1288l-266.002 6l-30 -1154l280 -2l-2 -284c-55.333 3.33301 -111 5.5 -167 6.5s-112.333 1.5 -169 1.5c-52 0 -104.333 -0.666992 -157 -2s-105 -4 -157 -8c-4 164 -6 328 -6 492c0 204 3.16699 406.833 9.5 608.5s14.5 403.5 24.5 605.5
c52 3.33301 103.5 5.5 154.5 6.5s102.167 1.5 153.5 1.5c60.667 0 119.834 -0.833008 177.501 -2.5s115.834 -5.5 174.501 -11.5z" />
    <glyph glyph-name="backslash" unicode="\" horiz-adv-x="1035" 
d="M675 -78c-62.667 113.333 -121.667 228.666 -177 345.999l-159.5 354.5l-149.5 359.5l-146 362l400 156c78.667 -245.333 163.5 -488.166 254.5 -728.499s190.167 -476.833 297.5 -709.5z" />
    <glyph glyph-name="bracketright" unicode="]" horiz-adv-x="748" 
d="M686 1078c0 -204 -3.16699 -407 -9.5 -609s-15.166 -405 -26.499 -609c-51.333 -3.33301 -102.5 -5.5 -153.5 -6.5s-102.5 -1.5 -154.5 -1.5c-59.333 0 -117.833 1 -175.5 3s-115.834 5.66699 -174.501 11l18 268l266 -8l32 1156l-284 2l4 280
c55.333 -2 111 -3.83301 167 -5.5s112.333 -2.5 169 -2.5c53.333 0 106.333 0.833008 159 2.5s105 4.16699 157 7.5c2 -82.667 3.5 -164 4.5 -244s1.5 -161.333 1.5 -244z" />
    <glyph glyph-name="asciicircum" unicode="^" horiz-adv-x="994" 
d="M624 644c-0.666992 -0.666992 -3.83398 8.99902 -9.50098 28.999l-21.5 74.5l-28 97l-27.5 98l-21 76c-5.66699 20.333 -8.5 30.833 -8.5 31.5c-24 -61.333 -47 -123.166 -69 -185.499s-43 -125.166 -63 -188.499l-376 88l55.5 126.5l68.5 146.5l71 146.5l63 127.5
l45.5 90.5c11.667 23 17.834 34.5 18.501 34.5l376 8c-0.666992 -0.666992 4.33301 -13.334 15 -38.001l41.5 -97.5l58 -137.5l65.5 -157.5l63.5 -157.5c20.333 -51.333 37.833 -97.333 52.5 -138z" />
    <glyph glyph-name="underscore" unicode="_" horiz-adv-x="618" 
d="M-12 -424l-4 300l646 30l4 -342z" />
    <glyph glyph-name="grave" unicode="`" horiz-adv-x="580" 
d="M446 1366c-73.333 55.333 -146.668 106.667 -220.001 154l-226 140l198 234l153 -146l63.5 -64l63 -65.5l57 -63c17.667 -20.333 32.834 -38.833 45.501 -55.5z" />
    <glyph glyph-name="a" unicode="a" 
d="M1312 86l-496 -64l-60 226h-228l-50 -226l-510 50l398 1332l556 28zM720 554l-76 348l-74 -348h150z" />
    <glyph glyph-name="b" unicode="b" horiz-adv-x="1217" 
d="M1215 356c0 -55.333 -10.168 -102.997 -30.501 -142.997s-47.5 -74 -81.5 -102s-73.167 -50.833 -117.5 -68.5s-90.5 -31.5 -138.5 -41.5s-96.167 -16.667 -144.5 -20s-93.5 -5 -135.5 -5c-41.333 0 -84.166 1.5 -128.499 4.5s-88.5 8.16699 -132.5 15.5
s-87.333 17.166 -130 29.499s-83 27.833 -121 46.5l-2 1288c37.333 15.333 77 29.166 119 41.499s84.833 22.666 128.5 30.999s87.167 14.666 130.5 18.999s85.333 6.5 126 6.5c47.333 0 95.166 -3 143.499 -9s94.833 -16 139.5 -30s86.334 -32.167 125.001 -54.5
s72.5 -49.833 101.5 -82.5s51.667 -70.667 68 -114s24.5 -93.333 24.5 -150c0 -37.333 -5.33301 -72.333 -16 -105s-26 -62 -46 -88s-44.333 -48.167 -73 -66.5s-61 -31.833 -97 -40.5c43.333 -11.333 82.833 -28 118.5 -50s66 -48.667 91 -80s44.333 -66.666 58 -105.999
s20.5 -81.333 20.5 -126zM706.999 926.003c0 19.333 -3.99805 35.8311 -11.998 49.498s-17.833 24.834 -29.5 33.501s-24.334 15 -38.001 19s-25.834 6 -36.501 6c-13.333 0 -26.333 -2 -39 -6s-25 -8.66699 -37 -14l-6 -222c15.333 0 34.333 1.33301 57 4
s44.5 8.5 65.5 17.5s38.833 22.333 53.5 40s22 41.834 22 72.501zM565.001 600.001c-19.333 0 -38.002 -1.99902 -56.002 -5.99902l-4 -228c10 -2 19.833 -3.83301 29.5 -5.5s19.167 -2.5 28.5 -2.5c14 0 29.333 1.5 46 4.5s32.334 9 47.001 18s26.834 21.167 36.501 36.5
s14.5 35.666 14.5 60.999s-4.83301 46 -14.5 62s-21.5 28.5 -35.5 37.5s-29.333 15 -46 18s-32 4.5 -46 4.5z" />
    <glyph glyph-name="c" unicode="c" horiz-adv-x="1050" 
d="M1005 1366l-35.9941 -422.003c-19.333 5.33301 -38.333 9 -57 11s-37.667 3 -57 3c-47.333 0 -92.5 -6 -135.5 -18s-81 -30.333 -114 -55s-59.333 -55.834 -79 -93.501s-29.5 -82.167 -29.5 -133.5c0 -37.333 5.5 -69.833 16.5 -97.5s26.667 -50.667 47 -69
s45 -32.166 74 -41.499s61.167 -14 96.5 -14c24.667 0 50 2.5 76 7.5s52 11.833 78 20.5s51 18.667 75 30s46.333 23.333 67 36l-16 -470c-26 -13.333 -54 -25.166 -84 -35.499s-60.833 -19.333 -92.5 -27s-63.334 -13.5 -95.001 -17.5s-61.834 -6 -90.501 -6
c-94.667 0 -180.834 17.667 -258.501 53s-144.334 83.5 -200.001 144.5s-98.834 131.833 -129.501 212.5s-46 166.667 -46 258c0 109.333 15.5 211.333 46.5 306s76.667 176.834 137 246.501s135 124.334 224 164.001s191.167 59.5 306.5 59.5c46 0 92.667 -3.66699 140 -11
s92.666 -21 135.999 -41z" />
    <glyph glyph-name="d" unicode="d" horiz-adv-x="1195" 
d="M1184 794c0 -93.333 -12 -176.997 -36 -250.997s-57.5 -139.5 -100.5 -196.5s-94.167 -105.5 -153.5 -145.5s-124.333 -72.833 -195 -98.5s-145.834 -44.5 -225.501 -56.5s-161.5 -18 -245.5 -18c-31.333 0 -62 0.833008 -92 2.5s-60.667 4.16699 -92 7.5l28 1302
c73.333 23.333 148.833 39.833 226.5 49.5s154.834 14.5 231.501 14.5c95.333 0 183 -13.333 263 -40s149 -65.834 207 -117.501s103.167 -115.334 135.5 -191.001s48.5 -162.834 48.5 -261.501zM504 410.003c40 6 76.5 18.1689 109.5 36.502s61.5 41 85.5 68
s42.5 57.667 55.5 92s19.5 70.833 19.5 109.5c0 38 -4 73.5 -12 106.5s-21 61.667 -39 86s-41.667 43.666 -71 57.999s-65.333 22.166 -108 23.499z" />
    <glyph glyph-name="e" unicode="e" horiz-adv-x="1181" 
d="M1167 808c0 -58 -4.00098 -116.002 -12.001 -174.002c-114 -7.33301 -227.333 -19.166 -340 -35.499l-338 -48.5c17.333 -48 44.5 -86.333 81.5 -115s81.167 -43 132.5 -43c26.667 0 55.834 5 87.501 15s63.167 22.5 94.5 37.5s61.333 31.167 90 48.5
s53.334 33 74.001 47l-48 -454c-26 -20 -54.167 -37 -84.5 -51s-61.833 -25.333 -94.5 -34s-65.667 -15 -99 -19s-66 -6 -98 -6c-66 0 -126.333 9 -181 27s-104.167 43.167 -148.5 75.5s-83.166 70.5 -116.499 114.5s-61 92 -83 144s-38.667 107 -50 165
s-17 116.667 -17 176c0 62 5.66699 124 17 186s28.5 121.667 51.5 179s52 110.5 87 159.5s75.833 91.833 122.5 128.5s99.5 65.334 158.5 86.001s124.167 31 195.5 31c59.333 0 113.5 -8.16699 162.5 -24.5s92.667 -39 131 -68s71.666 -63.5 99.999 -103.5
s51.666 -83.833 69.999 -131.5s32 -98 41 -151s13.5 -106.833 13.5 -161.5zM766.999 859.998c0 18.667 -2 37.832 -6 57.499s-10.5 37.5 -19.5 53.5s-20.833 29.167 -35.5 39.5s-33 15.5 -55 15.5c-26.667 0 -50.167 -7.16699 -70.5 -21.5s-37.833 -32.333 -52.5 -54
s-26.667 -45.167 -36 -70.5s-16.333 -48.666 -21 -69.999l296 28v22z" />
    <glyph glyph-name="f" unicode="f" horiz-adv-x="999" 
d="M997 1422c-4 -62.667 -7.66797 -124.667 -11.001 -186s-7.66602 -123.333 -12.999 -186l-424 -22v-126h368l-20 -310l-350 -10l2 -552l-506 -10l32 1402h922z" />
    <glyph glyph-name="g" unicode="g" horiz-adv-x="1285" 
d="M1260 224c-31.333 -39.333 -70.0029 -73.668 -116.003 -103.001s-95.333 -53.666 -148 -72.999s-106.667 -33.833 -162 -43.5s-108 -14.5 -158 -14.5c-96.667 0 -185.667 16.333 -267 49s-151.5 78.167 -210.5 136.5s-105.167 127.833 -138.5 208.5s-50 168.667 -50 264
c0 72.667 8.33301 143.334 25 212.001s40.5 133 71.5 193s68.833 115 113.5 165s95.334 93 152.001 129s118.834 63.833 186.501 83.5s139.5 29.5 215.5 29.5c28.667 0 59.334 -1.16699 92.001 -3.5s65.167 -6.33301 97.5 -12s63.833 -13.5 94.5 -23.5
s58.667 -22.333 84 -37l-28 -382c-37.333 14 -75.833 23.5 -115.5 28.5s-78.5 7.5 -116.5 7.5c-53.333 0 -103.166 -7.16699 -149.499 -21.5s-86.666 -35.5 -120.999 -63.5s-61.5 -63 -81.5 -105s-30 -90.667 -30 -146c0 -34.667 4.66699 -68.167 14 -100.5
s23.5 -61 42.5 -86s42.667 -45.167 71 -60.5s61.166 -23 98.499 -23c25.333 0 51.5 3.33301 78.5 10s50.167 18 69.5 34l4 78l-240 4l12 300c99.333 3.33301 198.666 6.16602 297.999 8.49902s199.333 5.5 300 9.5z" />
    <glyph glyph-name="h" unicode="h" 
d="M1238 40l-500 -24l-4 422h-230l-14 -438h-448l38 1406l476 -22l-30 -718h222l2 752l456 -12z" />
    <glyph glyph-name="i" unicode="i" horiz-adv-x="603" 
d="M573 1408l-70 -1362l-422 -22l-40 1356z" />
    <glyph glyph-name="j" unicode="j" horiz-adv-x="1044" 
d="M1006 824l-0.00195312 -117.002c0 -38.667 -2 -77.667 -6 -117c-7.33301 -83.333 -25.333 -162.166 -54 -236.499s-67.5 -139.5 -116.5 -195.5s-108.5 -100.333 -178.5 -133s-150.333 -49 -241 -49c-35.333 0 -72.166 3 -110.499 9s-76.333 15 -114 27
s-73.667 26.833 -108 44.5s-64.833 38.167 -91.5 61.5l62 414c39.333 -38 83 -68.833 131 -92.5s100.333 -35.5 157 -35.5c36.667 0 67.667 5.33301 93 16s46.333 25.334 63 44.001s29.834 40.5 39.501 65.5s16.667 51.667 21 80s7 57.5 8 87.5s1.5 59.667 1.5 89
c0 106 -5.33301 211.5 -16 316.5s-20 210.167 -28 315.5l458 30c20 -208 30 -416 30 -624z" />
    <glyph glyph-name="k" unicode="k" horiz-adv-x="1234" 
d="M1280 1292l-442 -526l406 -688l-464 -82l-304 412l-16 -392l-416 -16l32 1432l466 -26l-36 -412l290 418z" />
    <glyph glyph-name="l" unicode="l" horiz-adv-x="924" 
d="M928 530l-42 -444l-842 -66l32 1428h520l-74 -918h406z" />
    <glyph glyph-name="m" unicode="m" horiz-adv-x="1839" 
d="M1799 678c0 -95.333 -2.99805 -190.33 -8.99805 -284.997s-13 -189.667 -21 -285l-514 -24c15.333 116 29.166 232.167 41.499 348.5s18.5 232.833 18.5 349.5c0 7.33301 -0.333008 20.166 -1 38.499s-1.83398 39.166 -3.50098 62.499s-4 47.5 -7 72.5s-7 48 -12 69
s-11.167 38.167 -18.5 51.5s-16 20 -26 20c-23.333 0 -41.666 -8.83301 -54.999 -26.5s-23.166 -38.834 -29.499 -63.501s-10.166 -49.834 -11.499 -75.501s-2 -46.5 -2 -62.5c0 -28 0.666992 -56 2 -84s2 -56.667 2 -86c0 -103.333 -2.5 -206.333 -7.5 -309
s-11.167 -205.667 -18.5 -309l-474 -18c15.333 116 28.833 231.833 40.5 347.5s17.5 231.834 17.5 348.501c0 7.33301 -0.333008 20.666 -1 39.999s-1.83398 41 -3.50098 65s-4.16699 49 -7.5 75s-7.5 49.833 -12.5 71.5s-11.167 39.5 -18.5 53.5s-16.333 21 -27 21
c-16.667 0 -30.667 -6.5 -42 -19.5s-20.5 -29.833 -27.5 -50.5s-12.333 -43.5 -16 -68.5s-6.33398 -49.5 -8.00098 -73.5s-2.66699 -46.167 -3 -66.5s-0.833008 -35.5 -1.5 -45.5l-22 -730h-504l32.5 339c11 113.333 20.667 226.5 29 339.5s15.166 226.167 20.499 339.5
s8 226.666 8 339.999l476 20l-2 -116c14.667 18.667 31.334 37.5 50.001 56.5s38.5 36 59.5 51s43.333 27.167 67 36.5s48.167 14 73.5 14c32.667 0 62 -2.5 88 -7.5s49.5 -13.5 70.5 -25.5s39.5 -28.5 55.5 -49.5s30 -47.5 42 -79.5c21.333 23.333 42.833 45 64.5 65
s44.5 37.167 68.5 51.5s50 25.5 78 33.5s59 12 93 12c64.667 0 119.667 -12.5 165 -37.5s83.166 -58.167 113.499 -99.5s54 -88.666 71 -141.999s29.833 -108.666 38.5 -165.999s14.167 -114.333 16.5 -171s3.5 -108.667 3.5 -156z" />
    <glyph glyph-name="n" unicode="n" horiz-adv-x="1335" 
d="M1292 506c0 -75.333 -0.839844 -149.83 -2.50684 -223.497s-4.16699 -147.834 -7.5 -222.501l-576 10c20 118 37.333 235.833 52 353.5s22 236.5 22 356.5c0 8.66699 -0.333008 22.667 -1 42s-2 41.166 -4 65.499s-4.83301 49.333 -8.5 75s-8.66699 49.167 -15 70.5
s-14 38.833 -23 52.5s-19.833 20.5 -32.5 20.5c-22.667 0 -41.834 -6.66699 -57.501 -20s-28.667 -30.5 -39 -51.5s-18.5 -44.5 -24.5 -70.5s-10.5 -52 -13.5 -78s-5 -50.5 -6 -73.5s-1.5 -41.833 -1.5 -56.5c-3.33301 -118 -6 -235.167 -8 -351.5
s-4.66699 -233.833 -8 -352.5l-510 -22l38.5 702c12.333 232.667 22.166 466.667 29.499 702l472 24l-4 -160c18.667 22.667 38.834 44 60.501 64s44.834 37.167 69.501 51.5s50.834 25.666 78.501 33.999s56.834 12.5 87.501 12.5c56.667 0 106.334 -9.33301 149.001 -28
s79.334 -44 110.001 -76s56.334 -69.833 77.001 -113.5s37.334 -90.167 50.001 -139.5s22.334 -100.833 29.001 -154.5s11.167 -106.5 13.5 -158.5s3.5 -102.333 3.5 -151v-133z" />
    <glyph glyph-name="o" unicode="o" horiz-adv-x="1306" 
d="M1287 766c0 -60.667 -7.00098 -119.169 -21.001 -175.502s-34.167 -109.166 -60.5 -158.499s-58.333 -94.5 -96 -135.5s-80 -76.167 -127 -105.5s-98.167 -52.166 -153.5 -68.499s-114 -24.5 -176 -24.5c-60 0 -117.167 7.66699 -171.5 23s-105.166 36.833 -152.499 64.5
s-90.166 61 -128.499 100s-71 82.333 -98 130s-48 98.834 -63 153.501s-22.5 111.667 -22.5 171c0 58 7 114.833 21 170.5s34.167 108.167 60.5 157.5s58.166 94.666 95.499 135.999s79.166 77 125.499 107s96.5 53.333 150.5 70s111 25 171 25
c96.667 0 184.834 -15 264.501 -45s147.667 -72.833 204 -128.5s100 -123 131 -202s46.5 -167.167 46.5 -264.5zM842.999 739.998c0 28.667 -4.16406 56.5 -12.4971 83.5s-20.5 51 -36.5 72s-35.833 38 -59.5 51s-50.834 19.5 -81.501 19.5
c-31.333 0 -59.333 -5.66699 -84 -17s-45.834 -26.833 -63.501 -46.5s-31.167 -42.667 -40.5 -69s-14 -54.166 -14 -83.499c0 -28 4 -56 12 -84s20 -53.333 36 -76s35.833 -41 59.5 -55s51.167 -21 82.5 -21s59.5 6.16699 84.5 18.5s46.167 29 63.5 50
s30.666 45.167 39.999 72.5s14 55.666 14 84.999z" />
    <glyph glyph-name="p" unicode="p" horiz-adv-x="1222" 
d="M1216 922c0 -64.667 -9.66406 -121.997 -28.9971 -171.997s-45.833 -93.833 -79.5 -131.5s-73.167 -69.334 -118.5 -95.001s-93.833 -46.667 -145.5 -63s-105.167 -28.333 -160.5 -36s-109.666 -11.834 -162.999 -12.501v-426h-466c0 76 0.166992 150 0.5 222l1 214.5
l1 214.5c0.333008 72 0.833008 146.333 1.5 223c1.33301 81.333 1.66602 162.666 0.999023 243.999s1 163.333 5 246c85.333 25.333 170.666 44.333 255.999 57s173.333 19 264 19c51.333 0 102.666 -4.16699 153.999 -12.5s100.5 -21.5 147.5 -39.5s90.667 -40.5 131 -67.5
s75.166 -59.167 104.499 -96.5s52.5 -80 69.5 -128s25.5 -101.333 25.5 -160zM772.003 888.003c0 43.333 -13.165 77.167 -39.498 101.5s-60.5 36.5 -102.5 36.5c-14 0 -28.5 -1.16699 -43.5 -3.5s-29.167 -5.16602 -42.5 -8.49902l-12 -292
c9.33301 -1.33301 18.333 -2 27 -2h27c24 0 47.167 4 69.5 12s42.166 19.5 59.499 34.5s31.166 32.667 41.499 53s15.5 43.166 15.5 68.499z" />
    <glyph glyph-name="q" unicode="q" horiz-adv-x="1415" 
d="M1395 744c0 -101.333 -18.835 -198.003 -56.502 -290.003s-94.167 -172.667 -169.5 -242l138 -164l-366 -236l-86 236c-25.333 -5.33301 -50.833 -9.33301 -76.5 -12s-51.5 -4 -77.5 -4c-64 0 -125.333 8 -184 24s-113.667 38.5 -165 67.5s-98 64.167 -140 105.5
s-78.167 87.333 -108.5 138s-53.666 105.5 -69.999 164.5s-24.5 120.5 -24.5 184.5c0 63.333 7.83301 124.833 23.5 184.5s38 115.834 67 168.501s64 100.834 105 144.501s86.833 81.334 137.5 113.001s105.334 56.167 164.001 73.5s120.334 26 185.001 26
c103.333 0 198.166 -15.667 284.499 -47s160.5 -76.333 222.5 -135s110.333 -130.167 145 -214.5s52 -179.5 52 -285.5zM908.998 715.997c0 30.667 -4.5 60.5049 -13.5 89.5049s-22.167 54.667 -39.5 77s-39 40.166 -65 53.499s-56 20 -90 20
c-33.333 0 -63.333 -5.83301 -90 -17.5s-49.5 -27.834 -68.5 -48.501s-33.667 -45 -44 -73s-15.5 -58.333 -15.5 -91c0 -30.667 4.5 -60.834 13.5 -90.501s22.167 -56.334 39.5 -80.001s39 -42.834 65 -57.501s56 -22 90 -22c32.667 0 62.5 6.5 89.5 19.5s50 30.5 69 52.5
s33.667 47.5 44 76.5s15.5 59.5 15.5 91.5z" />
    <glyph glyph-name="r" unicode="r" horiz-adv-x="1241" 
d="M1223 964c0 -52 -4.5 -99.165 -13.5 -141.498s-23.167 -81.166 -42.5 -116.499s-44.333 -68 -75 -98s-67.667 -58.667 -111 -86l238 -424l-450 -88l-154 426l-124 -4l-18 -416h-430c3.33301 152 6.5 303.333 9.5 454s6.5 302 10.5 454l4 228
c1.33301 75.333 4 151.333 8 228c46.667 17.333 92.667 31.666 138 42.999s90.833 20.166 136.5 26.499s92 10.666 139 12.999s95.167 3.5 144.5 3.5c76 0 149.5 -10.5 220.5 -31.5s133.833 -52.5 188.5 -94.5s98.5 -94.333 131.5 -157s49.5 -135.667 49.5 -219z
M775 932.002c0 28 -3.83496 53.668 -11.502 77.001s-19 43.5 -34 60.5s-33.667 30.333 -56 40s-48.5 14.5 -78.5 14.5c-13.333 0 -26.333 -0.833008 -39 -2.5s-25 -4.16699 -37 -7.5l-16 -372h24c28.667 0 57.834 3.66699 87.501 11s56.334 18.666 80.001 33.999
s43 35 58 59s22.5 52.667 22.5 86z" />
    <glyph glyph-name="s" unicode="s" horiz-adv-x="1089" 
d="M1076 512c0 -91.333 -15.834 -170.168 -47.501 -236.501s-75 -121 -130 -164s-119.333 -74.667 -193 -95s-152.834 -30.5 -237.501 -30.5c-32.667 0 -68.5 4.33301 -107.5 13s-78.5 19.5 -118.5 32.5s-78.5 27 -115.5 42s-69.833 29.167 -98.5 42.5l44 392
c56.667 -34 119.5 -59.833 188.5 -77.5s136.833 -26.5 203.5 -26.5c12.667 0 28 0.5 46 1.5s35.167 4 51.5 9s30.166 12.5 41.499 22.5s17 24.333 17 43c0 12.667 -4 23.5 -12 32.5s-18.333 16.333 -31 22s-27 10 -43 13s-31.667 5.16699 -47 6.5s-29.666 2 -42.999 2h-32
c-57.333 0 -109.5 9 -156.5 27s-87.333 43.5 -121 76.5s-59.834 73 -78.501 120s-28 99.167 -28 156.5c0 78.667 15.833 149.167 47.5 211.5s74 115.333 127 159s113.833 77.167 182.5 100.5s139.667 35 213 35c32.667 0 66.334 -1.16699 101.001 -3.5
s69.167 -6.5 103.5 -12.5s67.833 -13.667 100.5 -23s63.667 -21 93 -35l-38 -406c-45.333 15.333 -92.833 28.166 -142.5 38.499s-98.167 15.5 -145.5 15.5c-8.66699 0 -19.834 -0.166992 -33.501 -0.5s-28 -1.33301 -43 -3s-30.167 -4.16699 -45.5 -7.5
s-29 -7.83301 -41 -13.5s-21.667 -13.167 -29 -22.5s-10.666 -20.333 -9.99902 -33c0.666992 -14.667 6.16699 -26 16.5 -34s23.666 -13.833 39.999 -17.5s34.333 -5.5 54 -5.5s39.167 0.5 58.5 1.5s37.333 2 54 3s30.334 1.16699 41.001 0.5
c53.333 -3.33301 101.333 -14.666 144 -33.999s78.834 -45 108.501 -77s52.334 -70.167 68.001 -114.5s23.5 -93.166 23.5 -146.499z" />
    <glyph glyph-name="t" unicode="t" horiz-adv-x="1116" 
d="M1110 1410l-10 -424l-298 -12l-36 -928l-422 -22l-38 928l-298 -16l12 472z" />
    <glyph glyph-name="u" unicode="u" horiz-adv-x="1252" 
d="M1243 1408c-30 -234.667 -55.6719 -468.17 -77.0049 -700.503s-41.666 -466.166 -60.999 -701.499l-410 -30l18 154c-13.333 -15.333 -28.833 -28.666 -46.5 -39.999s-36.5 -20.5 -56.5 -27.5s-40.667 -12 -62 -15s-41.666 -4.16699 -60.999 -3.5
c-45.333 0.666992 -88 9.5 -128 26.5s-76.667 39.667 -110 68s-63.333 61.333 -90 99s-49.167 77.334 -67.5 119.001s-32.333 84.167 -42 127.5s-14.5 85.333 -14.5 126c0 60 1.16699 122.167 3.5 186.5s6.5 128.833 12.5 193.5s13.833 128.667 23.5 192
s21.834 124 36.501 182c81.333 -4 163 -7.66699 245 -11s163.667 -4.33301 245 -3l-45.5 -174.5c-15 -58.333 -28.5 -117 -40.5 -176s-21.667 -118.167 -29 -177.5s-11 -119.333 -11 -180c0 -14 0.666992 -34 2 -60s4.83301 -51.667 10.5 -77s14.334 -47.5 26.001 -66.5
s28.167 -28.5 49.5 -28.5c25.333 0 48 10.833 68 32.5s37.667 50.834 53 87.501s28.5 79 39.5 127s20.333 98.167 28 150.5s13.834 105.166 18.501 158.499s8.16699 103.5 10.5 150.5s4 89.167 5 126.5s1.5 66.333 1.5 87c0 13.333 -0.333008 26.333 -1 39
s-1.66699 25.667 -3 39c43.333 -1.33301 86.333 -2.33301 129 -3s85.667 -1 129 -1c33.333 0 66.833 0.166992 100.5 0.5s67.5 1.5 101.5 3.5z" />
    <glyph glyph-name="v" unicode="v" horiz-adv-x="1258" 
d="M1278 1402l-366 -1352l-496 -28l-450 1306l474 44l192 -760l186 820z" />
    <glyph glyph-name="w" unicode="w" horiz-adv-x="1863" 
d="M1857 1388l-234 -1346l-568 -12l-122 678l-122 -626l-568 -20l-236 1286l496 44l100 -790l134 730h390l156 -740l80 840z" />
    <glyph glyph-name="x" unicode="x" horiz-adv-x="1218" 
d="M1261 1362l-390 -638l352 -570l-418 -130l-200 388l-212 -410l-432 156l368 580l-336 570l458 110l164 -362l174 362z" />
    <glyph glyph-name="y" unicode="y" horiz-adv-x="1240" 
d="M1284 1354l-470 -768l14 -566h-514l12 562l-366 742l510 64l160 -432l174 432z" />
    <glyph glyph-name="z" unicode="z" horiz-adv-x="1015" 
d="M989 1058l-458 -578h422l14 -424l-892 -36l-40 392l522 640l-518 -36l-4 402h936z" />
    <glyph glyph-name="braceleft" unicode="{" horiz-adv-x="840" 
d="M784 1244c-35.333 14.667 -72.666 22.001 -111.999 22.001c-41.333 0 -72 -7.66699 -92 -23s-30 -37.666 -30 -66.999c0 -22.667 3.16699 -44.667 9.5 -66s13.166 -42.5 20.499 -63.5s14.166 -42.167 20.499 -63.5s9.5 -43 9.5 -65c0 -55.333 -19.5 -96.5 -58.5 -123.5
s-94.167 -40.5 -165.5 -40.5c35.333 -7.33301 67.833 -19.333 97.5 -36s55 -36.167 76 -58.5s37.333 -46.833 49 -73.5s17.5 -53.334 17.5 -80.001c0 -22.667 -3.83301 -44.834 -11.5 -66.501s-16.167 -43.167 -25.5 -64.5s-17.833 -42.833 -25.5 -64.5
s-11.5 -43.834 -11.5 -66.501c0 -21.333 7 -40.5 21 -57.5s31.833 -31.5 53.5 -43.5s45.667 -21.5 72 -28.5s52.166 -11.833 77.499 -14.5l-148 -278c-56 -1.33301 -110.5 7.16699 -163.5 25.5s-100 42.833 -141 73.5s-73.833 65.834 -98.5 105.501s-37 80.167 -37 121.5
c0 23.333 4 46.333 12 69s17 45.167 27 67.5s19 44.833 27 67.5s12 46 12 70c0 24.667 -8.33301 47.167 -25 67.5s-38.167 37.166 -64.5 50.499s-55.666 23 -87.999 29s-63.833 7.66699 -94.5 5l10 276c7.33301 -1.33301 13.666 -2 18.999 -2h19c26.667 0 52 3.16699 76 9.5
s45 15.333 63 27s32.333 25.834 43 42.501s16 35.667 16 57c0 24.667 -4 49.167 -12 73.5s-16.667 48.5 -26 72.5s-18 48 -26 72s-12 48.667 -12 74c0 42.667 12.333 82.667 37 120s57.334 69.5 98.001 96.5s87.334 48.333 140.001 64s107 23.5 163 23.5
c52 0 102.5 -6.66699 151.5 -20s95.167 -30 138.5 -50z" />
    <glyph glyph-name="bar" unicode="|" horiz-adv-x="588" 
d="M73 -144l-4 1696l448 -10v-1686h-444z" />
    <glyph glyph-name="braceright" unicode="}" horiz-adv-x="824" 
d="M820 550c-5.33301 0 -11.499 0.331055 -18.499 0.998047s-13.5 1 -19.5 1c-27.333 0 -52.666 -3.16699 -75.999 -9.5s-43.833 -15.333 -61.5 -27s-31.5 -25.667 -41.5 -42s-15 -34.833 -15 -55.5c0 -25.333 3.66699 -50.166 11 -74.499s15.333 -48.5 24 -72.5
s16.667 -48.333 24 -73s11 -50 11 -76c0 -43.333 -12.333 -83.166 -37 -119.499s-57.167 -68 -97.5 -95s-86.666 -48 -138.999 -63s-105.833 -22.5 -160.5 -22.5c-52 0 -102.833 6.33301 -152.5 19s-96.167 29 -139.5 49l108 268c18 -7.33301 36.667 -13.166 56 -17.499
s38.666 -6.5 57.999 -6.5c40 0 70.667 7.83301 92 23.5s32 38.5 32 68.5c0 22 -3.5 43.667 -10.5 65s-14.5 42.5 -22.5 63.5s-15.5 42.167 -22.5 63.5s-10.5 43.333 -10.5 66c0 53.333 19.667 94 59 122s95.666 41.333 168.999 40c-36.667 6.66699 -70 18.334 -100 35.001
s-55.667 36 -77 58s-37.833 46.167 -49.5 72.5s-17.5 53.166 -17.5 80.499c0 23.333 4 46 12 68s16.667 43.667 26 65s18 43 26 65s12 44.667 12 68c0 21.333 -7 40.166 -21 56.499s-31.833 30.333 -53.5 42s-45.834 21 -72.501 28s-52.334 12.167 -77.001 15.5l146 280
c56.667 0.666992 111.334 -8.16602 164.001 -26.499s99.5 -42.833 140.5 -73.5s73.833 -65.834 98.5 -105.501s37 -79.834 37 -120.501c0 -23.333 -4 -46.333 -12 -69s-16.667 -45.334 -26 -68.001s-18 -45.5 -26 -68.5s-12 -46.5 -12 -70.5
c0 -25.333 8.5 -47.833 25.5 -67.5s38.833 -36.167 65.5 -49.5s56.167 -23.166 88.5 -29.499s63.833 -8.16602 94.5 -5.49902z" />
    <glyph glyph-name="asciitilde" unicode="~" horiz-adv-x="1180" 
d="M1084 1114c21.333 -46 38.6641 -93.499 51.9971 -142.499s20 -98.167 20 -147.5c0 -53.333 -9.66699 -104.666 -29 -153.999s-46.166 -93 -80.499 -131s-75.166 -68.333 -122.499 -91s-98.666 -34 -153.999 -34c-38 0 -70.667 7.16699 -98 21.5s-51 32.333 -71 54
s-37.5 45.167 -52.5 70.5l-41.5 70.5c-12.667 21.667 -25.334 39.667 -38.001 54s-27 21.5 -43 21.5c-10.667 0 -19.5 -2.66699 -26.5 -8s-12.5 -12 -16.5 -20s-6.83301 -16.667 -8.5 -26s-2.5 -18 -2.5 -26c0 -28 4.83301 -56.167 14.5 -84.5s19.5 -55.5 29.5 -81.5
l-344 -44c-12 44 -22 88 -30 132s-12 88 -12 132c0 58.667 8.16699 112.667 24.5 162s40.166 91.5 71.499 126.5s69.833 62.333 115.5 82s97.834 29.5 156.501 29.5c44.667 0 82.334 -6.5 113.001 -19.5s56.5 -29.167 77.5 -48.5s38 -40.333 51 -63l35 -63
c10.333 -19.333 20.333 -35.5 30 -48.5s21.5 -19.5 35.5 -19.5c10 0 18.833 2.16699 26.5 6.5s14.167 10 19.5 17s9.33301 14.833 12 23.5s4 17 4 25c0 27.333 -7.16699 54.166 -21.5 80.499s-28.5 50.166 -42.5 71.499z" />
    <glyph glyph-name="uni00A0" unicode="&#xa0;" horiz-adv-x="400" 
 />
    <glyph glyph-name="exclamdown" unicode="&#xa1;" horiz-adv-x="570" 
d="M30 -432l82 1052h370l38 -1052h-490zM96 928c0 28.667 5.66699 55.834 17 81.501s26.5 48 45.5 67s41.167 34 66.5 45s52.333 16.5 81 16.5s55.834 -5.5 81.501 -16.5s48 -26 67 -45s34 -41.333 45 -67s16.5 -52.834 16.5 -81.501c0 -29.333 -5.5 -56.833 -16.5 -82.5
s-26 -48 -45 -67s-41.333 -34.167 -67 -45.5s-52.834 -17 -81.501 -17s-55.667 5.66699 -81 17s-47.5 26.5 -66.5 45.5s-34.167 41.333 -45.5 67s-17 53.167 -17 82.5z" />
    <glyph glyph-name="cent" unicode="&#xa2;" horiz-adv-x="864" 
d="M389 -146l10.002 396.006c-54.667 11.333 -104 30 -148 56s-81.5 57 -112.5 93s-55 76.167 -72 120.5s-25.5 91.166 -25.5 140.499c0 55.333 7.66699 107.833 23 157.5s38 94.5 68 134.5s67 74.833 111 104.5s94.667 52.167 152 67.5l-18 428l128 -10l-14 -400
c28 4 58 6 90 6c34 0 68.833 -2 104.5 -6s70.167 -12.667 103.5 -26l-28 -266c-14 3.33301 -28 5.5 -42 6.5s-28.667 1.5 -44 1.5c-35.333 0 -69 -3.83301 -101 -11.5s-60.5 -19.334 -85.5 -35.001s-44.833 -35.334 -59.5 -59.001s-22 -51.834 -22 -84.501
c0 -46 15.5 -80.5 46.5 -103.5s74.167 -34.5 129.5 -34.5c37.333 0 76.166 5.83301 116.499 17.5s76.166 25.167 107.499 40.5l-12 -296c-19.333 -8 -40.5 -15.333 -63.5 -22s-46.5 -12.334 -70.5 -17.001s-48.167 -8.33398 -72.5 -11.001s-47.5 -4 -69.5 -4h-28l16 -382z
" />
    <glyph glyph-name="sterling" unicode="&#xa3;" horiz-adv-x="866" 
d="M683 746l4.00098 -88.001l-174 2l-10 -82h294l-28 -266l-612 -40l12 396l-128 2l2 80l128 -2c4.66699 46.667 14.667 93 30 139s38.333 87.5 69 124.5s69.667 67 117 90s105.333 34.5 174 34.5c34 0 68.833 -2 104.5 -6s70.167 -12.667 103.5 -26l-28 -266
c-14 3.33301 -28 5.83301 -42 7.5s-28.667 1.83398 -44 0.500977c-13.333 -0.666992 -27.333 -3.5 -42 -8.5s-28.5 -12 -41.5 -21s-24.333 -19.667 -34 -32s-15.834 -25.833 -18.501 -40.5z" />
    <glyph glyph-name="currency" unicode="&#xa4;" horiz-adv-x="876" 
d="M515 709c0 14.667 -2.16895 28.834 -6.50195 42.501s-10.166 25.667 -17.499 36s-16.166 18.5 -26.499 24.5s-21.5 9 -33.5 9s-23.333 -3 -34 -9s-20 -14.167 -28 -24.5s-14.333 -22.333 -19 -36s-7 -27.834 -7 -42.501c0 -16 2.33301 -31 7 -45s11 -26 19 -36
s17.333 -18 28 -24s22 -9 34 -9c24 0 44 11 60 33s24 49 24 81zM24.998 532l101.001 102.002c-7.33301 27.333 -11 54.333 -11 81c0 15.333 1.16699 30.166 3.5 44.499s5.5 28.166 9.5 41.499l-93 97l210 216l118 -112c8.66699 1.33301 17.167 2.5 25.5 3.5
s17.166 1.5 26.499 1.5c12 0 23.833 -0.666992 35.5 -2s23.167 -3.33301 34.5 -6l110 109l242 -196l-125 -128c6 -22 9 -45 9 -69c0 -13.333 -1 -27 -3 -41l133 -124l-240 -244l-118 121c-24.667 -5.33301 -48.667 -8 -72 -8c-10 0 -20 0.5 -30 1.5s-19.667 2.16699 -29 3.5
l-115 -118z" />
    <glyph glyph-name="yen" unicode="&#xa5;" horiz-adv-x="1047" 
d="M668 462l6 -190h-372l4 196l-138 4l2 80l138 -2l2 58l-142 4l-4 60l106 4l-226 378l370 38l116 -258l126 258l350 -20l-278 -374l82 4l4 -102l-150 2l2 -54h144l4 -88z" />
    <glyph glyph-name="brokenbar" unicode="&#xa6;" horiz-adv-x="590" 
d="M72 830l-4 722l448 -10v-712h-444zM80 -146l-6 678h442l2 -676z" />
    <glyph glyph-name="section" unicode="&#xa7;" horiz-adv-x="1170" 
d="M1112 352c0 -91.333 -15.834 -170.168 -47.501 -236.501s-75 -121 -130 -164s-119.333 -74.667 -193 -95s-152.834 -30.5 -237.501 -30.5c-32.667 0 -68.5 4.33301 -107.5 13s-78.5 19.5 -118.5 32.5s-78.5 27 -115.5 42s-69.833 29.167 -98.5 42.5l44 392
c56.667 -34 119.5 -59.833 188.5 -77.5s136.833 -26.5 203.5 -26.5c12.667 0 28 0.5 46 1.5s35.167 4 51.5 9s30.166 12.5 41.499 22.5s17 24.333 17 43c0 12.667 -4 23.5 -12 32.5s-18.333 16.333 -31 22s-27 10 -43 13s-31.667 5.16699 -47 6.5s-29.666 2 -42.999 2h-32
c-57.333 0 -109.5 9 -156.5 27s-87.333 43.5 -121 76.5s-59.834 73 -78.501 120s-28 99.167 -28 156.5c0 25.333 1.5 49.833 4.5 73.5s8.16699 46.5 15.5 68.5c-7.33301 21.333 -12.5 43.333 -15.5 66s-4.5 46.667 -4.5 72c0 78.667 15.833 149.167 47.5 211.5
s74 115.333 127 159s113.833 77.167 182.5 100.5s139.667 35 213 35c32.667 0 66.334 -1.16699 101.001 -3.5s69.167 -6.5 103.5 -12.5s67.833 -13.667 100.5 -23s63.667 -21 93 -35l-38 -406c-45.333 15.333 -92.833 28.166 -142.5 38.499s-98.167 15.5 -145.5 15.5
c-8.66699 0 -19.834 -0.166992 -33.501 -0.5s-28 -1.33301 -43 -3s-30.167 -4.16699 -45.5 -7.5s-29 -7.83301 -41 -13.5s-21.667 -13.167 -29 -22.5s-10.666 -20.333 -9.99902 -33c0.666992 -14.667 6.16699 -26 16.5 -34s23.666 -13.833 39.999 -17.5s34.333 -5.5 54 -5.5
s39.167 0.5 58.5 1.5s37.5 2 54.5 3s30.5 1.16699 40.5 0.5c53.333 -3.33301 101.333 -14.666 144 -33.999s78.834 -45 108.501 -77s52.334 -70.167 68.001 -114.5s23.5 -93.166 23.5 -146.499c0 -28 -1.66699 -54.5 -5 -79.5s-7.66602 -49.167 -12.999 -72.5
c12 -38 18 -80.667 18 -128zM487.999 703.998c-2 -17.333 6.16992 -33.001 24.5029 -47.001s42.166 -23 71.499 -27c14 -2 27.5 -2.33301 40.5 -1s24.667 4 35 8s18.666 9.33301 24.999 16s10.166 14.334 11.499 23.001c1.33301 8 -0.166992 16 -4.5 24
s-10.833 15.333 -19.5 22s-19.167 12.5 -31.5 17.5s-25.833 8.5 -40.5 10.5c-29.333 4 -54.5 1.66699 -75.5 -7s-33.167 -21.667 -36.5 -39z" />
    <glyph glyph-name="dieresis" unicode="&#xa8;" horiz-adv-x="706" 
d="M706 1574c0 -20.667 -3.83301 -39.834 -11.5 -57.501s-18.167 -33 -31.5 -46s-29 -23.333 -47 -31s-37.333 -11.5 -58 -11.5c-19.333 0 -37.833 3.83301 -55.5 11.5s-33 18 -46 31s-23.333 28.333 -31 46s-11.5 36.834 -11.5 57.501c0 20 3.83301 38.833 11.5 56.5
s18 33.167 31 46.5s28.333 23.833 46 31.5s36.167 11.5 55.5 11.5c20.667 0 40 -3.83301 58 -11.5s33.667 -18.167 47 -31.5s23.833 -28.833 31.5 -46.5s11.5 -36.5 11.5 -56.5zM316 1552c0 -22 -4.16699 -42.667 -12.5 -62s-19.666 -36.333 -33.999 -51
s-31.166 -26.167 -50.499 -34.5s-39.666 -12.5 -60.999 -12.5c-22 0 -42.667 4.16699 -62 12.5s-36 19.833 -50 34.5s-25.167 31.667 -33.5 51s-12.5 40 -12.5 62c0 20.667 4.16699 40.334 12.5 59.001s19.5 35.167 33.5 49.5s30.667 25.833 50 34.5s40 13 62 13
c21.333 0 41.666 -4.33301 60.999 -13s36.166 -20.167 50.499 -34.5s25.666 -30.833 33.999 -49.5s12.5 -38.334 12.5 -59.001z" />
    <glyph glyph-name="copyright" unicode="&#xa9;" horiz-adv-x="1176" 
d="M1115 704c0 -75.333 -13 -146.665 -39 -213.998s-62.333 -126.333 -109 -177s-102.334 -90.834 -167.001 -120.501s-135.667 -44.5 -213 -44.5c-74.667 0 -144.167 14 -208.5 42s-120.166 66 -167.499 114s-84.5 104.5 -111.5 169.5s-40.5 134.5 -40.5 208.5
c0 48 5.83301 95.167 17.5 141.5s28.5 90 50.5 131s48.5 78.667 79.5 113s65.667 64 104 89s80 44.5 125 58.5s92.167 21 141.5 21c80.667 0 154.167 -12.5 220.5 -37.5s123 -60.667 170 -107s83.333 -102.333 109 -168s38.5 -138.834 38.5 -219.501zM999 702.001
c0 62.667 -9.99707 119.669 -29.9971 171.002s-48.333 95.166 -85 131.499s-80.834 64.333 -132.501 84s-109.167 29.5 -172.5 29.5c-58 0 -111.667 -11.833 -161 -35.5s-92 -55.5 -128 -95.5s-64.167 -86 -84.5 -138s-30.5 -106.333 -30.5 -163
c0 -58 10.5 -112.333 31.5 -163s50 -94.667 87 -132s80.667 -66.833 131 -88.5s104.5 -32.5 162.5 -32.5c60.667 0 116.167 11.5 166.5 34.5s93.666 54.167 129.999 93.5s64.666 85.166 84.999 137.499s30.5 107.833 30.5 166.5zM761.003 812.003
c-18 4 -36.6641 6 -55.9971 6c-23.333 0 -45.833 -3 -67.5 -9s-40.834 -15 -57.501 -27s-30 -27.5 -40 -46.5s-15 -41.5 -15 -67.5c0 -37.333 10.667 -65 32 -83s50 -27 86 -27c24 0 49.333 4.66699 76 14s50.667 20 72 32l-8 -234c-26 -13.333 -55.5 -24 -88.5 -32
s-64.167 -12 -93.5 -12c-47.333 0 -90.333 8.83301 -129 26.5s-71.834 41.667 -99.501 72s-49.167 65.833 -64.5 106.5s-23 83.667 -23 129c0 54.667 7.83301 105.667 23.5 153s38.5 88.5 68.5 123.5s67.167 62.333 111.5 82s95.166 29.5 152.499 29.5
c23.333 0 46.833 -1.83301 70.5 -5.5s46.167 -10.5 67.5 -20.5z" />
    <glyph glyph-name="ordfeminine" unicode="&#xaa;" horiz-adv-x="914" 
d="M918 552l-342 -38l-38 146h-160l-34 -146l-352 30l274 798l384 18zM512 832l-54 210l-50 -210h104z" />
    <glyph glyph-name="guillemotleft" unicode="&#xab;" horiz-adv-x="1359" 
d="M496 232l-458 308l-14 368l434 316l160 -302l-268 -184l306 -178zM1176 232l-458 308l-14 368l434 316l160 -302l-268 -184l306 -178z" />
    <glyph glyph-name="logicalnot" unicode="&#xac;" horiz-adv-x="1096" 
d="M629 298l-8 306l-552 -12l-12 378l948 16l14 -664z" />
    <glyph glyph-name="uni00AD" unicode="&#xad;" horiz-adv-x="783" 
d="M69 552l-4 300l646 30l4 -342z" />
    <glyph glyph-name="registered" unicode="&#xae;" horiz-adv-x="1167" 
d="M1106 738c0 -74.667 -12.8359 -145.334 -38.5029 -212.001s-61.5 -125 -107.5 -175s-101 -89.667 -165 -119s-134.333 -44 -211 -44c-74 0 -143 13.833 -207 41.5s-119.5 65.334 -166.5 113.001s-83.833 103.5 -110.5 167.5s-40 132.667 -40 206
c0 72 12.833 141.167 38.5 207.5s61.334 124.833 107.001 175.5s99.834 91.167 162.501 121.5s131.334 45.5 206.001 45.5c79.333 0 151.666 -12.333 216.999 -37s121.333 -60 168 -106s82.834 -101.5 108.501 -166.5s38.5 -137.833 38.5 -218.5zM989.997 736
c0 62.667 -9.83398 119.334 -29.501 170.001s-47.667 94 -84 130s-80.166 63.667 -131.499 83s-108.333 29 -171 29c-57.333 0 -110.5 -11.833 -159.5 -35.5s-91.333 -55.167 -127 -94.5s-63.5 -84.833 -83.5 -136.5s-30 -105.5 -30 -161.5c0 -65.333 13 -125.333 39 -180
s61.667 -100.667 107 -138c1.33301 66.667 2.83301 133.167 4.5 199.5s3.5 133.166 5.5 200.499c0 76 2 152 6 228c46 17.333 91.5 28.666 136.5 33.999s92.167 8 141.5 8c38 0 74.833 -5.16699 110.5 -15.5s67.167 -26 94.5 -47s49.333 -47.167 66 -78.5
s25 -67.666 25 -108.999c0 -52 -9.33301 -95 -28 -129s-50 -65 -94 -93l90 -162c35.333 39.333 62.833 84.5 82.5 135.5s29.5 105.167 29.5 162.5zM403.996 348c55.333 -26.667 115.333 -40 180 -40c39.333 0 76.333 4.83301 111 14.5s67 23.5 97 41.5l-110 -20l-76 214
l-62 -2l-10 -208h-130zM685.996 806c0 28 -7.50098 50.999 -22.501 68.999s-37.5 27 -67.5 27c-13.333 0 -26 -2 -38 -6l-8 -186h12c14.667 0 29.334 1.83301 44.001 5.5s28 9.33398 40 17.001s21.667 17.5 29 29.5s11 26.667 11 44z" />
    <glyph glyph-name="macron" unicode="&#xaf;" horiz-adv-x="654" 
d="M650 1492l-632 8l-18 238l654 12z" />
    <glyph glyph-name="degree" unicode="&#xb0;" horiz-adv-x="634" 
d="M620 1134c0 -41.333 -7.99805 -80 -23.998 -116s-37.5 -67.333 -64.5 -94s-58.833 -47.667 -95.5 -63s-75.334 -23 -116.001 -23c-42.667 0 -82.5 7.66699 -119.5 23s-69.333 36.333 -97 63s-49.5 58 -65.5 94s-24 74.667 -24 116c0 40.667 8 78.667 24 114
s37.5 66.166 64.5 92.499s58.667 47.166 95 62.499s75.166 23 116.499 23c42.667 0 82.5 -7.66699 119.5 -23s69.333 -36.166 97 -62.499s49.5 -57.166 65.5 -92.499s24 -73.333 24 -114zM414.002 1128c0 14.667 -2.16895 28.834 -6.50195 42.501s-10.166 25.667 -17.499 36
s-16.166 18.5 -26.499 24.5s-21.5 9 -33.5 9s-23.333 -3 -34 -9s-20 -14.167 -28 -24.5s-14.333 -22.333 -19 -36s-7 -27.834 -7 -42.501c0 -16 2.33301 -31 7 -45s11 -26 19 -36s17.333 -18 28 -24s22 -9 34 -9c24 0 44 11 60 33s24 49 24 81z" />
    <glyph glyph-name="plusminus" unicode="&#xb1;" horiz-adv-x="962" 
d="M317 226l-2 262l-250 4l-4 300l250 8v236l310 32l4 -254l262 8l4 -342l-262 4l4 -262zM65 -202l-4 300l826 30l4 -342z" />
    <glyph glyph-name="uni00B2" unicode="&#xb2;" horiz-adv-x="586" 
d="M550 1000c0 -21.333 -4.99902 -41.668 -14.999 -61.001s-23.167 -37.5 -39.5 -54.5s-35 -32.667 -56 -47s-42.167 -26.833 -63.5 -37.5h164l-12 -166l-486 12v146c28 6.66699 57.333 15.834 88 27.501s59 25.667 85 42s47.333 35 64 56s25 44.5 25 70.5
c0 21.333 -8.66699 37.333 -26 48s-38.666 16 -63.999 16c-21.333 0 -42.5 -3.66699 -63.5 -11s-39.167 -17 -54.5 -29l-44 158c12.667 10 27.167 18.333 43.5 25s33.666 12 51.999 16s37.166 6.83301 56.499 8.5s38 2.5 56 2.5c40.667 0 78.667 -5.66699 114 -17
s66 -27 92 -47s46.5 -43.5 61.5 -70.5s22.5 -56.167 22.5 -87.5z" />
    <glyph glyph-name="uni00B3" unicode="&#xb3;" horiz-adv-x="598" 
d="M570 818c0 -35.333 -7.33398 -66.1699 -22.001 -92.5029s-35.167 -48 -61.5 -65s-57.833 -29.667 -94.5 -38s-76.667 -12.5 -120 -12.5c-40 0 -81.167 5.33301 -123.5 16s-80.5 24 -114.5 40l20 162c12.667 -6.66699 27.167 -13 43.5 -19s33.333 -11.5 51 -16.5
s35.5 -9 53.5 -12s35.333 -4.5 52 -4.5c10 0 20.167 0.5 30.5 1.5s19.5 3 27.5 6s14.667 7.5 20 13.5s8 13.667 8 23c0 6 -3.5 11.5 -10.5 16.5s-15.333 9.16699 -25 12.5s-19.5 6 -29.5 8s-18.333 3 -25 3c-5.33301 0 -11.5 -0.166992 -18.5 -0.5s-14 -0.833008 -21 -1.5
s-13.667 -1.66699 -20 -3s-11.166 -3 -14.499 -5l2 114c6 -1.33301 11.833 -2 17.5 -2h16.5c12.667 0 26.167 0.833008 40.5 2.5s27.5 4.83398 39.5 9.50098s22 10.834 30 18.501s12 17.5 12 29.5c0 8.66699 -3.16699 15.834 -9.5 21.501s-14 10 -23 13s-19 5 -30 6
s-20.833 1.5 -29.5 1.5c-28 0 -55.333 -3.5 -82 -10.5s-50.667 -18.167 -72 -33.5l-44 146c31.333 20 67.5 35 108.5 45s82.167 15 123.5 15c37.333 0 73.333 -4.16699 108 -12.5s65.167 -20.5 91.5 -36.5s47.333 -36 63 -60s23.5 -51.667 23.5 -83
c0 -18 -6.33301 -36.333 -19 -55s-27.667 -33.667 -45 -45c28 -10 47 -26 57 -48s15 -44.667 15 -68z" />
    <glyph glyph-name="acute" unicode="&#xb4;" horiz-adv-x="586" 
d="M586 1642l-232.001 -131.5c-75.333 -44.333 -150.666 -92.5 -225.999 -144.5l-128 140c13.333 16 29.333 33.833 48 53.5l59.5 60.5l65.5 62.5l66 60.5l159 139z" />
    <glyph glyph-name="mu" unicode="&#xb5;" horiz-adv-x="1532" 
d="M44 -348l101.999 975.998c5.33301 59.333 12.666 121 21.999 185s20.5 128 33.5 192s28.167 127.167 45.5 189.5s37 122.166 59 179.499c80.667 -6 161.834 -11.5 243.501 -16.5s163.167 -8.16699 244.5 -9.5l-64 -172.5c-21.333 -57.667 -41.5 -115.5 -60.5 -173.5
s-35.833 -116.5 -50.5 -175.5s-25.667 -118.5 -33 -178.5c-1.33301 -12.667 -3 -31.667 -5 -57s-1.5 -51 1.5 -77s9.33301 -48.667 19 -68s25.167 -29.333 46.5 -30c25.333 -0.666992 49.333 9.5 72 30.5s43.667 49.333 63 85s37.333 77.167 54 124.5
s31.834 96.833 45.501 148.5s26 103.834 37 156.501s20.333 102.167 28 148.5s14.167 88.166 19.5 125.499s9 66.333 11 87c4 24 6 49.333 6 76c38.667 -1.33301 79.334 -2.83301 122.001 -4.5s85.667 -3.16699 129 -4.5s86.166 -2.16602 128.499 -2.49902
s83.166 0.166992 122.499 1.5c-58 -230 -111.333 -461 -160 -693l-142 -693l-456 -18l40 150c-15.333 -15.333 -32.833 -28.166 -52.5 -38.499s-40 -18.666 -61 -24.999s-42.167 -10.833 -63.5 -13.5s-41.666 -3.66699 -60.999 -3h-4l-46 -412z" />
    <glyph glyph-name="mu" unicode="&#x3bc;" horiz-adv-x="1532" 
d="M44 -348l101.999 975.998c5.33301 59.333 12.666 121 21.999 185s20.5 128 33.5 192s28.167 127.167 45.5 189.5s37 122.166 59 179.499c80.667 -6 161.834 -11.5 243.501 -16.5s163.167 -8.16699 244.5 -9.5l-64 -172.5c-21.333 -57.667 -41.5 -115.5 -60.5 -173.5
s-35.833 -116.5 -50.5 -175.5s-25.667 -118.5 -33 -178.5c-1.33301 -12.667 -3 -31.667 -5 -57s-1.5 -51 1.5 -77s9.33301 -48.667 19 -68s25.167 -29.333 46.5 -30c25.333 -0.666992 49.333 9.5 72 30.5s43.667 49.333 63 85s37.333 77.167 54 124.5
s31.834 96.833 45.501 148.5s26 103.834 37 156.501s20.333 102.167 28 148.5s14.167 88.166 19.5 125.499s9 66.333 11 87c4 24 6 49.333 6 76c38.667 -1.33301 79.334 -2.83301 122.001 -4.5s85.667 -3.16699 129 -4.5s86.166 -2.16602 128.499 -2.49902
s83.166 0.166992 122.499 1.5c-58 -230 -111.333 -461 -160 -693l-142 -693l-456 -18l40 150c-15.333 -15.333 -32.833 -28.166 -52.5 -38.499s-40 -18.666 -61 -24.999s-42.167 -10.833 -63.5 -13.5s-41.666 -3.66699 -60.999 -3h-4l-46 -412z" />
    <glyph glyph-name="paragraph" unicode="&#xb6;" horiz-adv-x="1715" 
d="M1588 20l-433.999 -2v910l-74 4c2 -156 2.83301 -310.333 2.5 -463s0.166992 -307 1.5 -463l-466 -8v404c-54 -4.66699 -105.5 -6.16699 -154.5 -4.5s-94.833 7.83398 -137.5 18.501s-81.5 26.667 -116.5 48s-64.833 48.833 -89.5 82.5s-43.834 74.5 -57.501 122.5
s-20.5 104.333 -20.5 169c0 88.667 14.833 168.334 44.5 239.001s71 130.667 124 180s115.5 87.166 187.5 113.499s150.667 39.5 236 39.5c160.667 0 303 -2.83301 427 -8.5s229.333 -11.834 316 -18.501c100 -8 187.667 -17 263 -27z" />
    <glyph glyph-name="periodcentered" unicode="&#xb7;" horiz-adv-x="462" 
d="M442 696c0 -29.333 -5.66699 -56.666 -17 -81.999s-26.5 -47.5 -45.5 -66.5s-41.167 -34 -66.5 -45s-52.333 -16.5 -81 -16.5c-29.333 0 -56.666 5.5 -81.999 16.5s-47.5 26 -66.5 45s-34 41.167 -45 66.5s-16.5 52.666 -16.5 81.999c0 28.667 5.5 56 16.5 82
s26 48.5 45 67.5s41.167 34.167 66.5 45.5s52.666 17 81.999 17c28.667 0 55.667 -5.66699 81 -17s47.5 -26.5 66.5 -45.5s34.167 -41.5 45.5 -67.5s17 -53.333 17 -82z" />
    <glyph glyph-name="cedilla" unicode="&#xb8;" horiz-adv-x="424" 
d="M424 -292c0 -38.667 -6.16699 -71.3369 -18.5 -98.0039s-29.5 -48.5 -51.5 -65.5s-48 -29.333 -78 -37s-62.667 -11.5 -98 -11.5c-12.667 0 -27 0.833008 -43 2.5s-32.167 4.33398 -48.5 8.00098s-32.166 8.33398 -47.499 14.001s-28.333 12.834 -39 21.501l88 158
c8 -4 17.333 -7.33301 28 -10s20.667 -4 30 -4c12 0 24 3.5 36 10.5s18 17.5 18 31.5c0 10 -3 18.167 -9 24.5s-13.5 11.5 -22.5 15.5s-18.5 6.66699 -28.5 8s-18.667 2 -26 2c-13.333 0 -26.666 -0.833008 -39.999 -2.5s-26.666 -4.16699 -39.999 -7.5l14 288l172 -2
l-2 -148c29.333 -1.33301 56.666 -6.66602 81.999 -15.999s47.166 -22.5 65.499 -39.5s32.666 -37.5 42.999 -61.5s15.5 -51 15.5 -81z" />
    <glyph glyph-name="uni00B9" unicode="&#xb9;" horiz-adv-x="448" 
d="M400 1184l-30 -568l-226 8l12 378l-84 -44l-78 136l170 98z" />
    <glyph glyph-name="ordmasculine" unicode="&#xba;" horiz-adv-x="902" 
d="M888 960c0 -54.667 -10.833 -106.333 -32.5 -155s-51.834 -91.334 -90.501 -128.001s-84.667 -65.667 -138 -87s-111.666 -32 -174.999 -32c-62.667 0 -120.834 10 -174.501 30s-100.167 47.5 -139.5 82.5s-70.166 76 -92.499 123s-33.5 97.167 -33.5 150.5
c0 52.667 10.833 103 32.5 151s51.5 90.5 89.5 127.5s83.333 66.5 136 88.5s110 33 172 33c67.333 0 128.5 -9 183.5 -27s102 -43.667 141 -77s69 -73.666 90 -120.999s31.5 -100.333 31.5 -159zM582 944.001c0 16.667 -2.83301 33.168 -8.5 49.501s-14 31 -25 44
s-24.667 23.333 -41 31s-34.833 11.5 -55.5 11.5c-21.333 0 -40.833 -3.5 -58.5 -10.5s-32.667 -16.5 -45 -28.5s-21.833 -25.833 -28.5 -41.5s-10 -32.167 -10 -49.5s2.83301 -34.333 8.5 -51s14 -31.834 25 -45.501s24.833 -24.667 41.5 -33s35.667 -12.5 57 -12.5
c22 0 41.667 3.83301 59 11.5s32 17.834 44 30.501s21.167 27.167 27.5 43.5s9.5 33.166 9.5 50.499z" />
    <glyph glyph-name="guillemotright" unicode="&#xbb;" horiz-adv-x="1365" 
d="M222 232l-164 308l274 182l-308 176l158 326l462 -306l12 -368zM906 232l-164 308l274 182l-308 176l158 326l462 -306l12 -368z" />
    <glyph glyph-name="onequarter" unicode="&#xbc;" horiz-adv-x="1235" 
d="M442 1184l-28 -568l-228 8l14 376l-84 -42l-78 136l170 98zM914 1244c-86.667 -186 -166.332 -375.167 -238.999 -567.5s-140.334 -386.5 -203.001 -582.5l-208 76l116.5 289.5l120 287.5l128 283.5c44.333 93.667 91.5 186.167 141.5 277.5zM1176 332l-46 -2l-8 -172
l-236 -16l12 186l-278 -6l78 350h196l-58 -244l70 2l18 304h226l-14 -298l40 2v-106z" />
    <glyph glyph-name="onehalf" unicode="&#xbd;" horiz-adv-x="1256" 
d="M442 1184l-28 -568l-228 8l12 376l-82 -42l-78 136l168 98zM912 1244c-85.333 -186 -164.5 -375.167 -237.5 -567.5s-141.167 -386.5 -204.5 -582.5l-208 76l117.5 289.5l120 287.5l127.5 283.5c44 93.667 91 186.167 141 277.5zM1198 486
c0 -21.333 -4.99902 -41.668 -14.999 -61.001s-23.167 -37.5 -39.5 -54.5s-35 -32.667 -56 -47s-42.167 -26.833 -63.5 -37.5h166l-14 -166l-486 12v146c28 6.66699 57.333 15.834 88 27.501s59 25.667 85 42s47.333 35 64 56s25 44.5 25 70.5c0 21.333 -8.66699 37 -26 47
s-38.666 15 -63.999 15c-20 0 -40.833 -3.33301 -62.5 -10s-40.167 -16 -55.5 -28l-44 158c12.667 10 27.167 18.333 43.5 25s33.666 12 51.999 16s37.166 6.83301 56.499 8.5s38 2.5 56 2.5c40.667 0 78.667 -5.66699 114 -17s66 -27 92 -47s46.5 -43.5 61.5 -70.5
s22.5 -56.167 22.5 -87.5z" />
    <glyph glyph-name="threequarters" unicode="&#xbe;" horiz-adv-x="1324" 
d="M1017 1244c-86.667 -186 -166.332 -375.167 -238.999 -567.5s-140.334 -386.5 -203.001 -582.5l-208 76l116.5 289.5l120 287.5l128 283.5c44.333 93.667 91.5 186.167 141.5 277.5zM1279 332l-46 -2l-8 -172l-236 -16l12 186l-278 -6l78 350h196l-58 -244l70 2l18 304
h226l-14 -298l40 2v-106zM579.002 818c0 -35.333 -7.33008 -66.1729 -21.9971 -92.5059s-35 -48 -61 -65s-57.333 -29.667 -94 -38s-77 -12.5 -121 -12.5c-40 0 -80.833 5.33301 -122.5 16s-79.5 24 -113.5 40l20 162c12.667 -7.33301 27.167 -14 43.5 -20
s33.333 -11.5 51 -16.5s35.5 -8.83301 53.5 -11.5s35.333 -4 52 -4c10 0 20.167 0.5 30.5 1.5s19.5 3 27.5 6s14.667 7.5 20 13.5s8 13.667 8 23c0 6 -3.5 11.5 -10.5 16.5s-15.333 9.16699 -25 12.5s-19.834 6 -30.501 8s-19.334 3 -26.001 3
c-4.66699 0 -10.334 -0.166992 -17.001 -0.5s-13.5 -1 -20.5 -2s-13.833 -2.16699 -20.5 -3.5s-12 -3.33301 -16 -6l4 116c6 -1.33301 11.667 -2 17 -2h17c12.667 0 26.167 0.833008 40.5 2.5s27.5 4.83398 39.5 9.50098s22 10.834 30 18.501s12 17.5 12 29.5
c0 8.66699 -3.16699 15.667 -9.5 21s-14 9.5 -23 12.5s-19 5.16699 -30 6.5s-20.833 2 -29.5 2c-28 0 -55.667 -3.83301 -83 -11.5s-51.666 -18.5 -72.999 -32.5l-42 146c31.333 20 67.333 35 108 45s82 15 124 15c37.333 0 73.333 -4.16699 108 -12.5
s65.167 -20.5 91.5 -36.5s47.333 -36.167 63 -60.5s23.5 -52.5 23.5 -84.5c0 -17.333 -6.5 -35.166 -19.5 -53.499s-28.5 -33.166 -46.5 -44.499c14.667 -5.33301 26.667 -12.166 36 -20.499s16.666 -17.666 21.999 -27.999s9 -21.333 11 -33s3 -23.167 3 -34.5z" />
    <glyph glyph-name="questiondown" unicode="&#xbf;" horiz-adv-x="1152" 
d="M506 654l337.998 -0.00390625c4 -71.333 -0.166992 -130.666 -12.5 -177.999s-29.333 -86.833 -51 -118.5s-46 -57.334 -73 -77.001s-53.333 -36.667 -79 -51s-48.5 -28.333 -68.5 -42s-33.333 -30.167 -40 -49.5c-4.66699 -12 -6 -25.833 -4 -41.5
s8.83301 -30.5 20.5 -44.5s28.834 -25.833 51.501 -35.5s52.667 -14.5 90 -14.5c24 0 52.5 2.16699 85.5 6.5s67.5 11 103.5 20s71.5 19.833 106.5 32.5s66.5 27.667 94.5 45l44 -392c-24.667 -15.333 -52.5 -30.666 -83.5 -45.999s-65.167 -29.166 -102.5 -41.499
s-78 -22.5 -122 -30.5s-91.333 -12 -142 -12c-82 0 -159.5 11.333 -232.5 34s-136.833 56 -191.5 100s-98 98.167 -130 162.5s-48 138.166 -48 221.499c0 63.333 9 114.166 27 152.499s41 69.833 69 94.5s59.333 45.334 94 62.001s68.5 34.834 101.5 54.501
s63.333 43.834 91 72.501s48.834 67.334 63.501 116.001zM455.998 917.996c0 28.667 5.66699 55.834 17 81.501s26.5 48 45.5 67s41.167 34 66.5 45s52.333 16.5 81 16.5s55.834 -5.5 81.501 -16.5s48 -26 67 -45s34 -41.333 45 -67s16.5 -52.834 16.5 -81.501
c0 -29.333 -5.5 -56.833 -16.5 -82.5s-26 -48 -45 -67s-41.333 -34.167 -67 -45.5s-52.834 -17 -81.501 -17s-55.667 5.66699 -81 17s-47.5 26.5 -66.5 45.5s-34.167 41.333 -45.5 67s-17 53.167 -17 82.5z" />
    <glyph glyph-name="Agrave" unicode="&#xc0;" 
d="M1312 86l-496 -64l-60 226h-228l-50 -226l-510 50l398 1332l556 28zM720 554l-76 348l-74 -348h150zM578 1450c-73.333 55.333 -146.668 106.667 -220.001 154l-226 140l198 234l153 -146l63.5 -64l63 -65.5l57 -63c17.667 -20.333 32.834 -38.833 45.501 -55.5z" />
    <glyph glyph-name="Aacute" unicode="&#xc1;" 
d="M1312 86l-496 -64l-60 226h-228l-50 -226l-510 50l398 1332l556 28zM720 554l-76 348l-74 -348h150zM1178 1744l-232.001 -131.5c-75.333 -44.333 -150.666 -92.5 -225.999 -144.5l-128 140c13.333 16 29.333 33.833 48 53.5l59.5 60.5l65.5 62.5l66 60.5l159 139z" />
    <glyph glyph-name="Acircumflex" unicode="&#xc2;" 
d="M1312 86l-496 -64l-60 226h-228l-50 -226l-510 50l398 1332l556 28zM720 554l-76 348l-74 -348h150zM782 1460l-156.001 203.999l-122 -194l-220 94c12.667 20.667 28.334 44.834 47.001 72.501l59 86l63 89l61 82.5l206 2l274 -306z" />
    <glyph glyph-name="Atilde" unicode="&#xc3;" 
d="M1312 86l-496 -64l-60 226h-228l-50 -226l-510 50l398 1332l556 28zM720 554l-76 348l-74 -348h150zM1040 1752c0 -38.667 -7.00195 -74.666 -21.002 -107.999s-33.167 -62.333 -57.5 -87s-53 -44 -86 -58s-68.167 -21 -105.5 -21c-29.333 0 -54.333 5.33301 -75 16
s-38.167 24 -52.5 40s-26.666 33.333 -36.999 52l-28.5 52c-8.66699 16 -17.5 29.333 -26.5 40s-19.167 16 -30.5 16c-7.33301 0 -13.666 -2.16699 -18.999 -6.5s-9.5 -9.5 -12.5 -15.5s-5.16699 -12.667 -6.5 -20s-2 -14 -2 -20c0 -20 2.5 -39.5 7.5 -58.5
s11.167 -37.5 18.5 -55.5l-244 -20c-8 28 -13.667 56.167 -17 84.5s-5 56.166 -5 83.499c0 40.667 5.33301 78.667 16 114s26.5 66 47.5 92s47 46.5 78 61.5s67.167 22.5 108.5 22.5c36.667 0 67 -5.66699 91 -17s44 -25.333 60 -42s28.5 -35 37.5 -55l24.5 -55
c7.33301 -16.667 14.333 -30.667 21 -42s15.334 -17 26.001 -17c13.333 0 23.666 6 30.999 18s11 24 11 36c0 20 -4 39.5 -12 58.5s-16.667 36.167 -26 51.5l248 40c11.333 -29.333 20.5 -58.833 27.5 -88.5s10.5 -60.167 10.5 -91.5z" />
    <glyph glyph-name="Adieresis" unicode="&#xc4;" 
d="M1312 86l-496 -64l-60 226h-228l-50 -226l-510 50l398 1332l556 28zM720 554l-76 348l-74 -348h150zM992 1636c0 -20.667 -3.83301 -39.834 -11.5 -57.501s-18.167 -33 -31.5 -46s-29 -23.333 -47 -31s-37.333 -11.5 -58 -11.5c-19.333 0 -37.833 3.83301 -55.5 11.5
s-33 18 -46 31s-23.333 28.333 -31 46s-11.5 36.834 -11.5 57.501c0 20 3.83301 38.833 11.5 56.5s18 33.167 31 46.5s28.333 23.833 46 31.5s36.167 11.5 55.5 11.5c20.667 0 40 -3.83301 58 -11.5s33.667 -18.167 47 -31.5s23.833 -28.833 31.5 -46.5
s11.5 -36.5 11.5 -56.5zM602 1614c0 -22 -4.16699 -42.667 -12.5 -62s-19.666 -36.333 -33.999 -51s-31.166 -26.167 -50.499 -34.5s-39.666 -12.5 -60.999 -12.5c-22 0 -42.667 4.16699 -62 12.5s-36 19.833 -50 34.5s-25.167 31.667 -33.5 51s-12.5 40 -12.5 62
c0 20.667 4.16699 40.334 12.5 59.001s19.5 35.167 33.5 49.5s30.667 25.833 50 34.5s40 13 62 13c21.333 0 41.666 -4.33301 60.999 -13s36.166 -20.167 50.499 -34.5s25.666 -30.833 33.999 -49.5s12.5 -38.334 12.5 -59.001z" />
    <glyph glyph-name="Aring" unicode="&#xc5;" horiz-adv-x="1270" 
d="M935 1592c0 -30 -4.16797 -58.667 -12.501 -86s-20.166 -52.666 -35.499 -75.999l28 2l390 -1346l-496 -64l-60 226h-228l-50 -226l-510 50l398 1332l36 2c-21.333 25.333 -37.666 53.666 -48.999 84.999s-17 65 -17 101c0 40.667 8 78.667 24 114
s37.5 66.166 64.5 92.499s58.667 47.166 95 62.499s75.166 23 116.499 23c42.667 0 82.5 -7.66699 119.5 -23s69.333 -36.166 97 -62.499s49.5 -57.166 65.5 -92.499s24 -73.333 24 -114zM728.999 1586c0 14.667 -2.16895 28.834 -6.50195 42.501s-10.166 25.667 -17.499 36
s-16.166 18.5 -26.499 24.5s-21.5 9 -33.5 9s-23.333 -3 -34 -9s-20 -14.167 -28 -24.5s-14.333 -22.333 -19 -36s-7 -27.834 -7 -42.501c0 -16 2.33301 -31 7 -45s11 -26 19 -36s17.333 -18 28 -24s22 -9 34 -9c24 0 44 11 60 33s24 49 24 81zM712.997 554l-76 348
l-74 -348h150z" />
    <glyph glyph-name="AE" unicode="&#xc6;" horiz-adv-x="1719" 
d="M820 554l10 348l-160 -348h150zM1736 1442c-4 -62.667 -7.66895 -124.667 -11.002 -186s-7.66602 -123.333 -12.999 -186l-424 -22l-10 -126h298l-22 -310l-300 -10l-10 -146h424l-12.5 -218.5c-4.33301 -72.333 -8.16602 -144.833 -11.499 -217.5l-862 -20l8 248h-244
l-100 -226l-496 50l728 1332z" />
    <glyph glyph-name="Ccedilla" unicode="&#xc7;" horiz-adv-x="1056" 
d="M830 -234c0 -38.667 -6.16992 -71.3389 -18.5029 -98.0059s-29.5 -48.5 -51.5 -65.5s-48 -29.333 -78 -37s-62.667 -11.5 -98 -11.5c-12.667 0 -27 0.833008 -43 2.5s-32.167 4.33398 -48.5 8.00098s-32.166 8.33398 -47.499 14.001s-28.333 12.834 -39 21.501l88 158
c8 -4 17.333 -7.33301 28 -10s20.667 -4 30 -4c12 0 24 3.5 36 10.5s18 17.5 18 31.5c0 10 -3 18.167 -9 24.5s-13.5 11.5 -22.5 15.5s-18.5 6.66699 -28.5 8s-18.667 2 -26 2c-13.333 0 -26.666 -0.833008 -39.999 -2.5s-26.666 -4.16699 -39.999 -7.5l10 210
c-64 17.333 -122.667 44.333 -176 81s-99.333 80.667 -138 132s-68.667 108.833 -90 172.5s-32 131.167 -32 202.5c0 114 16.333 221.5 49 322.5s80.667 189.5 144 265.5s141.833 136 235.5 180s201.5 66 323.5 66c46 0 93.167 -3.66699 141.5 -11s93.166 -21 134.499 -41
l-56 -422c-19.333 5.33301 -38.666 9 -57.999 11s-38.666 3 -57.999 3c-49.333 0 -96.333 -6.5 -141 -19.5s-84.167 -32.833 -118.5 -59.5s-61.666 -60 -81.999 -100s-30.5 -87 -30.5 -141c0 -34.667 5.5 -64.667 16.5 -90s26.5 -46.333 46.5 -63s43.667 -29 71 -37
s57.333 -12 90 -12c24.667 0 50.334 2.66699 77.001 8s53 12.333 79 21s51.333 18.667 76 30s47.334 23 68.001 35l-40 -470c-25.333 -13.333 -52.833 -25.166 -82.5 -35.499s-60 -19.166 -91 -26.499s-62.333 -13 -94 -17s-61.834 -6.33301 -90.501 -7v-50
c29.333 -1.33301 56.666 -6.66602 81.999 -15.999s47.166 -22.5 65.499 -39.5s32.666 -37.5 42.999 -61.5s15.5 -51 15.5 -81z" />
    <glyph glyph-name="Egrave" unicode="&#xc8;" horiz-adv-x="981" 
d="M998 1442c-4 -62.667 -7.66895 -124.667 -11.002 -186s-7.66602 -123.333 -12.999 -186l-424 -22l-10 -126h298l-22 -310l-300 -10l-10 -146h248h176l-12.5 -218.5c-4.33301 -72.333 -8.16602 -144.833 -11.499 -217.5l-862 -20l32 1442h922zM553.998 1478
c-73.333 55.333 -146.668 106.667 -220.001 154l-226 140l198 234l153 -146l63.5 -64l63 -65.5l57 -63c17.667 -20.333 32.834 -38.833 45.501 -55.5z" />
    <glyph glyph-name="Eacute" unicode="&#xc9;" horiz-adv-x="981" 
d="M998 1442c-4 -62.667 -7.66895 -124.667 -11.002 -186s-7.66602 -123.333 -12.999 -186l-424 -22l-10 -126h298l-22 -310l-300 -10l-10 -146h248h176l-12.5 -218.5c-4.33301 -72.333 -8.16602 -144.833 -11.499 -217.5l-862 -20l32 1442h922zM1014 1746l-232.001 -131.5
c-75.333 -44.333 -150.666 -92.5 -225.999 -144.5l-128 140c13.333 16 29.333 33.833 48 53.5l59.5 60.5l65.5 62.5l66 60.5l159 139z" />
    <glyph glyph-name="Ecircumflex" unicode="&#xca;" horiz-adv-x="981" 
d="M998 1442c-4 -62.667 -7.66895 -124.667 -11.002 -186s-7.66602 -123.333 -12.999 -186l-424 -22l-10 -126h298l-22 -310l-300 -10l-10 -146h248h176l-12.5 -218.5c-4.33301 -72.333 -8.16602 -144.833 -11.499 -217.5l-862 -20l32 1442h922zM663.998 1478
l-156.001 203.999l-122 -194l-220 94c12.667 20.667 28.334 44.834 47.001 72.501l59 86l63 89l61 82.5l206 2l274 -306z" />
    <glyph glyph-name="Edieresis" unicode="&#xcb;" horiz-adv-x="981" 
d="M998 1442c-4 -62.667 -7.66895 -124.667 -11.002 -186s-7.66602 -123.333 -12.999 -186l-424 -22l-10 -126h298l-22 -310l-300 -10l-10 -146h248h176l-12.5 -218.5c-4.33301 -72.333 -8.16602 -144.833 -11.499 -217.5l-862 -20l32 1442h922zM873.998 1666
c0 -20.667 -3.83301 -39.834 -11.5 -57.501s-18.167 -33 -31.5 -46s-29 -23.333 -47 -31s-37.333 -11.5 -58 -11.5c-19.333 0 -37.833 3.83301 -55.5 11.5s-33 18 -46 31s-23.333 28.333 -31 46s-11.5 36.834 -11.5 57.501c0 20 3.83301 38.833 11.5 56.5s18 33.167 31 46.5
s28.333 23.833 46 31.5s36.167 11.5 55.5 11.5c20.667 0 40 -3.83301 58 -11.5s33.667 -18.167 47 -31.5s23.833 -28.833 31.5 -46.5s11.5 -36.5 11.5 -56.5zM483.998 1644c0 -22 -4.16699 -42.667 -12.5 -62s-19.666 -36.333 -33.999 -51s-31.166 -26.167 -50.499 -34.5
s-39.666 -12.5 -60.999 -12.5c-22 0 -42.667 4.16699 -62 12.5s-36 19.833 -50 34.5s-25.167 31.667 -33.5 51s-12.5 40 -12.5 62c0 20.667 4.16699 40.334 12.5 59.001s19.5 35.167 33.5 49.5s30.667 25.833 50 34.5s40 13 62 13c21.333 0 41.666 -4.33301 60.999 -13
s36.166 -20.167 50.499 -34.5s25.666 -30.833 33.999 -49.5s12.5 -38.334 12.5 -59.001z" />
    <glyph glyph-name="Igrave" unicode="&#xcc;" horiz-adv-x="609" 
d="M591 1408l-110 -1362l-422 -22v1356zM268 1450c-73.333 55.333 -146.668 106.667 -220.001 154l-226 140l198 234l153 -146l63.5 -64l63 -65.5l57 -63c17.667 -20.333 32.834 -38.833 45.501 -55.5z" />
    <glyph glyph-name="Iacute" unicode="&#xcd;" horiz-adv-x="609" 
d="M591 1408l-110 -1362l-422 -22v1356zM843 1736l-232.001 -131.5c-75.333 -44.333 -150.666 -92.5 -225.999 -144.5l-128 140c13.333 16 29.333 33.833 48 53.5l59.5 60.5l65.5 62.5l66 60.5l159 139z" />
    <glyph glyph-name="Icircumflex" unicode="&#xce;" horiz-adv-x="609" 
d="M591 1408l-110 -1362l-422 -22v1356zM470 1450l-156.001 203.999l-122 -194l-220 94c12.667 20.667 28.334 44.834 47.001 72.501l59 86l63 89l61 82.5l206 2l274 -306z" />
    <glyph glyph-name="Idieresis" unicode="&#xcf;" horiz-adv-x="609" 
d="M591 1408l-110 -1362l-422 -22v1356zM680 1616c0 -20.667 -3.83301 -39.834 -11.5 -57.501s-18.167 -33 -31.5 -46s-29 -23.333 -47 -31s-37.333 -11.5 -58 -11.5c-19.333 0 -37.833 3.83301 -55.5 11.5s-33 18 -46 31s-23.333 28.333 -31 46s-11.5 36.834 -11.5 57.501
c0 20 3.83301 38.833 11.5 56.5s18 33.167 31 46.5s28.333 23.833 46 31.5s36.167 11.5 55.5 11.5c20.667 0 40 -3.83301 58 -11.5s33.667 -18.167 47 -31.5s23.833 -28.833 31.5 -46.5s11.5 -36.5 11.5 -56.5zM290 1594c0 -22 -4.16699 -42.667 -12.5 -62
s-19.666 -36.333 -33.999 -51s-31.166 -26.167 -50.499 -34.5s-39.666 -12.5 -60.999 -12.5c-22 0 -42.667 4.16699 -62 12.5s-36 19.833 -50 34.5s-25.167 31.667 -33.5 51s-12.5 40 -12.5 62c0 20.667 4.16699 40.334 12.5 59.001s19.5 35.167 33.5 49.5
s30.667 25.833 50 34.5s40 13 62 13c21.333 0 41.666 -4.33301 60.999 -13s36.166 -20.167 50.499 -34.5s25.666 -30.833 33.999 -49.5s12.5 -38.334 12.5 -59.001z" />
    <glyph glyph-name="Eth" unicode="&#xd0;" horiz-adv-x="1262" 
d="M127 776l13.999 584c73.333 23.333 148.833 39.833 226.5 49.5s154.834 14.5 231.501 14.5c95.333 0 183 -14.333 263 -43s149 -70 207 -124s103.167 -120 135.5 -198s48.5 -166.333 48.5 -265c0 -93.333 -12 -177.5 -36 -252.5s-57.5 -141.667 -100.5 -200
s-94.167 -108.5 -153.5 -150.5s-124.333 -76.5 -195 -103.5s-146 -47 -226 -60s-161.667 -19.5 -245 -19.5c-31.333 0 -62 0.833008 -92 2.5s-60.667 4.16699 -92 7.5l12 586l-150 -6l-4 182zM842.999 730c0.666992 36 -3.16797 70.666 -11.501 103.999s-22 62.833 -41 88.5
s-43.167 46.334 -72.5 62.001s-64.333 24.167 -105 25.5l-16 -240l100 -2l4 -140l-110 -6l-18 -232c40 6 76.333 19.167 109 39.5s60.834 45.333 84.501 75s42 62.667 55 99s20.167 73.833 21.5 112.5v14z" />
    <glyph glyph-name="Ntilde" unicode="&#xd1;" horiz-adv-x="1441" 
d="M1411 1434l-72 -1356l-524 -48l-280 726l-44 -740h-450l36 1418l500 24l346 -720l16 680zM1125 1752c0 -38.667 -7.00195 -74.666 -21.002 -107.999s-33.167 -62.333 -57.5 -87s-53 -44 -86 -58s-68.167 -21 -105.5 -21c-29.333 0 -54.333 5.33301 -75 16
s-38.167 24 -52.5 40s-26.666 33.333 -36.999 52l-28.5 52c-8.66699 16 -17.5 29.333 -26.5 40s-19.167 16 -30.5 16c-7.33301 0 -13.666 -2.16699 -18.999 -6.5s-9.5 -9.5 -12.5 -15.5s-5.16699 -12.667 -6.5 -20s-2 -14 -2 -20c0 -20 2.5 -39.5 7.5 -58.5
s11.167 -37.5 18.5 -55.5l-244 -20c-8 28 -13.667 56.167 -17 84.5s-5 56.166 -5 83.499c0 40.667 5.33301 78.667 16 114s26.5 66 47.5 92s47 46.5 78 61.5s67.167 22.5 108.5 22.5c36.667 0 67 -5.66699 91 -17s44 -25.333 60 -42s28.5 -35 37.5 -55l24.5 -55
c7.33301 -16.667 14.333 -30.667 21 -42s15.334 -17 26.001 -17c13.333 0 23.666 6 30.999 18s11 24 11 36c0 20 -4 39.5 -12 58.5s-16.667 36.167 -26 51.5l248 40c11.333 -29.333 20.5 -58.833 27.5 -88.5s10.5 -60.167 10.5 -91.5z" />
    <glyph glyph-name="Ograve" unicode="&#xd2;" horiz-adv-x="1306" 
d="M1287 706c0 -60.667 -7.00098 -119.169 -21.001 -175.502s-34.167 -109.166 -60.5 -158.499s-58.333 -94.5 -96 -135.5s-80 -76.167 -127 -105.5s-98.167 -52.166 -153.5 -68.499s-114 -24.5 -176 -24.5c-60 0 -117.167 7.66699 -171.5 23s-105.166 36.833 -152.499 64.5
s-90.166 61 -128.499 100s-71 82.333 -98 130s-48 98.834 -63 153.501s-22.5 111.667 -22.5 171c0 58 7 114.833 21 170.5s34.167 108.167 60.5 157.5s58.166 94.666 95.499 135.999s79.166 77 125.499 107s96.5 53.333 150.5 70s111 25 171 25
c96.667 0 184.834 -15 264.501 -45s147.667 -72.833 204 -128.5s100 -123 131 -202s46.5 -167.167 46.5 -264.5zM842.999 679.998c0 28.667 -4.16406 56.5 -12.4971 83.5s-20.5 51 -36.5 72s-35.833 38 -59.5 51s-50.834 19.5 -81.501 19.5
c-31.333 0 -59.333 -5.66699 -84 -17s-45.834 -26.833 -63.501 -46.5s-31.167 -42.667 -40.5 -69s-14 -54.166 -14 -83.499c0 -28 4 -56 12 -84s20 -53.333 36 -76s35.833 -41 59.5 -55s51.167 -21 82.5 -21s59.5 6.16699 84.5 18.5s46.167 29 63.5 50
s30.666 45.167 39.999 72.5s14 55.666 14 84.999zM551.002 1404c-73.333 55.333 -146.668 106.667 -220.001 154l-226 140l198 234l153 -146l63.5 -64l63 -65.5l57 -63c17.667 -20.333 32.834 -38.833 45.501 -55.5z" />
    <glyph glyph-name="Oacute" unicode="&#xd3;" horiz-adv-x="1306" 
d="M1287 706c0 -60.667 -7.00098 -119.169 -21.001 -175.502s-34.167 -109.166 -60.5 -158.499s-58.333 -94.5 -96 -135.5s-80 -76.167 -127 -105.5s-98.167 -52.166 -153.5 -68.499s-114 -24.5 -176 -24.5c-60 0 -117.167 7.66699 -171.5 23s-105.166 36.833 -152.499 64.5
s-90.166 61 -128.499 100s-71 82.333 -98 130s-48 98.834 -63 153.501s-22.5 111.667 -22.5 171c0 58 7 114.833 21 170.5s34.167 108.167 60.5 157.5s58.166 94.666 95.499 135.999s79.166 77 125.499 107s96.5 53.333 150.5 70s111 25 171 25
c96.667 0 184.834 -15 264.501 -45s147.667 -72.833 204 -128.5s100 -123 131 -202s46.5 -167.167 46.5 -264.5zM842.999 679.998c0 28.667 -4.16406 56.5 -12.4971 83.5s-20.5 51 -36.5 72s-35.833 38 -59.5 51s-50.834 19.5 -81.501 19.5
c-31.333 0 -59.333 -5.66699 -84 -17s-45.834 -26.833 -63.501 -46.5s-31.167 -42.667 -40.5 -69s-14 -54.166 -14 -83.499c0 -28 4 -56 12 -84s20 -53.333 36 -76s35.833 -41 59.5 -55s51.167 -21 82.5 -21s59.5 6.16699 84.5 18.5s46.167 29 63.5 50
s30.666 45.167 39.999 72.5s14 55.666 14 84.999zM1173 1660l-232.001 -131.5c-75.333 -44.333 -150.666 -92.5 -225.999 -144.5l-128 140c13.333 16 29.333 33.833 48 53.5l59.5 60.5l65.5 62.5l66 60.5l159 139z" />
    <glyph glyph-name="Ocircumflex" unicode="&#xd4;" horiz-adv-x="1306" 
d="M1287 706c0 -60.667 -7.00098 -119.169 -21.001 -175.502s-34.167 -109.166 -60.5 -158.499s-58.333 -94.5 -96 -135.5s-80 -76.167 -127 -105.5s-98.167 -52.166 -153.5 -68.499s-114 -24.5 -176 -24.5c-60 0 -117.167 7.66699 -171.5 23s-105.166 36.833 -152.499 64.5
s-90.166 61 -128.499 100s-71 82.333 -98 130s-48 98.834 -63 153.501s-22.5 111.667 -22.5 171c0 58 7 114.833 21 170.5s34.167 108.167 60.5 157.5s58.166 94.666 95.499 135.999s79.166 77 125.499 107s96.5 53.333 150.5 70s111 25 171 25
c96.667 0 184.834 -15 264.501 -45s147.667 -72.833 204 -128.5s100 -123 131 -202s46.5 -167.167 46.5 -264.5zM842.999 679.998c0 28.667 -4.16406 56.5 -12.4971 83.5s-20.5 51 -36.5 72s-35.833 38 -59.5 51s-50.834 19.5 -81.501 19.5
c-31.333 0 -59.333 -5.66699 -84 -17s-45.834 -26.833 -63.501 -46.5s-31.167 -42.667 -40.5 -69s-14 -54.166 -14 -83.499c0 -28 4 -56 12 -84s20 -53.333 36 -76s35.833 -41 59.5 -55s51.167 -21 82.5 -21s59.5 6.16699 84.5 18.5s46.167 29 63.5 50
s30.666 45.167 39.999 72.5s14 55.666 14 84.999zM795.002 1384l-156.001 203.999l-122 -194l-220 94c12.667 20.667 28.334 44.834 47.001 72.501l59 86l63 89l61 82.5l206 2l274 -306z" />
    <glyph glyph-name="Otilde" unicode="&#xd5;" horiz-adv-x="1306" 
d="M1287 706c0 -60.667 -7.00098 -119.169 -21.001 -175.502s-34.167 -109.166 -60.5 -158.499s-58.333 -94.5 -96 -135.5s-80 -76.167 -127 -105.5s-98.167 -52.166 -153.5 -68.499s-114 -24.5 -176 -24.5c-60 0 -117.167 7.66699 -171.5 23s-105.166 36.833 -152.499 64.5
s-90.166 61 -128.499 100s-71 82.333 -98 130s-48 98.834 -63 153.501s-22.5 111.667 -22.5 171c0 58 7 114.833 21 170.5s34.167 108.167 60.5 157.5s58.166 94.666 95.499 135.999s79.166 77 125.499 107s96.5 53.333 150.5 70s111 25 171 25
c96.667 0 184.834 -15 264.501 -45s147.667 -72.833 204 -128.5s100 -123 131 -202s46.5 -167.167 46.5 -264.5zM842.999 679.998c0 28.667 -4.16406 56.5 -12.4971 83.5s-20.5 51 -36.5 72s-35.833 38 -59.5 51s-50.834 19.5 -81.501 19.5
c-31.333 0 -59.333 -5.66699 -84 -17s-45.834 -26.833 -63.501 -46.5s-31.167 -42.667 -40.5 -69s-14 -54.166 -14 -83.499c0 -28 4 -56 12 -84s20 -53.333 36 -76s35.833 -41 59.5 -55s51.167 -21 82.5 -21s59.5 6.16699 84.5 18.5s46.167 29 63.5 50
s30.666 45.167 39.999 72.5s14 55.666 14 84.999zM1051 1668c0 -38.667 -7.00195 -74.666 -21.002 -107.999s-33.167 -62.333 -57.5 -87s-53 -44 -86 -58s-68.167 -21 -105.5 -21c-29.333 0 -54.333 5.33301 -75 16s-38.167 24 -52.5 40s-26.666 33.333 -36.999 52l-28.5 52
c-8.66699 16 -17.5 29.333 -26.5 40s-19.167 16 -30.5 16c-7.33301 0 -13.666 -2.16699 -18.999 -6.5s-9.5 -9.5 -12.5 -15.5s-5.16699 -12.667 -6.5 -20s-2 -14 -2 -20c0 -20 2.5 -39.5 7.5 -58.5s11.167 -37.5 18.5 -55.5l-244 -20c-8 28 -13.667 56.167 -17 84.5
s-5 56.166 -5 83.499c0 40.667 5.33301 78.667 16 114s26.5 66 47.5 92s47 46.5 78 61.5s67.167 22.5 108.5 22.5c36.667 0 67 -5.66699 91 -17s44 -25.333 60 -42s28.5 -35 37.5 -55l24.5 -55c7.33301 -16.667 14.333 -30.667 21 -42s15.334 -17 26.001 -17
c13.333 0 23.666 6 30.999 18s11 24 11 36c0 20 -4 39.5 -12 58.5s-16.667 36.167 -26 51.5l248 40c11.333 -29.333 20.5 -58.833 27.5 -88.5s10.5 -60.167 10.5 -91.5z" />
    <glyph glyph-name="Odieresis" unicode="&#xd6;" horiz-adv-x="1306" 
d="M1287 706c0 -60.667 -7.00098 -119.169 -21.001 -175.502s-34.167 -109.166 -60.5 -158.499s-58.333 -94.5 -96 -135.5s-80 -76.167 -127 -105.5s-98.167 -52.166 -153.5 -68.499s-114 -24.5 -176 -24.5c-60 0 -117.167 7.66699 -171.5 23s-105.166 36.833 -152.499 64.5
s-90.166 61 -128.499 100s-71 82.333 -98 130s-48 98.834 -63 153.501s-22.5 111.667 -22.5 171c0 58 7 114.833 21 170.5s34.167 108.167 60.5 157.5s58.166 94.666 95.499 135.999s79.166 77 125.499 107s96.5 53.333 150.5 70s111 25 171 25
c96.667 0 184.834 -15 264.501 -45s147.667 -72.833 204 -128.5s100 -123 131 -202s46.5 -167.167 46.5 -264.5zM842.999 679.998c0 28.667 -4.16406 56.5 -12.4971 83.5s-20.5 51 -36.5 72s-35.833 38 -59.5 51s-50.834 19.5 -81.501 19.5
c-31.333 0 -59.333 -5.66699 -84 -17s-45.834 -26.833 -63.501 -46.5s-31.167 -42.667 -40.5 -69s-14 -54.166 -14 -83.499c0 -28 4 -56 12 -84s20 -53.333 36 -76s35.833 -41 59.5 -55s51.167 -21 82.5 -21s59.5 6.16699 84.5 18.5s46.167 29 63.5 50
s30.666 45.167 39.999 72.5s14 55.666 14 84.999zM1005 1563c0 -20.667 -3.83301 -39.834 -11.5 -57.501s-18.167 -33 -31.5 -46s-29 -23.333 -47 -31s-37.333 -11.5 -58 -11.5c-19.333 0 -37.833 3.83301 -55.5 11.5s-33 18 -46 31s-23.333 28.333 -31 46
s-11.5 36.834 -11.5 57.501c0 20 3.83301 38.833 11.5 56.5s18 33.167 31 46.5s28.333 23.833 46 31.5s36.167 11.5 55.5 11.5c20.667 0 40 -3.83301 58 -11.5s33.667 -18.167 47 -31.5s23.833 -28.833 31.5 -46.5s11.5 -36.5 11.5 -56.5zM615.002 1541
c0 -22 -4.16699 -42.667 -12.5 -62s-19.666 -36.333 -33.999 -51s-31.166 -26.167 -50.499 -34.5s-39.666 -12.5 -60.999 -12.5c-22 0 -42.667 4.16699 -62 12.5s-36 19.833 -50 34.5s-25.167 31.667 -33.5 51s-12.5 40 -12.5 62c0 20.667 4.16699 40.334 12.5 59.001
s19.5 35.167 33.5 49.5s30.667 25.833 50 34.5s40 13 62 13c21.333 0 41.666 -4.33301 60.999 -13s36.166 -20.167 50.499 -34.5s25.666 -30.833 33.999 -49.5s12.5 -38.334 12.5 -59.001z" />
    <glyph glyph-name="multiply" unicode="&#xd7;" horiz-adv-x="913" 
d="M44 462l184 186l-174 180l210 216l182 -172l168 166l242 -196l-178 -182l192 -180l-240 -244l-182 188l-182 -188z" />
    <glyph glyph-name="Oslash" unicode="&#xd8;" horiz-adv-x="1303" 
d="M1148 1320l-59.9971 -130.003c63.333 -56.667 112.166 -125.667 146.499 -207s51.5 -173.666 51.5 -276.999c0 -60.667 -7 -119.167 -21 -175.5s-34.167 -109.166 -60.5 -158.499s-58.333 -94.5 -96 -135.5s-80 -76.167 -127 -105.5s-98.167 -52.166 -153.5 -68.499
s-114 -24.5 -176 -24.5l-56 -156l-400 156l56 140c-36.667 28.667 -69.5 61.5 -98.5 98.5s-53.667 76.833 -74 119.5s-36 87.834 -47 135.501s-16.5 97.167 -16.5 148.5c0 58 7 114.833 21 170.5s34.167 108.167 60.5 157.5s58.166 94.666 95.499 135.999
s79.166 77 125.499 107s96.5 53.333 150.5 70s111 25 171 25c22 0 43.5 -0.833008 64.5 -2.5s41.5 -4.16699 61.5 -7.5l62 124zM450.003 689.997c0 -21.333 1.99902 -42.499 5.99902 -63.499s10.667 -41.167 20 -60.5l148 338c-27.333 -3.33301 -51.666 -11.333 -72.999 -24
s-39.5 -28.5 -54.5 -47.5s-26.5 -40.833 -34.5 -65.5s-12 -50.334 -12 -77.001zM842.002 679.998c0 16 -1.49902 32.168 -4.49902 48.501s-7.5 32.166 -13.5 47.499l-146 -318c25.333 4.66699 48.166 14 68.499 28s37.5 31 51.5 51s24.833 42.167 32.5 66.5
s11.5 49.833 11.5 76.5z" />
    <glyph glyph-name="Ugrave" unicode="&#xd9;" horiz-adv-x="1276" 
d="M1247 1112c0 -49.333 -2.3291 -103.665 -6.99609 -162.998s-12.334 -120.666 -23.001 -183.999s-24.5 -127.5 -41.5 -192.5s-38.167 -127.5 -63.5 -187.5s-54.833 -116.167 -88.5 -168.5s-72.334 -98 -116.001 -137s-92.5 -69.667 -146.5 -92s-114 -33.5 -180 -33.5
c-77.333 0 -144.5 12.5 -201.5 37.5s-105.833 58.667 -146.5 101s-74 91.666 -100 147.999s-46.333 116 -61 179s-24.834 127.333 -30.501 193s-8.5 128.834 -8.5 189.501c0 93.333 4.66699 186.5 14 279.5s22.666 185.833 39.999 278.5l468 -18
c-18 -104.667 -33.5 -209.834 -46.5 -315.501s-19.5 -211.834 -19.5 -318.501c0 -11.333 0.5 -28.166 1.5 -50.499s2.83301 -47.333 5.5 -75s6.5 -56 11.5 -85s11.833 -55.5 20.5 -79.5s19.167 -43.667 31.5 -59s26.833 -23 43.5 -23c19.333 0 36.666 9.16699 51.999 27.5
s28.833 42.833 40.5 73.5s21.834 66 30.501 106s16 81.667 22 125s10.833 86.666 14.5 129.999s6.66699 83.666 9 120.999s3.83301 70.333 4.5 99s1 50 1 64c0 52 -0.833008 103.833 -2.5 155.5s-4.16699 103.167 -7.5 154.5h468c8 -92 12 -185.333 12 -280zM603.004 1396
c-73.333 55.333 -146.668 106.667 -220.001 154l-226 140l198 234l153 -146l63.5 -64l63 -65.5l57 -63c17.667 -20.333 32.834 -38.833 45.501 -55.5z" />
    <glyph glyph-name="Uacute" unicode="&#xda;" horiz-adv-x="1276" 
d="M1247 1112c0 -49.333 -2.3291 -103.665 -6.99609 -162.998s-12.334 -120.666 -23.001 -183.999s-24.5 -127.5 -41.5 -192.5s-38.167 -127.5 -63.5 -187.5s-54.833 -116.167 -88.5 -168.5s-72.334 -98 -116.001 -137s-92.5 -69.667 -146.5 -92s-114 -33.5 -180 -33.5
c-77.333 0 -144.5 12.5 -201.5 37.5s-105.833 58.667 -146.5 101s-74 91.666 -100 147.999s-46.333 116 -61 179s-24.834 127.333 -30.501 193s-8.5 128.834 -8.5 189.501c0 93.333 4.66699 186.5 14 279.5s22.666 185.833 39.999 278.5l468 -18
c-18 -104.667 -33.5 -209.834 -46.5 -315.501s-19.5 -211.834 -19.5 -318.501c0 -11.333 0.5 -28.166 1.5 -50.499s2.83301 -47.333 5.5 -75s6.5 -56 11.5 -85s11.833 -55.5 20.5 -79.5s19.167 -43.667 31.5 -59s26.833 -23 43.5 -23c19.333 0 36.666 9.16699 51.999 27.5
s28.833 42.833 40.5 73.5s21.834 66 30.501 106s16 81.667 22 125s10.833 86.666 14.5 129.999s6.66699 83.666 9 120.999s3.83301 70.333 4.5 99s1 50 1 64c0 52 -0.833008 103.833 -2.5 155.5s-4.16699 103.167 -7.5 154.5h468c8 -92 12 -185.333 12 -280zM1171 1666
l-232.001 -131.5c-75.333 -44.333 -150.666 -92.5 -225.999 -144.5l-128 140c13.333 16 29.333 33.833 48 53.5l59.5 60.5l65.5 62.5l66 60.5l159 139z" />
    <glyph glyph-name="Ucircumflex" unicode="&#xdb;" horiz-adv-x="1276" 
d="M1247 1112c0 -49.333 -2.3291 -103.665 -6.99609 -162.998s-12.334 -120.666 -23.001 -183.999s-24.5 -127.5 -41.5 -192.5s-38.167 -127.5 -63.5 -187.5s-54.833 -116.167 -88.5 -168.5s-72.334 -98 -116.001 -137s-92.5 -69.667 -146.5 -92s-114 -33.5 -180 -33.5
c-77.333 0 -144.5 12.5 -201.5 37.5s-105.833 58.667 -146.5 101s-74 91.666 -100 147.999s-46.333 116 -61 179s-24.834 127.333 -30.501 193s-8.5 128.834 -8.5 189.501c0 93.333 4.66699 186.5 14 279.5s22.666 185.833 39.999 278.5l468 -18
c-18 -104.667 -33.5 -209.834 -46.5 -315.501s-19.5 -211.834 -19.5 -318.501c0 -11.333 0.5 -28.166 1.5 -50.499s2.83301 -47.333 5.5 -75s6.5 -56 11.5 -85s11.833 -55.5 20.5 -79.5s19.167 -43.667 31.5 -59s26.833 -23 43.5 -23c19.333 0 36.666 9.16699 51.999 27.5
s28.833 42.833 40.5 73.5s21.834 66 30.501 106s16 81.667 22 125s10.833 86.666 14.5 129.999s6.66699 83.666 9 120.999s3.83301 70.333 4.5 99s1 50 1 64c0 52 -0.833008 103.833 -2.5 155.5s-4.16699 103.167 -7.5 154.5h468c8 -92 12 -185.333 12 -280zM783.004 1418
l-156.001 203.999l-122 -194l-220 94c12.667 20.667 28.334 44.834 47.001 72.501l59 86l63 89l61 82.5l206 2l274 -306z" />
    <glyph glyph-name="Udieresis" unicode="&#xdc;" horiz-adv-x="1276" 
d="M1247 1112c0 -49.333 -2.3291 -103.665 -6.99609 -162.998s-12.334 -120.666 -23.001 -183.999s-24.5 -127.5 -41.5 -192.5s-38.167 -127.5 -63.5 -187.5s-54.833 -116.167 -88.5 -168.5s-72.334 -98 -116.001 -137s-92.5 -69.667 -146.5 -92s-114 -33.5 -180 -33.5
c-77.333 0 -144.5 12.5 -201.5 37.5s-105.833 58.667 -146.5 101s-74 91.666 -100 147.999s-46.333 116 -61 179s-24.834 127.333 -30.501 193s-8.5 128.834 -8.5 189.501c0 93.333 4.66699 186.5 14 279.5s22.666 185.833 39.999 278.5l468 -18
c-18 -104.667 -33.5 -209.834 -46.5 -315.501s-19.5 -211.834 -19.5 -318.501c0 -11.333 0.5 -28.166 1.5 -50.499s2.83301 -47.333 5.5 -75s6.5 -56 11.5 -85s11.833 -55.5 20.5 -79.5s19.167 -43.667 31.5 -59s26.833 -23 43.5 -23c19.333 0 36.666 9.16699 51.999 27.5
s28.833 42.833 40.5 73.5s21.834 66 30.501 106s16 81.667 22 125s10.833 86.666 14.5 129.999s6.66699 83.666 9 120.999s3.83301 70.333 4.5 99s1 50 1 64c0 52 -0.833008 103.833 -2.5 155.5s-4.16699 103.167 -7.5 154.5h468c8 -92 12 -185.333 12 -280zM993.004 1598
c0 -20.667 -3.83301 -39.834 -11.5 -57.501s-18.167 -33 -31.5 -46s-29 -23.333 -47 -31s-37.333 -11.5 -58 -11.5c-19.333 0 -37.833 3.83301 -55.5 11.5s-33 18 -46 31s-23.333 28.333 -31 46s-11.5 36.834 -11.5 57.501c0 20 3.83301 38.833 11.5 56.5s18 33.167 31 46.5
s28.333 23.833 46 31.5s36.167 11.5 55.5 11.5c20.667 0 40 -3.83301 58 -11.5s33.667 -18.167 47 -31.5s23.833 -28.833 31.5 -46.5s11.5 -36.5 11.5 -56.5zM603.004 1576c0 -22 -4.16699 -42.667 -12.5 -62s-19.666 -36.333 -33.999 -51s-31.166 -26.167 -50.499 -34.5
s-39.666 -12.5 -60.999 -12.5c-22 0 -42.667 4.16699 -62 12.5s-36 19.833 -50 34.5s-25.167 31.667 -33.5 51s-12.5 40 -12.5 62c0 20.667 4.16699 40.334 12.5 59.001s19.5 35.167 33.5 49.5s30.667 25.833 50 34.5s40 13 62 13c21.333 0 41.666 -4.33301 60.999 -13
s36.166 -20.167 50.499 -34.5s25.666 -30.833 33.999 -49.5s12.5 -38.334 12.5 -59.001z" />
    <glyph glyph-name="Yacute" unicode="&#xdd;" horiz-adv-x="1243" 
d="M1336 1354l-550 -768l-26 -626h-474l12 622l-286 742l510 64l80 -432l254 432zM1212 1666l-232.001 -131.5c-75.333 -44.333 -150.666 -92.5 -225.999 -144.5l-128 140c13.333 16 29.333 33.833 48 53.5l59.5 60.5l65.5 62.5l66 60.5l159 139z" />
    <glyph glyph-name="Thorn" unicode="&#xde;" horiz-adv-x="1226" 
d="M58 1430l524.001 33.999l-12 -258h18c51.333 0 102.666 -4.16699 153.999 -12.5s100.5 -21.5 147.5 -39.5s90.667 -40.5 131 -67.5s75.166 -59.167 104.499 -96.5s52.5 -80 69.5 -128s25.5 -101.333 25.5 -160c0 -64.667 -9.66699 -122 -29 -172
s-45.833 -93.833 -79.5 -131.5s-73.167 -69.334 -118.5 -95.001s-93.833 -46.667 -145.5 -63s-105.167 -28.166 -160.5 -35.499s-109.666 -11.666 -162.999 -12.999v-206h-466v1444zM776.001 667.999c0 43.333 -13.165 77.167 -39.498 101.5s-60.5 36.5 -102.5 36.5
c-14 0 -28.5 -1.16699 -43.5 -3.5s-29.167 -5.16602 -42.5 -8.49902l-12 -292c9.33301 -1.33301 18.333 -2 27 -2h27c24 0 47.167 4 69.5 12s42.166 19.5 59.499 34.5s31.166 32.667 41.499 53s15.5 43.166 15.5 68.499z" />
    <glyph glyph-name="germandbls" unicode="&#xdf;" horiz-adv-x="2137" 
d="M1076 512c0 -91.333 -15.834 -170.168 -47.501 -236.501s-75 -121 -130 -164s-119.333 -74.667 -193 -95s-152.834 -30.5 -237.501 -30.5c-32.667 0 -68.5 4.33301 -107.5 13s-78.5 19.5 -118.5 32.5s-78.5 27 -115.5 42s-69.833 29.167 -98.5 42.5l44 392
c56.667 -34 119.5 -59.833 188.5 -77.5s136.833 -26.5 203.5 -26.5c12.667 0 28 0.5 46 1.5s35.167 4 51.5 9s30.166 12.5 41.499 22.5s17 24.333 17 43c0 12.667 -4 23.5 -12 32.5s-18.333 16.333 -31 22s-27 10 -43 13s-31.667 5.16699 -47 6.5s-29.666 2 -42.999 2h-32
c-57.333 0 -109.5 9 -156.5 27s-87.333 43.5 -121 76.5s-59.834 73 -78.501 120s-28 99.167 -28 156.5c0 78.667 15.833 149.167 47.5 211.5s74 115.333 127 159s113.833 77.167 182.5 100.5s139.667 35 213 35c32.667 0 66.334 -1.16699 101.001 -3.5
s69.167 -6.5 103.5 -12.5s67.833 -13.667 100.5 -23s63.667 -21 93 -35l-38 -406c-45.333 15.333 -92.833 28.166 -142.5 38.499s-98.167 15.5 -145.5 15.5c-8.66699 0 -19.834 -0.166992 -33.501 -0.5s-28 -1.33301 -43 -3s-30.167 -4.16699 -45.5 -7.5
s-29 -7.83301 -41 -13.5s-21.667 -13.167 -29 -22.5s-10.666 -20.333 -9.99902 -33c0.666992 -14.667 6.16699 -26 16.5 -34s23.666 -13.833 39.999 -17.5s34.333 -5.5 54 -5.5s39.167 0.5 58.5 1.5s37.333 2 54 3s30.334 1.16699 41.001 0.5
c53.333 -3.33301 101.333 -14.666 144 -33.999s78.834 -45 108.501 -77s52.334 -70.167 68.001 -114.5s23.5 -93.166 23.5 -146.499zM2124 511.998c0 -91.333 -15.834 -170.168 -47.501 -236.501s-75 -121 -130 -164s-119.333 -74.667 -193 -95
s-152.834 -30.5 -237.501 -30.5c-32.667 0 -68.5 4.33301 -107.5 13s-78.5 19.5 -118.5 32.5s-78.5 27 -115.5 42s-69.833 29.167 -98.5 42.5l44 392c56.667 -34 119.5 -59.833 188.5 -77.5s136.833 -26.5 203.5 -26.5c12.667 0 28 0.5 46 1.5s35.167 4 51.5 9
s30.166 12.5 41.499 22.5s17 24.333 17 43c0 12.667 -4 23.5 -12 32.5s-18.333 16.333 -31 22s-27 10 -43 13s-31.667 5.16699 -47 6.5s-29.666 2 -42.999 2h-32c-57.333 0 -109.5 9 -156.5 27s-87.333 43.5 -121 76.5s-59.834 73 -78.501 120s-28 99.167 -28 156.5
c0 78.667 15.833 149.167 47.5 211.5s74 115.333 127 159s113.833 77.167 182.5 100.5s139.667 35 213 35c32.667 0 66.334 -1.16699 101.001 -3.5s69.167 -6.5 103.5 -12.5s67.833 -13.667 100.5 -23s63.667 -21 93 -35l-38 -406
c-45.333 15.333 -92.833 28.166 -142.5 38.499s-98.167 15.5 -145.5 15.5c-8.66699 0 -19.834 -0.166992 -33.501 -0.5s-28 -1.33301 -43 -3s-30.167 -4.16699 -45.5 -7.5s-29 -7.83301 -41 -13.5s-21.667 -13.167 -29 -22.5s-10.666 -20.333 -9.99902 -33
c0.666992 -14.667 6.16699 -26 16.5 -34s23.666 -13.833 39.999 -17.5s34.333 -5.5 54 -5.5s39.167 0.5 58.5 1.5s37.333 2 54 3s30.334 1.16699 41.001 0.5c53.333 -3.33301 101.333 -14.666 144 -33.999s78.834 -45 108.501 -77s52.334 -70.167 68.001 -114.5
s23.5 -93.166 23.5 -146.499z" />
    <glyph glyph-name="agrave" unicode="&#xe0;" 
d="M1312 86l-496 -64l-60 226h-228l-50 -226l-510 50l398 1332l556 28zM720 554l-76 348l-74 -348h150zM558 1442c-73.333 55.333 -146.668 106.667 -220.001 154l-226 140l198 234l153 -146l63.5 -64l63 -65.5l57 -63c17.667 -20.333 32.834 -38.833 45.501 -55.5z" />
    <glyph glyph-name="aacute" unicode="&#xe1;" 
d="M1312 86l-496 -64l-60 226h-228l-50 -226l-510 50l398 1332l556 28zM720 554l-76 348l-74 -348h150zM1188 1740l-232.001 -131.5c-75.333 -44.333 -150.666 -92.5 -225.999 -144.5l-128 140c13.333 16 29.333 33.833 48 53.5l59.5 60.5l65.5 62.5l66 60.5l159 139z" />
    <glyph glyph-name="acircumflex" unicode="&#xe2;" 
d="M1312 86l-496 -64l-60 226h-228l-50 -226l-510 50l398 1332l556 28zM720 554l-76 348l-74 -348h150zM782 1454l-156.001 203.999l-122 -194l-220 94c12.667 20.667 28.334 44.834 47.001 72.501l59 86l63 89l61 82.5l206 2l274 -306z" />
    <glyph glyph-name="atilde" unicode="&#xe3;" 
d="M1312 86l-496 -64l-60 226h-228l-50 -226l-510 50l398 1332l556 28zM720 554l-76 348l-74 -348h150zM1040 1732c0 -38.667 -7.00195 -74.666 -21.002 -107.999s-33.167 -62.333 -57.5 -87s-53 -44 -86 -58s-68.167 -21 -105.5 -21c-29.333 0 -54.333 5.33301 -75 16
s-38.167 24 -52.5 40s-26.666 33.333 -36.999 52l-28.5 52c-8.66699 16 -17.5 29.333 -26.5 40s-19.167 16 -30.5 16c-7.33301 0 -13.666 -2.16699 -18.999 -6.5s-9.5 -9.5 -12.5 -15.5s-5.16699 -12.667 -6.5 -20s-2 -14 -2 -20c0 -20 2.5 -39.5 7.5 -58.5
s11.167 -37.5 18.5 -55.5l-244 -20c-8 28 -13.667 56.167 -17 84.5s-5 56.166 -5 83.499c0 40.667 5.33301 78.667 16 114s26.5 66 47.5 92s47 46.5 78 61.5s67.167 22.5 108.5 22.5c36.667 0 67 -5.66699 91 -17s44 -25.333 60 -42s28.5 -35 37.5 -55l24.5 -55
c7.33301 -16.667 14.333 -30.667 21 -42s15.334 -17 26.001 -17c13.333 0 23.666 6 30.999 18s11 24 11 36c0 20 -4 39.5 -12 58.5s-16.667 36.167 -26 51.5l248 40c11.333 -29.333 20.5 -58.833 27.5 -88.5s10.5 -60.167 10.5 -91.5z" />
    <glyph glyph-name="adieresis" unicode="&#xe4;" 
d="M1312 86l-496 -64l-60 226h-228l-50 -226l-510 50l398 1332l556 28zM720 554l-76 348l-74 -348h150zM992 1636c0 -20.667 -3.83301 -39.834 -11.5 -57.501s-18.167 -33 -31.5 -46s-29 -23.333 -47 -31s-37.333 -11.5 -58 -11.5c-19.333 0 -37.833 3.83301 -55.5 11.5
s-33 18 -46 31s-23.333 28.333 -31 46s-11.5 36.834 -11.5 57.501c0 20 3.83301 38.833 11.5 56.5s18 33.167 31 46.5s28.333 23.833 46 31.5s36.167 11.5 55.5 11.5c20.667 0 40 -3.83301 58 -11.5s33.667 -18.167 47 -31.5s23.833 -28.833 31.5 -46.5
s11.5 -36.5 11.5 -56.5zM602 1614c0 -22 -4.16699 -42.667 -12.5 -62s-19.666 -36.333 -33.999 -51s-31.166 -26.167 -50.499 -34.5s-39.666 -12.5 -60.999 -12.5c-22 0 -42.667 4.16699 -62 12.5s-36 19.833 -50 34.5s-25.167 31.667 -33.5 51s-12.5 40 -12.5 62
c0 20.667 4.16699 40.334 12.5 59.001s19.5 35.167 33.5 49.5s30.667 25.833 50 34.5s40 13 62 13c21.333 0 41.666 -4.33301 60.999 -13s36.166 -20.167 50.499 -34.5s25.666 -30.833 33.999 -49.5s12.5 -38.334 12.5 -59.001z" />
    <glyph glyph-name="aring" unicode="&#xe5;" horiz-adv-x="1270" 
d="M935 1568c0 -48.667 -11.332 -94.665 -33.999 -137.998l14 2l390 -1346l-496 -64l-60 226h-228l-50 -226l-510 50l398 1332h20c-16 23.333 -28.333 48.666 -37 75.999s-13 56.666 -13 87.999c0 40.667 8 78.667 24 114s37.5 66.166 64.5 92.499s58.667 47.166 95 62.499
s75.166 23 116.499 23c42.667 0 82.5 -7.66699 119.5 -23s69.333 -36.166 97 -62.499s49.5 -57.166 65.5 -92.499s24 -73.333 24 -114zM729.001 1562c0 14.667 -2.16895 28.834 -6.50195 42.501s-10.166 25.667 -17.499 36s-16.166 18.5 -26.499 24.5s-21.5 9 -33.5 9
s-23.333 -3 -34 -9s-20 -14.167 -28 -24.5s-14.333 -22.333 -19 -36s-7 -27.834 -7 -42.501c0 -16 2.33301 -31 7 -45s11 -26 19 -36s17.333 -18 28 -24s22 -9 34 -9c24 0 44 11 60 33s24 49 24 81zM712.999 554.002l-76 348l-74 -348h150z" />
    <glyph glyph-name="ae" unicode="&#xe6;" horiz-adv-x="1880" 
d="M1866 808c0 -58 -4.00098 -116 -12.001 -174c-114 -7.33301 -227.167 -19.166 -339.5 -35.499l-336.5 -48.5l6 -22c18 -42 45 -75.167 81 -99.5s77.667 -36.5 125 -36.5c26.667 0 55.834 5 87.501 15s63.167 22.5 94.5 37.5s61.333 31.167 90 48.5s53.334 33 74.001 47
l-48 -454c-26 -20 -54.167 -37 -84.5 -51s-61.833 -25.333 -94.5 -34s-65.667 -15 -99 -19s-66 -6 -98 -6c-69.333 0 -134.666 8 -195.999 24s-116 36.833 -164 62.5s-88 54.667 -120 87s-52.667 65.166 -62 98.499h-238l-54 -226l-510 50l398 1332l556 28l38 -130
c49.333 45.333 106 81 170 107s136.667 39 218 39c59.333 0 113.5 -8.16699 162.5 -24.5s92.667 -39 131 -68s71.666 -63.5 99.999 -103.5s51.666 -83.833 69.999 -131.5s32 -98 41 -151s13.5 -106.833 13.5 -161.5zM1466 860c0 18.667 -2 37.832 -6 57.499
s-10.5 37.5 -19.5 53.5s-20.833 29.167 -35.5 39.5s-33 15.5 -55 15.5c-26.667 0 -50.167 -7.16699 -70.5 -21.5s-37.833 -32.333 -52.5 -54s-26.667 -45.167 -36 -70.5s-16.333 -48.666 -21 -69.999l296 28v22zM719.999 553.998l-76 348l-74 -348h150z" />
    <glyph glyph-name="ccedilla" unicode="&#xe7;" horiz-adv-x="1051" 
d="M846 -292c0 -38.667 -6.16406 -71.3398 -18.4971 -98.0068s-29.5 -48.5 -51.5 -65.5s-48 -29.333 -78 -37s-62.667 -11.5 -98 -11.5c-12.667 0 -27 0.833008 -43 2.5s-32.167 4.33398 -48.5 8.00098s-32.166 8.33398 -47.499 14.001s-28.333 12.834 -39 21.501l88 158
c8 -4 17.333 -7.33301 28 -10s20.667 -4 30 -4c12 0 24 3.5 36 10.5s18 17.5 18 31.5c0 10 -3 18.167 -9 24.5s-13.5 11.5 -22.5 15.5s-18.5 6.66699 -28.5 8s-18.667 2 -26 2c-13.333 0 -26.666 -0.833008 -39.999 -2.5s-26.666 -4.16699 -39.999 -7.5l10 232
c-68.667 20 -130.667 50.5 -186 91.5s-102.5 89.667 -141.5 146s-69.167 119 -90.5 188s-32 141.167 -32 216.5c0 109.333 15.5 211.333 46.5 306s76.667 176.834 137 246.501s135 124.334 224 164.001s191.167 59.5 306.5 59.5c46 0 92.667 -3.66699 140 -11
s92.666 -21 135.999 -41l-36 -422c-19.333 5.33301 -38.333 9 -57 11s-37.667 3 -57 3c-47.333 0 -92.5 -6 -135.5 -18s-81 -30.333 -114 -55s-59.333 -55.834 -79 -93.501s-29.5 -82.167 -29.5 -133.5c0 -37.333 5.5 -69.833 16.5 -97.5s26.667 -50.667 47 -69
s45 -32.166 74 -41.499s61.167 -14 96.5 -14c24.667 0 50 2.5 76 7.5s52 11.833 78 20.5s51 18.667 75 30s46.333 23.333 67 36l-16 -470c-26 -13.333 -54 -25.166 -84 -35.499s-60.833 -19.333 -92.5 -27s-63.334 -13.5 -95.001 -17.5s-61.834 -6 -90.501 -6h-10v-68
c29.333 -1.33301 56.666 -6.66602 81.999 -15.999s47.166 -22.5 65.499 -39.5s32.666 -37.5 42.999 -61.5s15.5 -51 15.5 -81z" />
    <glyph glyph-name="egrave" unicode="&#xe8;" horiz-adv-x="1181" 
d="M1167 808c0 -58 -4.00098 -116.002 -12.001 -174.002c-114 -7.33301 -227.333 -19.166 -340 -35.499l-338 -48.5c17.333 -48 44.5 -86.333 81.5 -115s81.167 -43 132.5 -43c26.667 0 55.834 5 87.501 15s63.167 22.5 94.5 37.5s61.333 31.167 90 48.5
s53.334 33 74.001 47l-48 -454c-26 -20 -54.167 -37 -84.5 -51s-61.833 -25.333 -94.5 -34s-65.667 -15 -99 -19s-66 -6 -98 -6c-66 0 -126.333 9 -181 27s-104.167 43.167 -148.5 75.5s-83.166 70.5 -116.499 114.5s-61 92 -83 144s-38.667 107 -50 165
s-17 116.667 -17 176c0 62 5.66699 124 17 186s28.5 121.667 51.5 179s52 110.5 87 159.5s75.833 91.833 122.5 128.5s99.5 65.334 158.5 86.001s124.167 31 195.5 31c59.333 0 113.5 -8.16699 162.5 -24.5s92.667 -39 131 -68s71.666 -63.5 99.999 -103.5
s51.666 -83.833 69.999 -131.5s32 -98 41 -151s13.5 -106.833 13.5 -161.5zM766.999 859.998c0 18.667 -2 37.832 -6 57.499s-10.5 37.5 -19.5 53.5s-20.833 29.167 -35.5 39.5s-33 15.5 -55 15.5c-26.667 0 -50.167 -7.16699 -70.5 -21.5s-37.833 -32.333 -52.5 -54
s-26.667 -45.167 -36 -70.5s-16.333 -48.666 -21 -69.999l296 28v22zM472.999 1460c-73.333 55.333 -146.668 106.667 -220.001 154l-226 140l198 234l153 -146l63.5 -64l63 -65.5l57 -63c17.667 -20.333 32.834 -38.833 45.501 -55.5z" />
    <glyph glyph-name="eacute" unicode="&#xe9;" horiz-adv-x="1181" 
d="M1167 808c0 -58 -4.00098 -116.002 -12.001 -174.002c-114 -7.33301 -227.333 -19.166 -340 -35.499l-338 -48.5c17.333 -48 44.5 -86.333 81.5 -115s81.167 -43 132.5 -43c26.667 0 55.834 5 87.501 15s63.167 22.5 94.5 37.5s61.333 31.167 90 48.5
s53.334 33 74.001 47l-48 -454c-26 -20 -54.167 -37 -84.5 -51s-61.833 -25.333 -94.5 -34s-65.667 -15 -99 -19s-66 -6 -98 -6c-66 0 -126.333 9 -181 27s-104.167 43.167 -148.5 75.5s-83.166 70.5 -116.499 114.5s-61 92 -83 144s-38.667 107 -50 165
s-17 116.667 -17 176c0 62 5.66699 124 17 186s28.5 121.667 51.5 179s52 110.5 87 159.5s75.833 91.833 122.5 128.5s99.5 65.334 158.5 86.001s124.167 31 195.5 31c59.333 0 113.5 -8.16699 162.5 -24.5s92.667 -39 131 -68s71.666 -63.5 99.999 -103.5
s51.666 -83.833 69.999 -131.5s32 -98 41 -151s13.5 -106.833 13.5 -161.5zM766.999 859.998c0 18.667 -2 37.832 -6 57.499s-10.5 37.5 -19.5 53.5s-20.833 29.167 -35.5 39.5s-33 15.5 -55 15.5c-26.667 0 -50.167 -7.16699 -70.5 -21.5s-37.833 -32.333 -52.5 -54
s-26.667 -45.167 -36 -70.5s-16.333 -48.666 -21 -69.999l296 28v22zM1127 1762l-232.001 -131.5c-75.333 -44.333 -150.666 -92.5 -225.999 -144.5l-128 140c13.333 16 29.333 33.833 48 53.5l59.5 60.5l65.5 62.5l66 60.5l159 139z" />
    <glyph glyph-name="ecircumflex" unicode="&#xea;" horiz-adv-x="1181" 
d="M1167 808c0 -58 -4.00098 -116.002 -12.001 -174.002c-114 -7.33301 -227.333 -19.166 -340 -35.499l-338 -48.5c17.333 -48 44.5 -86.333 81.5 -115s81.167 -43 132.5 -43c26.667 0 55.834 5 87.501 15s63.167 22.5 94.5 37.5s61.333 31.167 90 48.5
s53.334 33 74.001 47l-48 -454c-26 -20 -54.167 -37 -84.5 -51s-61.833 -25.333 -94.5 -34s-65.667 -15 -99 -19s-66 -6 -98 -6c-66 0 -126.333 9 -181 27s-104.167 43.167 -148.5 75.5s-83.166 70.5 -116.499 114.5s-61 92 -83 144s-38.667 107 -50 165
s-17 116.667 -17 176c0 62 5.66699 124 17 186s28.5 121.667 51.5 179s52 110.5 87 159.5s75.833 91.833 122.5 128.5s99.5 65.334 158.5 86.001s124.167 31 195.5 31c59.333 0 113.5 -8.16699 162.5 -24.5s92.667 -39 131 -68s71.666 -63.5 99.999 -103.5
s51.666 -83.833 69.999 -131.5s32 -98 41 -151s13.5 -106.833 13.5 -161.5zM766.999 859.998c0 18.667 -2 37.832 -6 57.499s-10.5 37.5 -19.5 53.5s-20.833 29.167 -35.5 39.5s-33 15.5 -55 15.5c-26.667 0 -50.167 -7.16699 -70.5 -21.5s-37.833 -32.333 -52.5 -54
s-26.667 -45.167 -36 -70.5s-16.333 -48.666 -21 -69.999l296 28v22zM734.999 1472l-156.001 203.999l-122 -194l-220 94c12.667 20.667 28.334 44.834 47.001 72.501l59 86l63 89l61 82.5l206 2l274 -306z" />
    <glyph glyph-name="edieresis" unicode="&#xeb;" horiz-adv-x="1181" 
d="M1167 808c0 -58 -4.00098 -116.002 -12.001 -174.002c-114 -7.33301 -227.333 -19.166 -340 -35.499l-338 -48.5c17.333 -48 44.5 -86.333 81.5 -115s81.167 -43 132.5 -43c26.667 0 55.834 5 87.501 15s63.167 22.5 94.5 37.5s61.333 31.167 90 48.5
s53.334 33 74.001 47l-48 -454c-26 -20 -54.167 -37 -84.5 -51s-61.833 -25.333 -94.5 -34s-65.667 -15 -99 -19s-66 -6 -98 -6c-66 0 -126.333 9 -181 27s-104.167 43.167 -148.5 75.5s-83.166 70.5 -116.499 114.5s-61 92 -83 144s-38.667 107 -50 165
s-17 116.667 -17 176c0 62 5.66699 124 17 186s28.5 121.667 51.5 179s52 110.5 87 159.5s75.833 91.833 122.5 128.5s99.5 65.334 158.5 86.001s124.167 31 195.5 31c59.333 0 113.5 -8.16699 162.5 -24.5s92.667 -39 131 -68s71.666 -63.5 99.999 -103.5
s51.666 -83.833 69.999 -131.5s32 -98 41 -151s13.5 -106.833 13.5 -161.5zM766.999 859.998c0 18.667 -2 37.832 -6 57.499s-10.5 37.5 -19.5 53.5s-20.833 29.167 -35.5 39.5s-33 15.5 -55 15.5c-26.667 0 -50.167 -7.16699 -70.5 -21.5s-37.833 -32.333 -52.5 -54
s-26.667 -45.167 -36 -70.5s-16.333 -48.666 -21 -69.999l296 28v22zM944.999 1640c0 -20.667 -3.83301 -39.834 -11.5 -57.501s-18.167 -33 -31.5 -46s-29 -23.333 -47 -31s-37.333 -11.5 -58 -11.5c-19.333 0 -37.833 3.83301 -55.5 11.5s-33 18 -46 31
s-23.333 28.333 -31 46s-11.5 36.834 -11.5 57.501c0 20 3.83301 38.833 11.5 56.5s18 33.167 31 46.5s28.333 23.833 46 31.5s36.167 11.5 55.5 11.5c20.667 0 40 -3.83301 58 -11.5s33.667 -18.167 47 -31.5s23.833 -28.833 31.5 -46.5s11.5 -36.5 11.5 -56.5z
M554.999 1618c0 -22 -4.16699 -42.667 -12.5 -62s-19.666 -36.333 -33.999 -51s-31.166 -26.167 -50.499 -34.5s-39.666 -12.5 -60.999 -12.5c-22 0 -42.667 4.16699 -62 12.5s-36 19.833 -50 34.5s-25.167 31.667 -33.5 51s-12.5 40 -12.5 62
c0 20.667 4.16699 40.334 12.5 59.001s19.5 35.167 33.5 49.5s30.667 25.833 50 34.5s40 13 62 13c21.333 0 41.666 -4.33301 60.999 -13s36.166 -20.167 50.499 -34.5s25.666 -30.833 33.999 -49.5s12.5 -38.334 12.5 -59.001z" />
    <glyph glyph-name="igrave" unicode="&#xec;" horiz-adv-x="602" 
d="M573 1408l-70 -1362l-422 -22l-40 1356zM217 1426c-73.333 55.333 -146.668 106.667 -220.001 154l-226 140l198 234l153 -146l63.5 -64l63 -65.5l57 -63c17.667 -20.333 32.834 -38.833 45.501 -55.5z" />
    <glyph glyph-name="iacute" unicode="&#xed;" horiz-adv-x="602" 
d="M573 1408l-70 -1362l-422 -22l-40 1356zM805 1712l-232.001 -131.5c-75.333 -44.333 -150.666 -92.5 -225.999 -144.5l-128 140c13.333 16 29.333 33.833 48 53.5l59.5 60.5l65.5 62.5l66 60.5l159 139z" />
    <glyph glyph-name="icircumflex" unicode="&#xee;" horiz-adv-x="601" 
d="M573 1408l-70 -1362l-422 -22l-40 1356zM451 1442l-156.001 203.999l-122 -194l-220 94c12.667 20.667 28.334 44.834 47.001 72.501l59 86l63 89l61 82.5l206 2l274 -306z" />
    <glyph glyph-name="idieresis" unicode="&#xef;" horiz-adv-x="602" 
d="M573 1408l-70 -1362l-422 -22l-40 1356zM661 1630c0 -20.667 -3.83301 -39.834 -11.5 -57.501s-18.167 -33 -31.5 -46s-29 -23.333 -47 -31s-37.333 -11.5 -58 -11.5c-19.333 0 -37.833 3.83301 -55.5 11.5s-33 18 -46 31s-23.333 28.333 -31 46
s-11.5 36.834 -11.5 57.501c0 20 3.83301 38.833 11.5 56.5s18 33.167 31 46.5s28.333 23.833 46 31.5s36.167 11.5 55.5 11.5c20.667 0 40 -3.83301 58 -11.5s33.667 -18.167 47 -31.5s23.833 -28.833 31.5 -46.5s11.5 -36.5 11.5 -56.5zM271 1608
c0 -22 -4.16699 -42.667 -12.5 -62s-19.666 -36.333 -33.999 -51s-31.166 -26.167 -50.499 -34.5s-39.666 -12.5 -60.999 -12.5c-22 0 -42.667 4.16699 -62 12.5s-36 19.833 -50 34.5s-25.167 31.667 -33.5 51s-12.5 40 -12.5 62c0 20.667 4.16699 40.334 12.5 59.001
s19.5 35.167 33.5 49.5s30.667 25.833 50 34.5s40 13 62 13c21.333 0 41.666 -4.33301 60.999 -13s36.166 -20.167 50.499 -34.5s25.666 -30.833 33.999 -49.5s12.5 -38.334 12.5 -59.001z" />
    <glyph glyph-name="eth" unicode="&#xf0;" horiz-adv-x="1262" 
d="M127 776l13.999 584c73.333 23.333 148.833 39.833 226.5 49.5s154.834 14.5 231.501 14.5c95.333 0 183 -14.333 263 -43s149 -70 207 -124s103.167 -120 135.5 -198s48.5 -166.333 48.5 -265c0 -93.333 -12 -177.5 -36 -252.5s-57.5 -141.667 -100.5 -200
s-94.167 -108.5 -153.5 -150.5s-124.333 -76.5 -195 -103.5s-146 -47 -226 -60s-161.667 -19.5 -245 -19.5c-31.333 0 -62 0.833008 -92 2.5s-60.667 4.16699 -92 7.5l12 586l-150 -6l-4 182zM842.999 730c0.666992 36 -3.16797 70.666 -11.501 103.999s-22 62.833 -41 88.5
s-43.167 46.334 -72.5 62.001s-64.333 24.167 -105 25.5l-16 -240l100 -2l4 -140l-110 -6l-18 -232c40 6 76.333 19.167 109 39.5s60.834 45.333 84.501 75s42 62.667 55 99s20.167 73.833 21.5 112.5v14z" />
    <glyph glyph-name="ntilde" unicode="&#xf1;" horiz-adv-x="1335" 
d="M1292 506c0 -75.333 -0.839844 -149.83 -2.50684 -223.497s-4.16699 -147.834 -7.5 -222.501l-576 10c20 118 37.333 235.833 52 353.5s22 236.5 22 356.5c0 8.66699 -0.333008 22.667 -1 42s-2 41.166 -4 65.499s-4.83301 49.333 -8.5 75s-8.66699 49.167 -15 70.5
s-14 38.833 -23 52.5s-19.833 20.5 -32.5 20.5c-22.667 0 -41.834 -6.66699 -57.501 -20s-28.667 -30.5 -39 -51.5s-18.5 -44.5 -24.5 -70.5s-10.5 -52 -13.5 -78s-5 -50.5 -6 -73.5s-1.5 -41.833 -1.5 -56.5c-3.33301 -118 -6 -235.167 -8 -351.5
s-4.66699 -233.833 -8 -352.5l-510 -22l38.5 702c12.333 232.667 22.166 466.667 29.499 702l472 24l-4 -160c18.667 22.667 38.834 44 60.501 64s44.834 37.167 69.501 51.5s50.834 25.666 78.501 33.999s56.834 12.5 87.501 12.5c56.667 0 106.334 -9.33301 149.001 -28
s79.334 -44 110.001 -76s56.334 -69.833 77.001 -113.5s37.334 -90.167 50.001 -139.5s22.334 -100.833 29.001 -154.5s11.167 -106.5 13.5 -158.5s3.5 -102.333 3.5 -151v-133zM1059.99 1766c0 -38.667 -7.00195 -74.666 -21.002 -107.999s-33.167 -62.333 -57.5 -87
s-53 -44 -86 -58s-68.167 -21 -105.5 -21c-29.333 0 -54.333 5.33301 -75 16s-38.167 24 -52.5 40s-26.666 33.333 -36.999 52l-28.5 52c-8.66699 16 -17.5 29.333 -26.5 40s-19.167 16 -30.5 16c-7.33301 0 -13.666 -2.16699 -18.999 -6.5s-9.5 -9.5 -12.5 -15.5
s-5.16699 -12.667 -6.5 -20s-2 -14 -2 -20c0 -20 2.5 -39.5 7.5 -58.5s11.167 -37.5 18.5 -55.5l-244 -20c-8 28 -13.667 56.167 -17 84.5s-5 56.166 -5 83.499c0 40.667 5.33301 78.667 16 114s26.5 66 47.5 92s47 46.5 78 61.5s67.167 22.5 108.5 22.5
c36.667 0 67 -5.66699 91 -17s44 -25.333 60 -42s28.5 -35 37.5 -55l24.5 -55c7.33301 -16.667 14.333 -30.667 21 -42s15.334 -17 26.001 -17c13.333 0 23.666 6 30.999 18s11 24 11 36c0 20 -4 39.5 -12 58.5s-16.667 36.167 -26 51.5l248 40
c11.333 -29.333 20.5 -58.833 27.5 -88.5s10.5 -60.167 10.5 -91.5z" />
    <glyph glyph-name="ograve" unicode="&#xf2;" horiz-adv-x="1306" 
d="M1287 766c0 -60.667 -7.00098 -119.169 -21.001 -175.502s-34.167 -109.166 -60.5 -158.499s-58.333 -94.5 -96 -135.5s-80 -76.167 -127 -105.5s-98.167 -52.166 -153.5 -68.499s-114 -24.5 -176 -24.5c-60 0 -117.167 7.66699 -171.5 23s-105.166 36.833 -152.499 64.5
s-90.166 61 -128.499 100s-71 82.333 -98 130s-48 98.834 -63 153.501s-22.5 111.667 -22.5 171c0 58 7 114.833 21 170.5s34.167 108.167 60.5 157.5s58.166 94.666 95.499 135.999s79.166 77 125.499 107s96.5 53.333 150.5 70s111 25 171 25
c96.667 0 184.834 -15 264.501 -45s147.667 -72.833 204 -128.5s100 -123 131 -202s46.5 -167.167 46.5 -264.5zM842.999 739.998c0 28.667 -4.16406 56.5 -12.4971 83.5s-20.5 51 -36.5 72s-35.833 38 -59.5 51s-50.834 19.5 -81.501 19.5
c-31.333 0 -59.333 -5.66699 -84 -17s-45.834 -26.833 -63.501 -46.5s-31.167 -42.667 -40.5 -69s-14 -54.166 -14 -83.499c0 -28 4 -56 12 -84s20 -53.333 36 -76s35.833 -41 59.5 -55s51.167 -21 82.5 -21s59.5 6.16699 84.5 18.5s46.167 29 63.5 50
s30.666 45.167 39.999 72.5s14 55.666 14 84.999zM505.002 1430c-73.333 55.333 -146.668 106.667 -220.001 154l-226 140l198 234l153 -146l63.5 -64l63 -65.5l57 -63c17.667 -20.333 32.834 -38.833 45.501 -55.5z" />
    <glyph glyph-name="oacute" unicode="&#xf3;" horiz-adv-x="1306" 
d="M1287 766c0 -60.667 -7.00098 -119.169 -21.001 -175.502s-34.167 -109.166 -60.5 -158.499s-58.333 -94.5 -96 -135.5s-80 -76.167 -127 -105.5s-98.167 -52.166 -153.5 -68.499s-114 -24.5 -176 -24.5c-60 0 -117.167 7.66699 -171.5 23s-105.166 36.833 -152.499 64.5
s-90.166 61 -128.499 100s-71 82.333 -98 130s-48 98.834 -63 153.501s-22.5 111.667 -22.5 171c0 58 7 114.833 21 170.5s34.167 108.167 60.5 157.5s58.166 94.666 95.499 135.999s79.166 77 125.499 107s96.5 53.333 150.5 70s111 25 171 25
c96.667 0 184.834 -15 264.501 -45s147.667 -72.833 204 -128.5s100 -123 131 -202s46.5 -167.167 46.5 -264.5zM842.999 739.998c0 28.667 -4.16406 56.5 -12.4971 83.5s-20.5 51 -36.5 72s-35.833 38 -59.5 51s-50.834 19.5 -81.501 19.5
c-31.333 0 -59.333 -5.66699 -84 -17s-45.834 -26.833 -63.501 -46.5s-31.167 -42.667 -40.5 -69s-14 -54.166 -14 -83.499c0 -28 4 -56 12 -84s20 -53.333 36 -76s35.833 -41 59.5 -55s51.167 -21 82.5 -21s59.5 6.16699 84.5 18.5s46.167 29 63.5 50
s30.666 45.167 39.999 72.5s14 55.666 14 84.999zM1205 1726l-232.001 -131.5c-75.333 -44.333 -150.666 -92.5 -225.999 -144.5l-128 140c13.333 16 29.333 33.833 48 53.5l59.5 60.5l65.5 62.5l66 60.5l159 139z" />
    <glyph glyph-name="ocircumflex" unicode="&#xf4;" horiz-adv-x="1306" 
d="M1287 766c0 -60.667 -7.00098 -119.169 -21.001 -175.502s-34.167 -109.166 -60.5 -158.499s-58.333 -94.5 -96 -135.5s-80 -76.167 -127 -105.5s-98.167 -52.166 -153.5 -68.499s-114 -24.5 -176 -24.5c-60 0 -117.167 7.66699 -171.5 23s-105.166 36.833 -152.499 64.5
s-90.166 61 -128.499 100s-71 82.333 -98 130s-48 98.834 -63 153.501s-22.5 111.667 -22.5 171c0 58 7 114.833 21 170.5s34.167 108.167 60.5 157.5s58.166 94.666 95.499 135.999s79.166 77 125.499 107s96.5 53.333 150.5 70s111 25 171 25
c96.667 0 184.834 -15 264.501 -45s147.667 -72.833 204 -128.5s100 -123 131 -202s46.5 -167.167 46.5 -264.5zM842.999 739.998c0 28.667 -4.16406 56.5 -12.4971 83.5s-20.5 51 -36.5 72s-35.833 38 -59.5 51s-50.834 19.5 -81.501 19.5
c-31.333 0 -59.333 -5.66699 -84 -17s-45.834 -26.833 -63.501 -46.5s-31.167 -42.667 -40.5 -69s-14 -54.166 -14 -83.499c0 -28 4 -56 12 -84s20 -53.333 36 -76s35.833 -41 59.5 -55s51.167 -21 82.5 -21s59.5 6.16699 84.5 18.5s46.167 29 63.5 50
s30.666 45.167 39.999 72.5s14 55.666 14 84.999zM795.002 1436l-156.001 203.999l-122 -194l-220 94c12.667 20.667 28.334 44.834 47.001 72.501l59 86l63 89l61 82.5l206 2l274 -306z" />
    <glyph glyph-name="otilde" unicode="&#xf5;" horiz-adv-x="1306" 
d="M1287 766c0 -60.667 -7.00098 -119.169 -21.001 -175.502s-34.167 -109.166 -60.5 -158.499s-58.333 -94.5 -96 -135.5s-80 -76.167 -127 -105.5s-98.167 -52.166 -153.5 -68.499s-114 -24.5 -176 -24.5c-60 0 -117.167 7.66699 -171.5 23s-105.166 36.833 -152.499 64.5
s-90.166 61 -128.499 100s-71 82.333 -98 130s-48 98.834 -63 153.501s-22.5 111.667 -22.5 171c0 58 7 114.833 21 170.5s34.167 108.167 60.5 157.5s58.166 94.666 95.499 135.999s79.166 77 125.499 107s96.5 53.333 150.5 70s111 25 171 25
c96.667 0 184.834 -15 264.501 -45s147.667 -72.833 204 -128.5s100 -123 131 -202s46.5 -167.167 46.5 -264.5zM842.999 739.998c0 28.667 -4.16406 56.5 -12.4971 83.5s-20.5 51 -36.5 72s-35.833 38 -59.5 51s-50.834 19.5 -81.501 19.5
c-31.333 0 -59.333 -5.66699 -84 -17s-45.834 -26.833 -63.501 -46.5s-31.167 -42.667 -40.5 -69s-14 -54.166 -14 -83.499c0 -28 4 -56 12 -84s20 -53.333 36 -76s35.833 -41 59.5 -55s51.167 -21 82.5 -21s59.5 6.16699 84.5 18.5s46.167 29 63.5 50
s30.666 45.167 39.999 72.5s14 55.666 14 84.999zM1051 1714c0 -38.667 -7.00195 -74.666 -21.002 -107.999s-33.167 -62.333 -57.5 -87s-53 -44 -86 -58s-68.167 -21 -105.5 -21c-29.333 0 -54.333 5.33301 -75 16s-38.167 24 -52.5 40s-26.666 33.333 -36.999 52l-28.5 52
c-8.66699 16 -17.5 29.333 -26.5 40s-19.167 16 -30.5 16c-7.33301 0 -13.666 -2.16699 -18.999 -6.5s-9.5 -9.5 -12.5 -15.5s-5.16699 -12.667 -6.5 -20s-2 -14 -2 -20c0 -20 2.5 -39.5 7.5 -58.5s11.167 -37.5 18.5 -55.5l-244 -20c-8 28 -13.667 56.167 -17 84.5
s-5 56.166 -5 83.499c0 40.667 5.33301 78.667 16 114s26.5 66 47.5 92s47 46.5 78 61.5s67.167 22.5 108.5 22.5c36.667 0 67 -5.66699 91 -17s44 -25.333 60 -42s28.5 -35 37.5 -55l24.5 -55c7.33301 -16.667 14.333 -30.667 21 -42s15.334 -17 26.001 -17
c13.333 0 23.666 6 30.999 18s11 24 11 36c0 20 -4 39.5 -12 58.5s-16.667 36.167 -26 51.5l248 40c11.333 -29.333 20.5 -58.833 27.5 -88.5s10.5 -60.167 10.5 -91.5z" />
    <glyph glyph-name="odieresis" unicode="&#xf6;" horiz-adv-x="1306" 
d="M1287 766c0 -60.667 -7.00098 -119.169 -21.001 -175.502s-34.167 -109.166 -60.5 -158.499s-58.333 -94.5 -96 -135.5s-80 -76.167 -127 -105.5s-98.167 -52.166 -153.5 -68.499s-114 -24.5 -176 -24.5c-60 0 -117.167 7.66699 -171.5 23s-105.166 36.833 -152.499 64.5
s-90.166 61 -128.499 100s-71 82.333 -98 130s-48 98.834 -63 153.501s-22.5 111.667 -22.5 171c0 58 7 114.833 21 170.5s34.167 108.167 60.5 157.5s58.166 94.666 95.499 135.999s79.166 77 125.499 107s96.5 53.333 150.5 70s111 25 171 25
c96.667 0 184.834 -15 264.501 -45s147.667 -72.833 204 -128.5s100 -123 131 -202s46.5 -167.167 46.5 -264.5zM842.999 739.998c0 28.667 -4.16406 56.5 -12.4971 83.5s-20.5 51 -36.5 72s-35.833 38 -59.5 51s-50.834 19.5 -81.501 19.5
c-31.333 0 -59.333 -5.66699 -84 -17s-45.834 -26.833 -63.501 -46.5s-31.167 -42.667 -40.5 -69s-14 -54.166 -14 -83.499c0 -28 4 -56 12 -84s20 -53.333 36 -76s35.833 -41 59.5 -55s51.167 -21 82.5 -21s59.5 6.16699 84.5 18.5s46.167 29 63.5 50
s30.666 45.167 39.999 72.5s14 55.666 14 84.999zM973.002 1616c0 -20.667 -3.83301 -39.834 -11.5 -57.501s-18.167 -33 -31.5 -46s-29 -23.333 -47 -31s-37.333 -11.5 -58 -11.5c-19.333 0 -37.833 3.83301 -55.5 11.5s-33 18 -46 31s-23.333 28.333 -31 46
s-11.5 36.834 -11.5 57.501c0 20 3.83301 38.833 11.5 56.5s18 33.167 31 46.5s28.333 23.833 46 31.5s36.167 11.5 55.5 11.5c20.667 0 40 -3.83301 58 -11.5s33.667 -18.167 47 -31.5s23.833 -28.833 31.5 -46.5s11.5 -36.5 11.5 -56.5zM583.002 1594
c0 -22 -4.16699 -42.667 -12.5 -62s-19.666 -36.333 -33.999 -51s-31.166 -26.167 -50.499 -34.5s-39.666 -12.5 -60.999 -12.5c-22 0 -42.667 4.16699 -62 12.5s-36 19.833 -50 34.5s-25.167 31.667 -33.5 51s-12.5 40 -12.5 62c0 20.667 4.16699 40.334 12.5 59.001
s19.5 35.167 33.5 49.5s30.667 25.833 50 34.5s40 13 62 13c21.333 0 41.666 -4.33301 60.999 -13s36.166 -20.167 50.499 -34.5s25.666 -30.833 33.999 -49.5s12.5 -38.334 12.5 -59.001z" />
    <glyph glyph-name="divide" unicode="&#xf7;" horiz-adv-x="925" 
d="M50 492l-4 300l826 30l4 -342zM634 246c0 -25.333 -4.83301 -49.166 -14.5 -71.499s-23 -41.833 -40 -58.5s-36.667 -29.834 -59 -39.501s-45.833 -14.5 -70.5 -14.5c-25.333 0 -49.166 4.83301 -71.499 14.5s-41.833 22.834 -58.5 39.501s-29.834 36.167 -39.501 58.5
s-14.5 46.166 -14.5 71.499s4.83301 49.333 14.5 72s22.834 42.5 39.501 59.5s36.167 30.333 58.5 40s46.166 14.5 71.499 14.5c24.667 0 48.167 -4.83301 70.5 -14.5s42 -23 59 -40s30.333 -36.833 40 -59.5s14.5 -46.667 14.5 -72zM638 1044
c0 -25.333 -4.83301 -49.166 -14.5 -71.499s-23 -41.833 -40 -58.5s-36.667 -29.834 -59 -39.501s-45.833 -14.5 -70.5 -14.5c-25.333 0 -49.166 4.83301 -71.499 14.5s-41.833 22.834 -58.5 39.501s-29.834 36.167 -39.501 58.5s-14.5 46.166 -14.5 71.499
s4.83301 49.333 14.5 72s22.834 42.5 39.501 59.5s36.167 30.333 58.5 40s46.166 14.5 71.499 14.5c24.667 0 48.167 -4.83301 70.5 -14.5s42 -23 59 -40s30.333 -36.833 40 -59.5s14.5 -46.667 14.5 -72z" />
    <glyph glyph-name="oslash" unicode="&#xf8;" horiz-adv-x="1302" 
d="M1138 1376l-27.998 -60.001l-28 -62c64.667 -56.667 114.834 -126 150.501 -208s53.5 -175.333 53.5 -280c0 -60.667 -7 -119.167 -21 -175.5s-34.167 -109.166 -60.5 -158.499s-58.333 -94.5 -96 -135.5s-80 -76.167 -127 -105.5s-98.167 -52.166 -153.5 -68.499
s-114 -24.5 -176 -24.5h-8l-58 -160l-400 156l58 148c-35.333 29.333 -67 62.333 -95 99s-51.833 76.167 -71.5 118.5s-34.834 87 -45.501 134s-16 95.833 -16 146.5c0 58 7 114.833 21 170.5s34.167 108.167 60.5 157.5s58.166 94.666 95.499 135.999
s79.166 77 125.499 107s96.5 53.333 150.5 70s111 25 171 25c20 0 39.833 -0.833008 59.5 -2.5s39.167 -3.5 58.5 -5.5l60 118zM842.002 739.999c0 37.333 -7.33301 72.667 -22 106l-150 -330c26.667 4 50.667 12.833 72 26.5s39.5 30.667 54.5 51s26.333 43 34 68
s11.5 51.167 11.5 78.5zM450.002 750c0 -19.333 1.83203 -38.666 5.49902 -57.999s9.16699 -38 16.5 -56l142 326c-25.333 -4 -48.166 -12.333 -68.499 -25s-37.5 -28.5 -51.5 -47.5s-24.833 -40.333 -32.5 -64s-11.5 -48.834 -11.5 -75.501z" />
    <glyph glyph-name="ugrave" unicode="&#xf9;" horiz-adv-x="1252" 
d="M1243 1408c-30 -234.667 -55.6719 -468.17 -77.0049 -700.503s-41.666 -466.166 -60.999 -701.499l-410 -30l18 154c-13.333 -15.333 -28.833 -28.666 -46.5 -39.999s-36.5 -20.5 -56.5 -27.5s-40.667 -12 -62 -15s-41.666 -4.16699 -60.999 -3.5
c-45.333 0.666992 -88 9.5 -128 26.5s-76.667 39.667 -110 68s-63.333 61.333 -90 99s-49.167 77.334 -67.5 119.001s-32.333 84.167 -42 127.5s-14.5 85.333 -14.5 126c0 60 1.16699 122.167 3.5 186.5s6.5 128.833 12.5 193.5s13.833 128.667 23.5 192
s21.834 124 36.501 182c81.333 -4 163 -7.66699 245 -11s163.667 -4.33301 245 -3l-45.5 -174.5c-15 -58.333 -28.5 -117 -40.5 -176s-21.667 -118.167 -29 -177.5s-11 -119.333 -11 -180c0 -14 0.666992 -34 2 -60s4.83301 -51.667 10.5 -77s14.334 -47.5 26.001 -66.5
s28.167 -28.5 49.5 -28.5c25.333 0 48 10.833 68 32.5s37.667 50.834 53 87.501s28.5 79 39.5 127s20.333 98.167 28 150.5s13.834 105.166 18.501 158.499s8.16699 103.5 10.5 150.5s4 89.167 5 126.5s1.5 66.333 1.5 87c0 13.333 -0.333008 26.333 -1 39
s-1.66699 25.667 -3 39c43.333 -1.33301 86.333 -2.33301 129 -3s85.667 -1 129 -1c33.333 0 66.833 0.166992 100.5 0.5s67.5 1.5 101.5 3.5zM654.995 1370c-73.333 55.333 -146.668 106.667 -220.001 154l-226 140l198 234l153 -146l63.5 -64l63 -65.5l57 -63
c17.667 -20.333 32.834 -38.833 45.501 -55.5z" />
    <glyph glyph-name="uacute" unicode="&#xfa;" horiz-adv-x="1252" 
d="M1243 1408c-30 -234.667 -55.6719 -468.17 -77.0049 -700.503s-41.666 -466.166 -60.999 -701.499l-410 -30l18 154c-13.333 -15.333 -28.833 -28.666 -46.5 -39.999s-36.5 -20.5 -56.5 -27.5s-40.667 -12 -62 -15s-41.666 -4.16699 -60.999 -3.5
c-45.333 0.666992 -88 9.5 -128 26.5s-76.667 39.667 -110 68s-63.333 61.333 -90 99s-49.167 77.334 -67.5 119.001s-32.333 84.167 -42 127.5s-14.5 85.333 -14.5 126c0 60 1.16699 122.167 3.5 186.5s6.5 128.833 12.5 193.5s13.833 128.667 23.5 192
s21.834 124 36.501 182c81.333 -4 163 -7.66699 245 -11s163.667 -4.33301 245 -3l-45.5 -174.5c-15 -58.333 -28.5 -117 -40.5 -176s-21.667 -118.167 -29 -177.5s-11 -119.333 -11 -180c0 -14 0.666992 -34 2 -60s4.83301 -51.667 10.5 -77s14.334 -47.5 26.001 -66.5
s28.167 -28.5 49.5 -28.5c25.333 0 48 10.833 68 32.5s37.667 50.834 53 87.501s28.5 79 39.5 127s20.333 98.167 28 150.5s13.834 105.166 18.501 158.499s8.16699 103.5 10.5 150.5s4 89.167 5 126.5s1.5 66.333 1.5 87c0 13.333 -0.333008 26.333 -1 39
s-1.66699 25.667 -3 39c43.333 -1.33301 86.333 -2.33301 129 -3s85.667 -1 129 -1c33.333 0 66.833 0.166992 100.5 0.5s67.5 1.5 101.5 3.5zM1165 1684l-232.001 -131.5c-75.333 -44.333 -150.666 -92.5 -225.999 -144.5l-128 140c13.333 16 29.333 33.833 48 53.5
l59.5 60.5l65.5 62.5l66 60.5l159 139z" />
    <glyph glyph-name="ucircumflex" unicode="&#xfb;" horiz-adv-x="1252" 
d="M1243 1408c-30 -234.667 -55.6719 -468.17 -77.0049 -700.503s-41.666 -466.166 -60.999 -701.499l-410 -30l18 154c-13.333 -15.333 -28.833 -28.666 -46.5 -39.999s-36.5 -20.5 -56.5 -27.5s-40.667 -12 -62 -15s-41.666 -4.16699 -60.999 -3.5
c-45.333 0.666992 -88 9.5 -128 26.5s-76.667 39.667 -110 68s-63.333 61.333 -90 99s-49.167 77.334 -67.5 119.001s-32.333 84.167 -42 127.5s-14.5 85.333 -14.5 126c0 60 1.16699 122.167 3.5 186.5s6.5 128.833 12.5 193.5s13.833 128.667 23.5 192
s21.834 124 36.501 182c81.333 -4 163 -7.66699 245 -11s163.667 -4.33301 245 -3l-45.5 -174.5c-15 -58.333 -28.5 -117 -40.5 -176s-21.667 -118.167 -29 -177.5s-11 -119.333 -11 -180c0 -14 0.666992 -34 2 -60s4.83301 -51.667 10.5 -77s14.334 -47.5 26.001 -66.5
s28.167 -28.5 49.5 -28.5c25.333 0 48 10.833 68 32.5s37.667 50.834 53 87.501s28.5 79 39.5 127s20.333 98.167 28 150.5s13.834 105.166 18.501 158.499s8.16699 103.5 10.5 150.5s4 89.167 5 126.5s1.5 66.333 1.5 87c0 13.333 -0.333008 26.333 -1 39
s-1.66699 25.667 -3 39c43.333 -1.33301 86.333 -2.33301 129 -3s85.667 -1 129 -1c33.333 0 66.833 0.166992 100.5 0.5s67.5 1.5 101.5 3.5zM780.995 1440l-156.001 203.999l-122 -194l-220 94c12.667 20.667 28.334 44.834 47.001 72.501l59 86l63 89l61 82.5l206 2
l274 -306z" />
    <glyph glyph-name="udieresis" unicode="&#xfc;" horiz-adv-x="1252" 
d="M1243 1408c-30 -234.667 -55.6719 -468.17 -77.0049 -700.503s-41.666 -466.166 -60.999 -701.499l-410 -30l18 154c-13.333 -15.333 -28.833 -28.666 -46.5 -39.999s-36.5 -20.5 -56.5 -27.5s-40.667 -12 -62 -15s-41.666 -4.16699 -60.999 -3.5
c-45.333 0.666992 -88 9.5 -128 26.5s-76.667 39.667 -110 68s-63.333 61.333 -90 99s-49.167 77.334 -67.5 119.001s-32.333 84.167 -42 127.5s-14.5 85.333 -14.5 126c0 60 1.16699 122.167 3.5 186.5s6.5 128.833 12.5 193.5s13.833 128.667 23.5 192
s21.834 124 36.501 182c81.333 -4 163 -7.66699 245 -11s163.667 -4.33301 245 -3l-45.5 -174.5c-15 -58.333 -28.5 -117 -40.5 -176s-21.667 -118.167 -29 -177.5s-11 -119.333 -11 -180c0 -14 0.666992 -34 2 -60s4.83301 -51.667 10.5 -77s14.334 -47.5 26.001 -66.5
s28.167 -28.5 49.5 -28.5c25.333 0 48 10.833 68 32.5s37.667 50.834 53 87.501s28.5 79 39.5 127s20.333 98.167 28 150.5s13.834 105.166 18.501 158.499s8.16699 103.5 10.5 150.5s4 89.167 5 126.5s1.5 66.333 1.5 87c0 13.333 -0.333008 26.333 -1 39
s-1.66699 25.667 -3 39c43.333 -1.33301 86.333 -2.33301 129 -3s85.667 -1 129 -1c33.333 0 66.833 0.166992 100.5 0.5s67.5 1.5 101.5 3.5zM990.995 1610c0 -20.667 -3.83301 -39.834 -11.5 -57.501s-18.167 -33 -31.5 -46s-29 -23.333 -47 -31s-37.333 -11.5 -58 -11.5
c-19.333 0 -37.833 3.83301 -55.5 11.5s-33 18 -46 31s-23.333 28.333 -31 46s-11.5 36.834 -11.5 57.501c0 20 3.83301 38.833 11.5 56.5s18 33.167 31 46.5s28.333 23.833 46 31.5s36.167 11.5 55.5 11.5c20.667 0 40 -3.83301 58 -11.5s33.667 -18.167 47 -31.5
s23.833 -28.833 31.5 -46.5s11.5 -36.5 11.5 -56.5zM600.995 1588c0 -22 -4.16699 -42.667 -12.5 -62s-19.666 -36.333 -33.999 -51s-31.166 -26.167 -50.499 -34.5s-39.666 -12.5 -60.999 -12.5c-22 0 -42.667 4.16699 -62 12.5s-36 19.833 -50 34.5
s-25.167 31.667 -33.5 51s-12.5 40 -12.5 62c0 20.667 4.16699 40.334 12.5 59.001s19.5 35.167 33.5 49.5s30.667 25.833 50 34.5s40 13 62 13c21.333 0 41.666 -4.33301 60.999 -13s36.166 -20.167 50.499 -34.5s25.666 -30.833 33.999 -49.5s12.5 -38.334 12.5 -59.001z
" />
    <glyph glyph-name="yacute" unicode="&#xfd;" horiz-adv-x="1240" 
d="M1284 1354l-470 -768l14 -566h-514l12 562l-366 742l510 64l160 -432l174 432zM1168 1642l-232.001 -131.5c-75.333 -44.333 -150.666 -92.5 -225.999 -144.5l-128 140c13.333 16 29.333 33.833 48 53.5l59.5 60.5l65.5 62.5l66 60.5l159 139z" />
    <glyph glyph-name="thorn" unicode="&#xfe;" horiz-adv-x="1226" 
d="M58 1430l524.001 33.999l-12 -258h18c51.333 0 102.666 -4.16699 153.999 -12.5s100.5 -21.5 147.5 -39.5s90.667 -40.5 131 -67.5s75.166 -59.167 104.499 -96.5s52.5 -80 69.5 -128s25.5 -101.333 25.5 -160c0 -64.667 -9.66699 -122 -29 -172
s-45.833 -93.833 -79.5 -131.5s-73.167 -69.334 -118.5 -95.001s-93.833 -46.667 -145.5 -63s-105.167 -28.166 -160.5 -35.499s-109.666 -11.666 -162.999 -12.999v-206h-466v1444zM776.001 667.999c0 43.333 -13.165 77.167 -39.498 101.5s-60.5 36.5 -102.5 36.5
c-14 0 -28.5 -1.16699 -43.5 -3.5s-29.167 -5.16602 -42.5 -8.49902l-12 -292c9.33301 -1.33301 18.333 -2 27 -2h27c24 0 47.167 4 69.5 12s42.166 19.5 59.499 34.5s31.166 32.667 41.499 53s15.5 43.166 15.5 68.499z" />
    <glyph glyph-name="ydieresis" unicode="&#xff;" horiz-adv-x="1240" 
d="M1284 1354l-470 -768l14 -566h-514l12 562l-366 742l510 64l160 -432l174 432zM974 1622c0 -20.667 -3.83301 -39.834 -11.5 -57.501s-18.167 -33 -31.5 -46s-29 -23.333 -47 -31s-37.333 -11.5 -58 -11.5c-19.333 0 -37.833 3.83301 -55.5 11.5s-33 18 -46 31
s-23.333 28.333 -31 46s-11.5 36.834 -11.5 57.501c0 20 3.83301 38.833 11.5 56.5s18 33.167 31 46.5s28.333 23.833 46 31.5s36.167 11.5 55.5 11.5c20.667 0 40 -3.83301 58 -11.5s33.667 -18.167 47 -31.5s23.833 -28.833 31.5 -46.5s11.5 -36.5 11.5 -56.5zM584 1600
c0 -22 -4.16699 -42.667 -12.5 -62s-19.666 -36.333 -33.999 -51s-31.166 -26.167 -50.499 -34.5s-39.666 -12.5 -60.999 -12.5c-22 0 -42.667 4.16699 -62 12.5s-36 19.833 -50 34.5s-25.167 31.667 -33.5 51s-12.5 40 -12.5 62c0 20.667 4.16699 40.334 12.5 59.001
s19.5 35.167 33.5 49.5s30.667 25.833 50 34.5s40 13 62 13c21.333 0 41.666 -4.33301 60.999 -13s36.166 -20.167 50.499 -34.5s25.666 -30.833 33.999 -49.5s12.5 -38.334 12.5 -59.001z" />
    <glyph glyph-name="Amacron" unicode="&#x100;" 
d="M1312 86l-496 -64l-60 226h-228l-50 -226l-510 50l398 1332l556 28zM720 554l-76 348l-74 -348h150zM964 1496l-632 8l-18 238l654 12z" />
    <glyph glyph-name="amacron" unicode="&#x101;" 
d="M1312 86l-496 -64l-60 226h-228l-50 -226l-510 50l398 1332l556 28zM720 554l-76 348l-74 -348h150zM964 1492l-632 8l-18 238l654 12z" />
    <glyph glyph-name="Abreve" unicode="&#x102;" 
d="M1312 86l-496 -64l-60 226h-228l-50 -226l-510 50l398 1332l556 28zM720 554l-76 348l-74 -348h150zM938 1766c0 -42.667 -7.8291 -82.166 -23.4961 -118.499s-37 -67.833 -64 -94.5s-58.833 -47.5 -95.5 -62.5s-75.667 -22.5 -117 -22.5c-48 0 -90.333 7.33301 -127 22
s-67.334 35.5 -92.001 62.5s-43.334 59.833 -56.001 98.5s-19 82.334 -19 131.001v23c0 8 0.666992 15.667 2 23l232 -30c-0.666992 -10.667 -0.333984 -22.834 0.999023 -36.501s4.5 -26.667 9.5 -39s12 -22.833 21 -31.5s21.167 -13 36.5 -13
c9.33301 0 17.166 2.5 23.499 7.5s11.5 11.5 15.5 19.5s6.83301 16.5 8.5 25.5s2.5 17.5 2.5 25.5c0 19.333 -2.16699 37.666 -6.5 54.999s-9.5 35 -15.5 53l242 44c6 -22 11.167 -45.167 15.5 -69.5s6.5 -48.5 6.5 -72.5z" />
    <glyph glyph-name="abreve" unicode="&#x103;" 
d="M1312 86l-496 -64l-60 226h-228l-50 -226l-510 50l398 1332l556 28zM720 554l-76 348l-74 -348h150zM938 1762c0 -42.667 -7.8291 -82.166 -23.4961 -118.499s-37 -67.833 -64 -94.5s-58.833 -47.5 -95.5 -62.5s-75.667 -22.5 -117 -22.5c-48 0 -90.333 7.33301 -127 22
s-67.334 35.5 -92.001 62.5s-43.334 59.833 -56.001 98.5s-19 82.334 -19 131.001v23c0 8 0.666992 15.667 2 23l232 -30c-0.666992 -10.667 -0.333984 -22.834 0.999023 -36.501s4.5 -26.667 9.5 -39s12 -22.833 21 -31.5s21.167 -13 36.5 -13
c9.33301 0 17.166 2.5 23.499 7.5s11.5 11.5 15.5 19.5s6.83301 16.5 8.5 25.5s2.5 17.5 2.5 25.5c0 19.333 -2.16699 37.666 -6.5 54.999s-9.5 35 -15.5 53l242 44c6 -22 11.167 -45.167 15.5 -69.5s6.5 -48.5 6.5 -72.5z" />
    <glyph glyph-name="Aogonek" unicode="&#x104;" 
d="M1289 -235c-29.333 -28 -62.333 -52.3311 -99 -72.998s-75.667 -31 -117 -31c-30.667 0 -59.5 5.16699 -86.5 15.5s-50.667 24.666 -71 42.999s-36.5 40.333 -48.5 66s-18 54.167 -18 85.5c0 30.667 5.66699 59.5 17 86.5s26 52.5 44 76.5l-94 -12l-60 226h-228l-50 -226
l-510 50l398 1332l556 28l390 -1346l-151 -20l-33 -43c-11.333 -15.333 -21.5 -30.333 -30.5 -45s-16.333 -28.667 -22 -42s-8.5 -25 -8.5 -35c0 -12 4.33301 -22 13 -30s19 -12 31 -12c13.333 0 28 5.16699 44 15.5s28 21.166 36 32.499zM720 554.002l-76 348l-74 -348h150
z" />
    <glyph glyph-name="aogonek" unicode="&#x105;" 
d="M1284 -241c-29.333 -28 -62.332 -52.3311 -98.999 -72.998s-75.667 -31 -117 -31c-30.667 0 -59.5 5.16699 -86.5 15.5s-50.667 24.666 -71 42.999s-36.5 40.333 -48.5 66s-18 54.167 -18 85.5c0 32 6 62 18 90s27.667 54.333 47 79l-93 -12l-60 226h-228l-50 -226
l-510 50l398 1332l556 28l390 -1346l-151 -20l-33.5 -44.5c-11.667 -15.667 -22.334 -31.167 -32.001 -46.5s-17.667 -30 -24 -44s-9.5 -26 -9.5 -36c0 -12 4.33301 -22 13 -30s19 -12 31 -12c13.333 0 28 5.16699 44 15.5s28 21.166 36 32.499zM720.001 554.002l-76 348
l-74 -348h150z" />
    <glyph glyph-name="Cacute" unicode="&#x106;" horiz-adv-x="1054" 
d="M1042 1406l-56.0039 -422.001c-19.333 5.33301 -38.666 9 -57.999 11s-38.666 3 -57.999 3c-49.333 0 -96.333 -6.5 -141 -19.5s-84.167 -32.833 -118.5 -59.5s-61.666 -60 -81.999 -100s-30.5 -87 -30.5 -141c0 -34.667 5.5 -64.667 16.5 -90s26.5 -46.333 46.5 -63
s43.667 -29 71 -37s57.333 -12 90 -12c24.667 0 50.334 2.66699 77.001 8s53 12.333 79 21s51.333 18.667 76 30s47.334 23 68.001 35l-40 -470c-26 -13.333 -54.167 -25.166 -84.5 -35.499s-61.5 -19.333 -93.5 -27s-64 -13.5 -96 -17.5s-62.667 -6 -92 -6
c-84.667 0 -163.667 15.667 -237 47s-137 74.333 -191 129s-96.5 119.167 -127.5 193.5s-46.5 154.5 -46.5 240.5c0 114 16.333 221.5 49 322.5s80.667 189.5 144 265.5s141.833 136 235.5 180s201.5 66 323.5 66c46 0 93.167 -3.66699 141.5 -11s93.166 -21 134.499 -41z
M987.996 1754l-232.001 -131.5c-75.333 -44.333 -150.666 -92.5 -225.999 -144.5l-128 140c13.333 16 29.333 33.833 48 53.5l59.5 60.5l65.5 62.5l66 60.5l159 139z" />
    <glyph glyph-name="cacute" unicode="&#x107;" horiz-adv-x="1050" 
d="M1005 1366l-35.9941 -422.003c-19.333 5.33301 -38.333 9 -57 11s-37.667 3 -57 3c-47.333 0 -92.5 -6 -135.5 -18s-81 -30.333 -114 -55s-59.333 -55.834 -79 -93.501s-29.5 -82.167 -29.5 -133.5c0 -37.333 5.5 -69.833 16.5 -97.5s26.667 -50.667 47 -69
s45 -32.166 74 -41.499s61.167 -14 96.5 -14c24.667 0 50 2.5 76 7.5s52 11.833 78 20.5s51 18.667 75 30s46.333 23.333 67 36l-16 -470c-26 -13.333 -54 -25.166 -84 -35.499s-60.833 -19.333 -92.5 -27s-63.334 -13.5 -95.001 -17.5s-61.834 -6 -90.501 -6
c-94.667 0 -180.834 17.667 -258.501 53s-144.334 83.5 -200.001 144.5s-98.834 131.833 -129.501 212.5s-46 166.667 -46 258c0 109.333 15.5 211.333 46.5 306s76.667 176.834 137 246.501s135 124.334 224 164.001s191.167 59.5 306.5 59.5c46 0 92.667 -3.66699 140 -11
s92.666 -21 135.999 -41zM988.006 1724l-232.001 -131.5c-75.333 -44.333 -150.666 -92.5 -225.999 -144.5l-128 140c13.333 16 29.333 33.833 48 53.5l59.5 60.5l65.5 62.5l66 60.5l159 139z" />
    <glyph glyph-name="Ccircumflex" unicode="&#x108;" horiz-adv-x="1054" 
d="M1042 1406l-56.0039 -422.001c-19.333 5.33301 -38.666 9 -57.999 11s-38.666 3 -57.999 3c-49.333 0 -96.333 -6.5 -141 -19.5s-84.167 -32.833 -118.5 -59.5s-61.666 -60 -81.999 -100s-30.5 -87 -30.5 -141c0 -34.667 5.5 -64.667 16.5 -90s26.5 -46.333 46.5 -63
s43.667 -29 71 -37s57.333 -12 90 -12c24.667 0 50.334 2.66699 77.001 8s53 12.333 79 21s51.333 18.667 76 30s47.334 23 68.001 35l-40 -470c-26 -13.333 -54.167 -25.166 -84.5 -35.499s-61.5 -19.333 -93.5 -27s-64 -13.5 -96 -17.5s-62.667 -6 -92 -6
c-84.667 0 -163.667 15.667 -237 47s-137 74.333 -191 129s-96.5 119.167 -127.5 193.5s-46.5 154.5 -46.5 240.5c0 114 16.333 221.5 49 322.5s80.667 189.5 144 265.5s141.833 136 235.5 180s201.5 66 323.5 66c46 0 93.167 -3.66699 141.5 -11s93.166 -21 134.499 -41z
M673.996 1483l-156.001 203.999l-122 -194l-220 94c12.667 20.667 28.334 44.834 47.001 72.501l59 86l63 89l61 82.5l206 2l274 -306z" />
    <glyph glyph-name="ccircumflex" unicode="&#x109;" horiz-adv-x="1050" 
d="M1005 1366l-35.9941 -422.003c-19.333 5.33301 -38.333 9 -57 11s-37.667 3 -57 3c-47.333 0 -92.5 -6 -135.5 -18s-81 -30.333 -114 -55s-59.333 -55.834 -79 -93.501s-29.5 -82.167 -29.5 -133.5c0 -37.333 5.5 -69.833 16.5 -97.5s26.667 -50.667 47 -69
s45 -32.166 74 -41.499s61.167 -14 96.5 -14c24.667 0 50 2.5 76 7.5s52 11.833 78 20.5s51 18.667 75 30s46.333 23.333 67 36l-16 -470c-26 -13.333 -54 -25.166 -84 -35.499s-60.833 -19.333 -92.5 -27s-63.334 -13.5 -95.001 -17.5s-61.834 -6 -90.501 -6
c-94.667 0 -180.834 17.667 -258.501 53s-144.334 83.5 -200.001 144.5s-98.834 131.833 -129.501 212.5s-46 166.667 -46 258c0 109.333 15.5 211.333 46.5 306s76.667 176.834 137 246.501s135 124.334 224 164.001s191.167 59.5 306.5 59.5c46 0 92.667 -3.66699 140 -11
s92.666 -21 135.999 -41zM674.006 1453l-156.001 203.999l-122 -194l-220 94c12.667 20.667 28.334 44.834 47.001 72.501l59 86l63 89l61 82.5l206 2l274 -306z" />
    <glyph glyph-name="Cdotaccent" unicode="&#x10a;" horiz-adv-x="1054" 
d="M1042 1406l-56.0039 -422.001c-19.333 5.33301 -38.666 9 -57.999 11s-38.666 3 -57.999 3c-49.333 0 -96.333 -6.5 -141 -19.5s-84.167 -32.833 -118.5 -59.5s-61.666 -60 -81.999 -100s-30.5 -87 -30.5 -141c0 -34.667 5.5 -64.667 16.5 -90s26.5 -46.333 46.5 -63
s43.667 -29 71 -37s57.333 -12 90 -12c24.667 0 50.334 2.66699 77.001 8s53 12.333 79 21s51.333 18.667 76 30s47.334 23 68.001 35l-40 -470c-26 -13.333 -54.167 -25.166 -84.5 -35.499s-61.5 -19.333 -93.5 -27s-64 -13.5 -96 -17.5s-62.667 -6 -92 -6
c-84.667 0 -163.667 15.667 -237 47s-137 74.333 -191 129s-96.5 119.167 -127.5 193.5s-46.5 154.5 -46.5 240.5c0 114 16.333 221.5 49 322.5s80.667 189.5 144 265.5s141.833 136 235.5 180s201.5 66 323.5 66c46 0 93.167 -3.66699 141.5 -11s93.166 -21 134.499 -41z
M726.996 1677c0 -27.333 -5.16602 -52.666 -15.499 -75.999s-24.5 -43.833 -42.5 -61.5s-39 -31.5 -63 -41.5s-49.667 -15 -77 -15c-29.333 0 -56.333 5 -81 15s-46 23.833 -64 41.5s-32 38.167 -42 61.5s-15 48.666 -15 75.999c0 26.667 5 52 15 76
s23.833 44.833 41.5 62.5s38.5 31.667 62.5 42s49.667 15.5 77 15.5c28.667 0 55.5 -5.16699 80.5 -15.5s46.667 -24.333 65 -42s32.666 -38.5 42.999 -62.5s15.5 -49.333 15.5 -76z" />
    <glyph glyph-name="cdotaccent" unicode="&#x10b;" horiz-adv-x="1050" 
d="M1005 1366l-35.9941 -422.003c-19.333 5.33301 -38.333 9 -57 11s-37.667 3 -57 3c-47.333 0 -92.5 -6 -135.5 -18s-81 -30.333 -114 -55s-59.333 -55.834 -79 -93.501s-29.5 -82.167 -29.5 -133.5c0 -37.333 5.5 -69.833 16.5 -97.5s26.667 -50.667 47 -69
s45 -32.166 74 -41.499s61.167 -14 96.5 -14c24.667 0 50 2.5 76 7.5s52 11.833 78 20.5s51 18.667 75 30s46.333 23.333 67 36l-16 -470c-26 -13.333 -54 -25.166 -84 -35.499s-60.833 -19.333 -92.5 -27s-63.334 -13.5 -95.001 -17.5s-61.834 -6 -90.501 -6
c-94.667 0 -180.834 17.667 -258.501 53s-144.334 83.5 -200.001 144.5s-98.834 131.833 -129.501 212.5s-46 166.667 -46 258c0 109.333 15.5 211.333 46.5 306s76.667 176.834 137 246.501s135 124.334 224 164.001s191.167 59.5 306.5 59.5c46 0 92.667 -3.66699 140 -11
s92.666 -21 135.999 -41zM727.006 1637c0 -27.333 -5.16602 -52.666 -15.499 -75.999s-24.5 -43.833 -42.5 -61.5s-39 -31.5 -63 -41.5s-49.667 -15 -77 -15c-29.333 0 -56.333 5 -81 15s-46 23.833 -64 41.5s-32 38.167 -42 61.5s-15 48.666 -15 75.999
c0 26.667 5 52 15 76s23.833 44.833 41.5 62.5s38.5 31.667 62.5 42s49.667 15.5 77 15.5c28.667 0 55.5 -5.16699 80.5 -15.5s46.667 -24.333 65 -42s32.666 -38.5 42.999 -62.5s15.5 -49.333 15.5 -76z" />
    <glyph glyph-name="Ccaron" unicode="&#x10c;" horiz-adv-x="1054" 
d="M1042 1406l-56.0039 -422.001c-19.333 5.33301 -38.666 9 -57.999 11s-38.666 3 -57.999 3c-49.333 0 -96.333 -6.5 -141 -19.5s-84.167 -32.833 -118.5 -59.5s-61.666 -60 -81.999 -100s-30.5 -87 -30.5 -141c0 -34.667 5.5 -64.667 16.5 -90s26.5 -46.333 46.5 -63
s43.667 -29 71 -37s57.333 -12 90 -12c24.667 0 50.334 2.66699 77.001 8s53 12.333 79 21s51.333 18.667 76 30s47.334 23 68.001 35l-40 -470c-26 -13.333 -54.167 -25.166 -84.5 -35.499s-61.5 -19.333 -93.5 -27s-64 -13.5 -96 -17.5s-62.667 -6 -92 -6
c-84.667 0 -163.667 15.667 -237 47s-137 74.333 -191 129s-96.5 119.167 -127.5 193.5s-46.5 154.5 -46.5 240.5c0 114 16.333 221.5 49 322.5s80.667 189.5 144 265.5s141.833 136 235.5 180s201.5 66 323.5 66c46 0 93.167 -3.66699 141.5 -11s93.166 -21 134.499 -41z
M881.996 1826c-12.667 -20.667 -28 -44.167 -46 -70.5l-57 -82.5l-61.5 -86.5l-59.5 -80.5l-196 -28l-290 318l212 134l156 -204l122 196z" />
    <glyph glyph-name="ccaron" unicode="&#x10d;" horiz-adv-x="1050" 
d="M1005 1366l-35.9941 -422.003c-19.333 5.33301 -38.333 9 -57 11s-37.667 3 -57 3c-47.333 0 -92.5 -6 -135.5 -18s-81 -30.333 -114 -55s-59.333 -55.834 -79 -93.501s-29.5 -82.167 -29.5 -133.5c0 -37.333 5.5 -69.833 16.5 -97.5s26.667 -50.667 47 -69
s45 -32.166 74 -41.499s61.167 -14 96.5 -14c24.667 0 50 2.5 76 7.5s52 11.833 78 20.5s51 18.667 75 30s46.333 23.333 67 36l-16 -470c-26 -13.333 -54 -25.166 -84 -35.499s-60.833 -19.333 -92.5 -27s-63.334 -13.5 -95.001 -17.5s-61.834 -6 -90.501 -6
c-94.667 0 -180.834 17.667 -258.501 53s-144.334 83.5 -200.001 144.5s-98.834 131.833 -129.501 212.5s-46 166.667 -46 258c0 109.333 15.5 211.333 46.5 306s76.667 176.834 137 246.501s135 124.334 224 164.001s191.167 59.5 306.5 59.5c46 0 92.667 -3.66699 140 -11
s92.666 -21 135.999 -41zM880.006 1793c-12.667 -20.667 -28 -44.167 -46 -70.5l-57 -82.5l-61.5 -86.5l-59.5 -80.5l-196 -28l-290 318l212 134l156 -204l122 196z" />
    <glyph glyph-name="Dcaron" unicode="&#x10e;" horiz-adv-x="1193" 
d="M1184 794c0 -93.333 -12 -177.5 -36 -252.5s-57.5 -141.667 -100.5 -200s-94.167 -108.5 -153.5 -150.5s-124.333 -76.5 -195 -103.5s-145.834 -47 -225.501 -60s-161.5 -19.5 -245.5 -19.5c-31.333 0 -62 0.833008 -92 2.5s-60.667 4.16699 -92 7.5l28 1342
c73.333 23.333 148.833 39.833 226.5 49.5s154.834 14.5 231.501 14.5c95.333 0 183 -14.333 263 -43s149 -70 207 -124s103.167 -120 135.5 -198s48.5 -166.333 48.5 -265zM774 730c0.666992 36 -3.16797 70.666 -11.501 103.999s-22 62.833 -41 88.5
s-43.167 46.334 -72.5 62.001s-64.333 24.167 -105 25.5l-40 -620c40 6 76.333 19.167 109 39.5s60.834 45.333 84.501 75s42 62.667 55 99s20.167 73.833 21.5 112.5v14zM927.998 1826c-12.667 -20.667 -28 -44.167 -46 -70.5l-57 -82.5l-61.5 -86.5l-59.5 -80.5l-196 -28
l-290 318l212 134l156 -204l122 196z" />
    <glyph glyph-name="dcaron" unicode="&#x10f;" horiz-adv-x="1193" 
d="M1184 794c0 -93.333 -12 -176.997 -36 -250.997s-57.5 -139.5 -100.5 -196.5s-94.167 -105.5 -153.5 -145.5s-124.333 -72.833 -195 -98.5s-145.834 -44.5 -225.501 -56.5s-161.5 -18 -245.5 -18c-31.333 0 -62 0.833008 -92 2.5s-60.667 4.16699 -92 7.5l28 1302
c73.333 23.333 148.833 39.833 226.5 49.5s154.834 14.5 231.501 14.5c95.333 0 183 -13.333 263 -40s149 -65.834 207 -117.501s103.167 -115.334 135.5 -191.001s48.5 -162.834 48.5 -261.501zM504 410.003c40 6 76.5 18.1689 109.5 36.502s61.5 41 85.5 68
s42.5 57.667 55.5 92s19.5 70.833 19.5 109.5c0 38 -4 73.5 -12 106.5s-21 61.667 -39 86s-41.667 43.666 -71 57.999s-65.333 22.166 -108 23.499zM928 1796c-12.667 -20.667 -28 -44.167 -46 -70.5l-57 -82.5l-61.5 -86.5l-59.5 -80.5l-196 -28l-290 318l212 134l156 -204
l122 196z" />
    <glyph glyph-name="Dcroat" unicode="&#x110;" horiz-adv-x="1262" 
d="M127 776l13.999 584c73.333 23.333 148.833 39.833 226.5 49.5s154.834 14.5 231.501 14.5c95.333 0 183 -14.333 263 -43s149 -70 207 -124s103.167 -120 135.5 -198s48.5 -166.333 48.5 -265c0 -93.333 -12 -177.5 -36 -252.5s-57.5 -141.667 -100.5 -200
s-94.167 -108.5 -153.5 -150.5s-124.333 -76.5 -195 -103.5s-146 -47 -226 -60s-161.667 -19.5 -245 -19.5c-31.333 0 -62 0.833008 -92 2.5s-60.667 4.16699 -92 7.5l12 586l-150 -6l-4 182zM842.999 730c0.666992 36 -3.16797 70.666 -11.501 103.999s-22 62.833 -41 88.5
s-43.167 46.334 -72.5 62.001s-64.333 24.167 -105 25.5l-16 -240l100 -2l4 -140l-110 -6l-18 -232c40 6 76.333 19.167 109 39.5s60.834 45.333 84.501 75s42 62.667 55 99s20.167 73.833 21.5 112.5v14z" />
    <glyph glyph-name="dcroat" unicode="&#x111;" horiz-adv-x="1262" 
d="M127 776l13.999 584c73.333 23.333 148.833 39.833 226.5 49.5s154.834 14.5 231.501 14.5c95.333 0 183 -14.333 263 -43s149 -70 207 -124s103.167 -120 135.5 -198s48.5 -166.333 48.5 -265c0 -93.333 -12 -177.5 -36 -252.5s-57.5 -141.667 -100.5 -200
s-94.167 -108.5 -153.5 -150.5s-124.333 -76.5 -195 -103.5s-146 -47 -226 -60s-161.667 -19.5 -245 -19.5c-31.333 0 -62 0.833008 -92 2.5s-60.667 4.16699 -92 7.5l12 586l-150 -6l-4 182zM842.999 730c0.666992 36 -3.16797 70.666 -11.501 103.999s-22 62.833 -41 88.5
s-43.167 46.334 -72.5 62.001s-64.333 24.167 -105 25.5l-16 -240l100 -2l4 -140l-110 -6l-18 -232c40 6 76.333 19.167 109 39.5s60.834 45.333 84.501 75s42 62.667 55 99s20.167 73.833 21.5 112.5v14z" />
    <glyph glyph-name="Emacron" unicode="&#x112;" horiz-adv-x="981" 
d="M998 1442c-4 -62.667 -7.66895 -124.667 -11.002 -186s-7.66602 -123.333 -12.999 -186l-424 -22l-10 -126h298l-22 -310l-300 -10l-10 -146h248h176l-12.5 -218.5c-4.33301 -72.333 -8.16602 -144.833 -11.499 -217.5l-862 -20l32 1442h922zM812.998 1516l-632 8
l-18 238l654 12z" />
    <glyph glyph-name="emacron" unicode="&#x113;" horiz-adv-x="1181" 
d="M1167 808c0 -58 -4.00098 -116.002 -12.001 -174.002c-114 -7.33301 -227.333 -19.166 -340 -35.499l-338 -48.5c17.333 -48 44.5 -86.333 81.5 -115s81.167 -43 132.5 -43c26.667 0 55.834 5 87.501 15s63.167 22.5 94.5 37.5s61.333 31.167 90 48.5
s53.334 33 74.001 47l-48 -454c-26 -20 -54.167 -37 -84.5 -51s-61.833 -25.333 -94.5 -34s-65.667 -15 -99 -19s-66 -6 -98 -6c-66 0 -126.333 9 -181 27s-104.167 43.167 -148.5 75.5s-83.166 70.5 -116.499 114.5s-61 92 -83 144s-38.667 107 -50 165
s-17 116.667 -17 176c0 62 5.66699 124 17 186s28.5 121.667 51.5 179s52 110.5 87 159.5s75.833 91.833 122.5 128.5s99.5 65.334 158.5 86.001s124.167 31 195.5 31c59.333 0 113.5 -8.16699 162.5 -24.5s92.667 -39 131 -68s71.666 -63.5 99.999 -103.5
s51.666 -83.833 69.999 -131.5s32 -98 41 -151s13.5 -106.833 13.5 -161.5zM766.999 859.998c0 18.667 -2 37.832 -6 57.499s-10.5 37.5 -19.5 53.5s-20.833 29.167 -35.5 39.5s-33 15.5 -55 15.5c-26.667 0 -50.167 -7.16699 -70.5 -21.5s-37.833 -32.333 -52.5 -54
s-26.667 -45.167 -36 -70.5s-16.333 -48.666 -21 -69.999l296 28v22zM958.999 1496l-632 8l-18 238l654 12z" />
    <glyph glyph-name="Ebreve" unicode="&#x114;" horiz-adv-x="981" 
d="M998 1442c-4 -62.667 -7.66895 -124.667 -11.002 -186s-7.66602 -123.333 -12.999 -186l-424 -22l-10 -126h298l-22 -310l-300 -10l-10 -146h248h176l-12.5 -218.5c-4.33301 -72.333 -8.16602 -144.833 -11.499 -217.5l-862 -20l32 1442h922zM786.998 1776
c0 -42.667 -7.8291 -82.166 -23.4961 -118.499s-37 -67.833 -64 -94.5s-58.833 -47.5 -95.5 -62.5s-75.667 -22.5 -117 -22.5c-48 0 -90.333 7.33301 -127 22s-67.334 35.5 -92.001 62.5s-43.334 59.833 -56.001 98.5s-19 82.334 -19 131.001v23c0 8 0.666992 15.667 2 23
l232 -30c-0.666992 -10.667 -0.333984 -22.834 0.999023 -36.501s4.5 -26.667 9.5 -39s12 -22.833 21 -31.5s21.167 -13 36.5 -13c9.33301 0 17.166 2.5 23.499 7.5s11.5 11.5 15.5 19.5s6.83301 16.5 8.5 25.5s2.5 17.5 2.5 25.5c0 19.333 -2.16699 37.666 -6.5 54.999
s-9.5 35 -15.5 53l242 44c6 -22 11.167 -45.167 15.5 -69.5s6.5 -48.5 6.5 -72.5z" />
    <glyph glyph-name="ebreve" unicode="&#x115;" horiz-adv-x="1181" 
d="M1167 808c0 -58 -4.00098 -116.002 -12.001 -174.002c-114 -7.33301 -227.333 -19.166 -340 -35.499l-338 -48.5c17.333 -48 44.5 -86.333 81.5 -115s81.167 -43 132.5 -43c26.667 0 55.834 5 87.501 15s63.167 22.5 94.5 37.5s61.333 31.167 90 48.5
s53.334 33 74.001 47l-48 -454c-26 -20 -54.167 -37 -84.5 -51s-61.833 -25.333 -94.5 -34s-65.667 -15 -99 -19s-66 -6 -98 -6c-66 0 -126.333 9 -181 27s-104.167 43.167 -148.5 75.5s-83.166 70.5 -116.499 114.5s-61 92 -83 144s-38.667 107 -50 165
s-17 116.667 -17 176c0 62 5.66699 124 17 186s28.5 121.667 51.5 179s52 110.5 87 159.5s75.833 91.833 122.5 128.5s99.5 65.334 158.5 86.001s124.167 31 195.5 31c59.333 0 113.5 -8.16699 162.5 -24.5s92.667 -39 131 -68s71.666 -63.5 99.999 -103.5
s51.666 -83.833 69.999 -131.5s32 -98 41 -151s13.5 -106.833 13.5 -161.5zM766.999 859.998c0 18.667 -2 37.832 -6 57.499s-10.5 37.5 -19.5 53.5s-20.833 29.167 -35.5 39.5s-33 15.5 -55 15.5c-26.667 0 -50.167 -7.16699 -70.5 -21.5s-37.833 -32.333 -52.5 -54
s-26.667 -45.167 -36 -70.5s-16.333 -48.666 -21 -69.999l296 28v22zM890.999 1794c0 -42.667 -7.8291 -82.166 -23.4961 -118.499s-37 -67.833 -64 -94.5s-58.833 -47.5 -95.5 -62.5s-75.667 -22.5 -117 -22.5c-48 0 -90.333 7.33301 -127 22s-67.334 35.5 -92.001 62.5
s-43.334 59.833 -56.001 98.5s-19 82.334 -19 131.001v23c0 8 0.666992 15.667 2 23l232 -30c-0.666992 -10.667 -0.333984 -22.834 0.999023 -36.501s4.5 -26.667 9.5 -39s12 -22.833 21 -31.5s21.167 -13 36.5 -13c9.33301 0 17.166 2.5 23.499 7.5s11.5 11.5 15.5 19.5
s6.83301 16.5 8.5 25.5s2.5 17.5 2.5 25.5c0 19.333 -2.16699 37.666 -6.5 54.999s-9.5 35 -15.5 53l242 44c6 -22 11.167 -45.167 15.5 -69.5s6.5 -48.5 6.5 -72.5z" />
    <glyph glyph-name="Edotaccent" unicode="&#x116;" horiz-adv-x="981" 
d="M998 1442c-4 -62.667 -7.66895 -124.667 -11.002 -186s-7.66602 -123.333 -12.999 -186l-424 -22l-10 -126h298l-22 -310l-300 -10l-10 -146h248h176l-12.5 -218.5c-4.33301 -72.333 -8.16602 -144.833 -11.499 -217.5l-862 -20l32 1442h922zM708.998 1680
c0 -27.333 -5.16602 -52.666 -15.499 -75.999s-24.5 -43.833 -42.5 -61.5s-39 -31.5 -63 -41.5s-49.667 -15 -77 -15c-29.333 0 -56.333 5 -81 15s-46 23.833 -64 41.5s-32 38.167 -42 61.5s-15 48.666 -15 75.999c0 26.667 5 52 15 76s23.833 44.833 41.5 62.5
s38.5 31.667 62.5 42s49.667 15.5 77 15.5c28.667 0 55.5 -5.16699 80.5 -15.5s46.667 -24.333 65 -42s32.666 -38.5 42.999 -62.5s15.5 -49.333 15.5 -76z" />
    <glyph glyph-name="edotaccent" unicode="&#x117;" horiz-adv-x="1181" 
d="M1167 808c0 -58 -4.00098 -116.002 -12.001 -174.002c-114 -7.33301 -227.333 -19.166 -340 -35.499l-338 -48.5c17.333 -48 44.5 -86.333 81.5 -115s81.167 -43 132.5 -43c26.667 0 55.834 5 87.501 15s63.167 22.5 94.5 37.5s61.333 31.167 90 48.5
s53.334 33 74.001 47l-48 -454c-26 -20 -54.167 -37 -84.5 -51s-61.833 -25.333 -94.5 -34s-65.667 -15 -99 -19s-66 -6 -98 -6c-66 0 -126.333 9 -181 27s-104.167 43.167 -148.5 75.5s-83.166 70.5 -116.499 114.5s-61 92 -83 144s-38.667 107 -50 165
s-17 116.667 -17 176c0 62 5.66699 124 17 186s28.5 121.667 51.5 179s52 110.5 87 159.5s75.833 91.833 122.5 128.5s99.5 65.334 158.5 86.001s124.167 31 195.5 31c59.333 0 113.5 -8.16699 162.5 -24.5s92.667 -39 131 -68s71.666 -63.5 99.999 -103.5
s51.666 -83.833 69.999 -131.5s32 -98 41 -151s13.5 -106.833 13.5 -161.5zM766.999 859.998c0 18.667 -2 37.832 -6 57.499s-10.5 37.5 -19.5 53.5s-20.833 29.167 -35.5 39.5s-33 15.5 -55 15.5c-26.667 0 -50.167 -7.16699 -70.5 -21.5s-37.833 -32.333 -52.5 -54
s-26.667 -45.167 -36 -70.5s-16.333 -48.666 -21 -69.999l296 28v22zM817.999 1698c0 -27.333 -5.16602 -52.666 -15.499 -75.999s-24.5 -43.833 -42.5 -61.5s-39 -31.5 -63 -41.5s-49.667 -15 -77 -15c-29.333 0 -56.333 5 -81 15s-46 23.833 -64 41.5s-32 38.167 -42 61.5
s-15 48.666 -15 75.999c0 26.667 5 52 15 76s23.833 44.833 41.5 62.5s38.5 31.667 62.5 42s49.667 15.5 77 15.5c28.667 0 55.5 -5.16699 80.5 -15.5s46.667 -24.333 65 -42s32.666 -38.5 42.999 -62.5s15.5 -49.333 15.5 -76z" />
    <glyph glyph-name="Eogonek" unicode="&#x118;" horiz-adv-x="981" 
d="M896 -283c-29.333 -28 -62.334 -52.333 -99.001 -73s-75.667 -31 -117 -31c-30.667 0 -59.5 5.16699 -86.5 15.5s-50.667 24.666 -71 42.999s-36.5 40.333 -48.5 66s-18 54.167 -18 85.5c0 36 7.66699 69.667 23 101s34.666 60.333 57.999 87l-493 -11l32 1442h922
c-4 -62.667 -7.66699 -124.667 -11 -186s-7.66602 -123.333 -12.999 -186l-424 -22l-10 -126h298l-22 -310l-300 -10l-10 -146h424l-12.5 -218.5c-4.33301 -72.333 -8.16602 -144.833 -11.499 -217.5l-139 -3c-10.667 -13.333 -21.5 -27.666 -32.5 -42.999
s-21 -30.333 -30 -45s-16.333 -28.667 -22 -42s-8.5 -24.666 -8.5 -33.999c0 -12 4.33301 -22 13 -30s19 -12 31 -12c13.333 0 28 5.16699 44 15.5s28 21.166 36 32.499z" />
    <glyph glyph-name="eogonek" unicode="&#x119;" horiz-adv-x="1181" 
d="M968 -286c-29.333 -28 -62.335 -52.332 -99.002 -72.999s-75.667 -31 -117 -31c-30.667 0 -59.5 5.16699 -86.5 15.5s-50.667 24.666 -71 42.999s-36.5 40.333 -48.5 66s-18 54.167 -18 85.5c0 29.333 5.16699 57 15.5 83s23.833 50.667 40.5 74
c-94 4 -176.333 26.333 -247 67s-129.667 93.5 -177 158.5s-83 138.667 -107 221s-36 167.166 -36 254.499c0 62 5.66699 124 17 186s28.5 121.667 51.5 179s52 110.5 87 159.5s75.833 91.833 122.5 128.5s99.5 65.334 158.5 86.001s124.167 31 195.5 31
c59.333 0 113.5 -8.16699 162.5 -24.5s92.667 -39 131 -68s71.666 -63.5 99.999 -103.5s51.666 -83.833 69.999 -131.5s32 -98 41 -151s13.5 -106.833 13.5 -161.5c0 -58 -4 -116 -12 -174c-114 -7.33301 -227.333 -19.166 -340 -35.499l-338 -48.5
c17.333 -48 44.5 -86.333 81.5 -115s81.167 -43 132.5 -43c26.667 0 55.834 5 87.501 15s63.167 22.5 94.5 37.5s61.333 31.167 90 48.5s53.334 33 74.001 47l-48 -454c-45.333 -34.667 -96.666 -60.667 -153.999 -78l-32 -42c-10.667 -14.667 -20.167 -29 -28.5 -43
s-15.166 -27.333 -20.499 -40s-8 -23.667 -8 -33c0 -12 4.33301 -22 13 -30s19 -12 31 -12c13.333 0 28 5.16699 44 15.5s28 21.166 36 32.499zM766.998 860.001c0 18.667 -2 37.832 -6 57.499s-10.5 37.5 -19.5 53.5s-20.833 29.167 -35.5 39.5s-33 15.5 -55 15.5
c-26.667 0 -50.167 -7.16699 -70.5 -21.5s-37.833 -32.333 -52.5 -54s-26.667 -45.167 -36 -70.5s-16.333 -48.666 -21 -69.999l296 28v22z" />
    <glyph glyph-name="Ecaron" unicode="&#x11a;" horiz-adv-x="981" 
d="M998 1442c-4 -62.667 -7.66895 -124.667 -11.002 -186s-7.66602 -123.333 -12.999 -186l-424 -22l-10 -126h298l-22 -310l-300 -10l-10 -146h248h176l-12.5 -218.5c-4.33301 -72.333 -8.16602 -144.833 -11.499 -217.5l-862 -20l32 1442h922zM830.998 1826
c-12.667 -20.667 -28 -44.167 -46 -70.5l-57 -82.5l-61.5 -86.5l-59.5 -80.5l-196 -28l-290 318l212 134l156 -204l122 196z" />
    <glyph glyph-name="ecaron" unicode="&#x11b;" horiz-adv-x="1181" 
d="M1167 808c0 -58 -4.00098 -116.002 -12.001 -174.002c-114 -7.33301 -227.333 -19.166 -340 -35.499l-338 -48.5c17.333 -48 44.5 -86.333 81.5 -115s81.167 -43 132.5 -43c26.667 0 55.834 5 87.501 15s63.167 22.5 94.5 37.5s61.333 31.167 90 48.5
s53.334 33 74.001 47l-48 -454c-26 -20 -54.167 -37 -84.5 -51s-61.833 -25.333 -94.5 -34s-65.667 -15 -99 -19s-66 -6 -98 -6c-66 0 -126.333 9 -181 27s-104.167 43.167 -148.5 75.5s-83.166 70.5 -116.499 114.5s-61 92 -83 144s-38.667 107 -50 165
s-17 116.667 -17 176c0 62 5.66699 124 17 186s28.5 121.667 51.5 179s52 110.5 87 159.5s75.833 91.833 122.5 128.5s99.5 65.334 158.5 86.001s124.167 31 195.5 31c59.333 0 113.5 -8.16699 162.5 -24.5s92.667 -39 131 -68s71.666 -63.5 99.999 -103.5
s51.666 -83.833 69.999 -131.5s32 -98 41 -151s13.5 -106.833 13.5 -161.5zM766.999 859.998c0 18.667 -2 37.832 -6 57.499s-10.5 37.5 -19.5 53.5s-20.833 29.167 -35.5 39.5s-33 15.5 -55 15.5c-26.667 0 -50.167 -7.16699 -70.5 -21.5s-37.833 -32.333 -52.5 -54
s-26.667 -45.167 -36 -70.5s-16.333 -48.666 -21 -69.999l296 28v22zM939.999 1825c-12.667 -20.667 -28 -44.167 -46 -70.5l-57 -82.5l-61.5 -86.5l-59.5 -80.5l-196 -28l-290 318l212 134l156 -204l122 196z" />
    <glyph glyph-name="Gcircumflex" unicode="&#x11c;" horiz-adv-x="1283" 
d="M1258 204c-31.333 -39.333 -70.002 -73.6699 -116.002 -103.003s-95.333 -53.666 -148 -72.999s-106.667 -33.833 -162 -43.5s-108 -14.5 -158 -14.5c-96.667 0 -185.667 17.333 -267 52s-151.5 82.5 -210.5 143.5s-105.167 132.833 -138.5 215.5s-50 171.667 -50 267
c0 72.667 8.33301 143.834 25 213.501s40.5 135.334 71.5 197.001s68.833 118.334 113.5 170.001s95.334 96.167 152.001 133.5s118.667 66.333 186 87s139.333 31 216 31c28.667 0 59.334 -1.16699 92.001 -3.5s65.167 -6.33301 97.5 -12s63.833 -13.5 94.5 -23.5
s58.667 -22.333 84 -37l-28 -382c-37.333 14 -75.833 23.5 -115.5 28.5s-78.5 7.5 -116.5 7.5c-53.333 0 -103.166 -8.16699 -149.499 -24.5s-86.666 -39.833 -120.999 -70.5s-61.5 -68 -81.5 -112s-30 -93.667 -30 -149c0 -34.667 4.66699 -68.167 14 -100.5
s23.5 -61 42.5 -86s42.667 -45.167 71 -60.5s61.166 -23 98.499 -23c25.333 0 51.5 3.33301 78.5 10s50.167 18 69.5 34l4 78l-240 4l12 300c99.333 3.33301 198.666 6.16602 297.999 8.49902s199.333 5.5 300 9.5zM778.998 1510l-156.001 203.999l-122 -194l-220 94
c12.667 20.667 28.334 44.834 47.001 72.501l59 86l63 89l61 82.5l206 2l274 -306z" />
    <glyph glyph-name="gcircumflex" unicode="&#x11d;" horiz-adv-x="1285" 
d="M1260 224c-31.333 -39.333 -70.0029 -73.668 -116.003 -103.001s-95.333 -53.666 -148 -72.999s-106.667 -33.833 -162 -43.5s-108 -14.5 -158 -14.5c-96.667 0 -185.667 16.333 -267 49s-151.5 78.167 -210.5 136.5s-105.167 127.833 -138.5 208.5s-50 168.667 -50 264
c0 72.667 8.33301 143.334 25 212.001s40.5 133 71.5 193s68.833 115 113.5 165s95.334 93 152.001 129s118.834 63.833 186.501 83.5s139.5 29.5 215.5 29.5c28.667 0 59.334 -1.16699 92.001 -3.5s65.167 -6.33301 97.5 -12s63.833 -13.5 94.5 -23.5
s58.667 -22.333 84 -37l-28 -382c-37.333 14 -75.833 23.5 -115.5 28.5s-78.5 7.5 -116.5 7.5c-53.333 0 -103.166 -7.16699 -149.499 -21.5s-86.666 -35.5 -120.999 -63.5s-61.5 -63 -81.5 -105s-30 -90.667 -30 -146c0 -34.667 4.66699 -68.167 14 -100.5
s23.5 -61 42.5 -86s42.667 -45.167 71 -60.5s61.166 -23 98.499 -23c25.333 0 51.5 3.33301 78.5 10s50.167 18 69.5 34l4 78l-240 4l12 300c99.333 3.33301 198.666 6.16602 297.999 8.49902s199.333 5.5 300 9.5zM812.997 1491l-156.001 203.999l-122 -194l-220 94
c12.667 20.667 28.334 44.834 47.001 72.501l59 86l63 89l61 82.5l206 2l274 -306z" />
    <glyph glyph-name="Gbreve" unicode="&#x11e;" horiz-adv-x="1283" 
d="M1258 204c-31.333 -39.333 -70.002 -73.6699 -116.002 -103.003s-95.333 -53.666 -148 -72.999s-106.667 -33.833 -162 -43.5s-108 -14.5 -158 -14.5c-96.667 0 -185.667 17.333 -267 52s-151.5 82.5 -210.5 143.5s-105.167 132.833 -138.5 215.5s-50 171.667 -50 267
c0 72.667 8.33301 143.834 25 213.501s40.5 135.334 71.5 197.001s68.833 118.334 113.5 170.001s95.334 96.167 152.001 133.5s118.667 66.333 186 87s139.333 31 216 31c28.667 0 59.334 -1.16699 92.001 -3.5s65.167 -6.33301 97.5 -12s63.833 -13.5 94.5 -23.5
s58.667 -22.333 84 -37l-28 -382c-37.333 14 -75.833 23.5 -115.5 28.5s-78.5 7.5 -116.5 7.5c-53.333 0 -103.166 -8.16699 -149.499 -24.5s-86.666 -39.833 -120.999 -70.5s-61.5 -68 -81.5 -112s-30 -93.667 -30 -149c0 -34.667 4.66699 -68.167 14 -100.5
s23.5 -61 42.5 -86s42.667 -45.167 71 -60.5s61.166 -23 98.499 -23c25.333 0 51.5 3.33301 78.5 10s50.167 18 69.5 34l4 78l-240 4l12 300c99.333 3.33301 198.666 6.16602 297.999 8.49902s199.333 5.5 300 9.5zM932.998 1814
c0 -42.667 -7.8291 -82.166 -23.4961 -118.499s-37 -67.833 -64 -94.5s-58.833 -47.5 -95.5 -62.5s-75.667 -22.5 -117 -22.5c-48 0 -90.333 7.33301 -127 22s-67.334 35.5 -92.001 62.5s-43.334 59.833 -56.001 98.5s-19 82.334 -19 131.001v23c0 8 0.666992 15.667 2 23
l232 -30c-0.666992 -10.667 -0.333984 -22.834 0.999023 -36.501s4.5 -26.667 9.5 -39s12 -22.833 21 -31.5s21.167 -13 36.5 -13c9.33301 0 17.166 2.5 23.499 7.5s11.5 11.5 15.5 19.5s6.83301 16.5 8.5 25.5s2.5 17.5 2.5 25.5c0 19.333 -2.16699 37.666 -6.5 54.999
s-9.5 35 -15.5 53l242 44c6 -22 11.167 -45.167 15.5 -69.5s6.5 -48.5 6.5 -72.5z" />
    <glyph glyph-name="gbreve" unicode="&#x11f;" horiz-adv-x="1285" 
d="M1260 224c-31.333 -39.333 -70.0029 -73.668 -116.003 -103.001s-95.333 -53.666 -148 -72.999s-106.667 -33.833 -162 -43.5s-108 -14.5 -158 -14.5c-96.667 0 -185.667 16.333 -267 49s-151.5 78.167 -210.5 136.5s-105.167 127.833 -138.5 208.5s-50 168.667 -50 264
c0 72.667 8.33301 143.334 25 212.001s40.5 133 71.5 193s68.833 115 113.5 165s95.334 93 152.001 129s118.834 63.833 186.501 83.5s139.5 29.5 215.5 29.5c28.667 0 59.334 -1.16699 92.001 -3.5s65.167 -6.33301 97.5 -12s63.833 -13.5 94.5 -23.5
s58.667 -22.333 84 -37l-28 -382c-37.333 14 -75.833 23.5 -115.5 28.5s-78.5 7.5 -116.5 7.5c-53.333 0 -103.166 -7.16699 -149.499 -21.5s-86.666 -35.5 -120.999 -63.5s-61.5 -63 -81.5 -105s-30 -90.667 -30 -146c0 -34.667 4.66699 -68.167 14 -100.5
s23.5 -61 42.5 -86s42.667 -45.167 71 -60.5s61.166 -23 98.499 -23c25.333 0 51.5 3.33301 78.5 10s50.167 18 69.5 34l4 78l-240 4l12 300c99.333 3.33301 198.666 6.16602 297.999 8.49902s199.333 5.5 300 9.5zM924.997 1794
c0 -42.667 -7.8291 -82.166 -23.4961 -118.499s-37 -67.833 -64 -94.5s-58.833 -47.5 -95.5 -62.5s-75.667 -22.5 -117 -22.5c-48 0 -90.333 7.33301 -127 22s-67.334 35.5 -92.001 62.5s-43.334 59.833 -56.001 98.5s-19 82.334 -19 131.001v23c0 8 0.666992 15.667 2 23
l232 -30c-0.666992 -10.667 -0.333984 -22.834 0.999023 -36.501s4.5 -26.667 9.5 -39s12 -22.833 21 -31.5s21.167 -13 36.5 -13c9.33301 0 17.166 2.5 23.499 7.5s11.5 11.5 15.5 19.5s6.83301 16.5 8.5 25.5s2.5 17.5 2.5 25.5c0 19.333 -2.16699 37.666 -6.5 54.999
s-9.5 35 -15.5 53l242 44c6 -22 11.167 -45.167 15.5 -69.5s6.5 -48.5 6.5 -72.5z" />
    <glyph glyph-name="Gdotaccent" unicode="&#x120;" horiz-adv-x="1283" 
d="M1258 204c-31.333 -39.333 -70.002 -73.6699 -116.002 -103.003s-95.333 -53.666 -148 -72.999s-106.667 -33.833 -162 -43.5s-108 -14.5 -158 -14.5c-96.667 0 -185.667 17.333 -267 52s-151.5 82.5 -210.5 143.5s-105.167 132.833 -138.5 215.5s-50 171.667 -50 267
c0 72.667 8.33301 143.834 25 213.501s40.5 135.334 71.5 197.001s68.833 118.334 113.5 170.001s95.334 96.167 152.001 133.5s118.667 66.333 186 87s139.333 31 216 31c28.667 0 59.334 -1.16699 92.001 -3.5s65.167 -6.33301 97.5 -12s63.833 -13.5 94.5 -23.5
s58.667 -22.333 84 -37l-28 -382c-37.333 14 -75.833 23.5 -115.5 28.5s-78.5 7.5 -116.5 7.5c-53.333 0 -103.166 -8.16699 -149.499 -24.5s-86.666 -39.833 -120.999 -70.5s-61.5 -68 -81.5 -112s-30 -93.667 -30 -149c0 -34.667 4.66699 -68.167 14 -100.5
s23.5 -61 42.5 -86s42.667 -45.167 71 -60.5s61.166 -23 98.499 -23c25.333 0 51.5 3.33301 78.5 10s50.167 18 69.5 34l4 78l-240 4l12 300c99.333 3.33301 198.666 6.16602 297.999 8.49902s199.333 5.5 300 9.5zM817.998 1713
c0 -27.333 -5.16602 -52.666 -15.499 -75.999s-24.5 -43.833 -42.5 -61.5s-39 -31.5 -63 -41.5s-49.667 -15 -77 -15c-29.333 0 -56.333 5 -81 15s-46 23.833 -64 41.5s-32 38.167 -42 61.5s-15 48.666 -15 75.999c0 26.667 5 52 15 76s23.833 44.833 41.5 62.5
s38.5 31.667 62.5 42s49.667 15.5 77 15.5c28.667 0 55.5 -5.16699 80.5 -15.5s46.667 -24.333 65 -42s32.666 -38.5 42.999 -62.5s15.5 -49.333 15.5 -76z" />
    <glyph glyph-name="gdotaccent" unicode="&#x121;" horiz-adv-x="1285" 
d="M1260 224c-31.333 -39.333 -70.0029 -73.668 -116.003 -103.001s-95.333 -53.666 -148 -72.999s-106.667 -33.833 -162 -43.5s-108 -14.5 -158 -14.5c-96.667 0 -185.667 16.333 -267 49s-151.5 78.167 -210.5 136.5s-105.167 127.833 -138.5 208.5s-50 168.667 -50 264
c0 72.667 8.33301 143.334 25 212.001s40.5 133 71.5 193s68.833 115 113.5 165s95.334 93 152.001 129s118.834 63.833 186.501 83.5s139.5 29.5 215.5 29.5c28.667 0 59.334 -1.16699 92.001 -3.5s65.167 -6.33301 97.5 -12s63.833 -13.5 94.5 -23.5
s58.667 -22.333 84 -37l-28 -382c-37.333 14 -75.833 23.5 -115.5 28.5s-78.5 7.5 -116.5 7.5c-53.333 0 -103.166 -7.16699 -149.499 -21.5s-86.666 -35.5 -120.999 -63.5s-61.5 -63 -81.5 -105s-30 -90.667 -30 -146c0 -34.667 4.66699 -68.167 14 -100.5
s23.5 -61 42.5 -86s42.667 -45.167 71 -60.5s61.166 -23 98.499 -23c25.333 0 51.5 3.33301 78.5 10s50.167 18 69.5 34l4 78l-240 4l12 300c99.333 3.33301 198.666 6.16602 297.999 8.49902s199.333 5.5 300 9.5zM822.997 1689
c0 -27.333 -5.16602 -52.666 -15.499 -75.999s-24.5 -43.833 -42.5 -61.5s-39 -31.5 -63 -41.5s-49.667 -15 -77 -15c-29.333 0 -56.333 5 -81 15s-46 23.833 -64 41.5s-32 38.167 -42 61.5s-15 48.666 -15 75.999c0 26.667 5 52 15 76s23.833 44.833 41.5 62.5
s38.5 31.667 62.5 42s49.667 15.5 77 15.5c28.667 0 55.5 -5.16699 80.5 -15.5s46.667 -24.333 65 -42s32.666 -38.5 42.999 -62.5s15.5 -49.333 15.5 -76z" />
    <glyph glyph-name="uni0122" unicode="&#x122;" horiz-adv-x="1283" 
d="M1258 204c-31.333 -39.333 -70.002 -73.6699 -116.002 -103.003s-95.333 -53.666 -148 -72.999s-106.667 -33.833 -162 -43.5s-108 -14.5 -158 -14.5c-96.667 0 -185.667 17.333 -267 52s-151.5 82.5 -210.5 143.5s-105.167 132.833 -138.5 215.5s-50 171.667 -50 267
c0 72.667 8.33301 143.834 25 213.501s40.5 135.334 71.5 197.001s68.833 118.334 113.5 170.001s95.334 96.167 152.001 133.5s118.667 66.333 186 87s139.333 31 216 31c28.667 0 59.334 -1.16699 92.001 -3.5s65.167 -6.33301 97.5 -12s63.833 -13.5 94.5 -23.5
s58.667 -22.333 84 -37l-28 -382c-37.333 14 -75.833 23.5 -115.5 28.5s-78.5 7.5 -116.5 7.5c-53.333 0 -103.166 -8.16699 -149.499 -24.5s-86.666 -39.833 -120.999 -70.5s-61.5 -68 -81.5 -112s-30 -93.667 -30 -149c0 -34.667 4.66699 -68.167 14 -100.5
s23.5 -61 42.5 -86s42.667 -45.167 71 -60.5s61.166 -23 98.499 -23c25.333 0 51.5 3.33301 78.5 10s50.167 18 69.5 34l4 78l-240 4l12 300c99.333 3.33301 198.666 6.16602 297.999 8.49902s199.333 5.5 300 9.5zM832.998 -241.004
c0 -22 -4.66602 -46.166 -13.999 -72.499s-22.333 -52.5 -39 -78.5s-36.834 -50.5 -60.501 -73.5s-50.167 -42.167 -79.5 -57.5l-0.5 16c-0.333008 10.667 -0.833008 23.5 -1.5 38.5s-1.5 31.167 -2.5 48.5s-1.83301 32.666 -2.5 45.999
c-29.333 10.667 -52.333 28.667 -69 54s-25 53.333 -25 84c0 20 3.83301 38.833 11.5 56.5s18.167 33.167 31.5 46.5s29 24 47 32s37 12 57 12s39 -4 57 -12s33.667 -18.667 47 -32s23.833 -28.833 31.5 -46.5s11.5 -36.5 11.5 -56.5v-5z" />
    <glyph glyph-name="uni0123" unicode="&#x123;" horiz-adv-x="1285" 
d="M1260 224c-31.333 -39.333 -70.0029 -73.668 -116.003 -103.001s-95.333 -53.666 -148 -72.999s-106.667 -33.833 -162 -43.5s-108 -14.5 -158 -14.5c-96.667 0 -185.667 16.333 -267 49s-151.5 78.167 -210.5 136.5s-105.167 127.833 -138.5 208.5s-50 168.667 -50 264
c0 72.667 8.33301 143.334 25 212.001s40.5 133 71.5 193s68.833 115 113.5 165s95.334 93 152.001 129s118.834 63.833 186.501 83.5s139.5 29.5 215.5 29.5c28.667 0 59.334 -1.16699 92.001 -3.5s65.167 -6.33301 97.5 -12s63.833 -13.5 94.5 -23.5
s58.667 -22.333 84 -37l-28 -382c-37.333 14 -75.833 23.5 -115.5 28.5s-78.5 7.5 -116.5 7.5c-53.333 0 -103.166 -7.16699 -149.499 -21.5s-86.666 -35.5 -120.999 -63.5s-61.5 -63 -81.5 -105s-30 -90.667 -30 -146c0 -34.667 4.66699 -68.167 14 -100.5
s23.5 -61 42.5 -86s42.667 -45.167 71 -60.5s61.166 -23 98.499 -23c25.333 0 51.5 3.33301 78.5 10s50.167 18 69.5 34l4 78l-240 4l12 300c99.333 3.33301 198.666 6.16602 297.999 8.49902s199.333 5.5 300 9.5zM822.997 -241.002
c0 -22 -4.66602 -46.166 -13.999 -72.499s-22.333 -52.5 -39 -78.5s-36.834 -50.5 -60.501 -73.5s-50.167 -42.167 -79.5 -57.5l-0.5 16c-0.333008 10.667 -0.833008 23.5 -1.5 38.5s-1.5 31.167 -2.5 48.5s-1.83301 32.666 -2.5 45.999
c-29.333 10.667 -52.333 28.667 -69 54s-25 53.333 -25 84c0 20 3.83301 38.833 11.5 56.5s18.167 33.167 31.5 46.5s29 24 47 32s37 12 57 12s39 -4 57 -12s33.667 -18.667 47 -32s23.833 -28.833 31.5 -46.5s11.5 -36.5 11.5 -56.5v-5z" />
    <glyph glyph-name="Hcircumflex" unicode="&#x124;" 
d="M1238 0l-500 -24l-4 462h-230l-14 -438h-448l38 1406l476 -22l-30 -718h222l2 772l456 -12zM784 1459l-156.001 203.999l-122 -194l-220 94c12.667 20.667 28.334 44.834 47.001 72.501l59 86l63 89l61 82.5l206 2l274 -306z" />
    <glyph glyph-name="hcircumflex" unicode="&#x125;" 
d="M1238 40l-500 -24l-4 422h-230l-14 -438h-448l38 1406l476 -22l-30 -718h222l2 752l456 -12zM784 1440l-156.001 203.999l-122 -194l-220 94c12.667 20.667 28.334 44.834 47.001 72.501l59 86l63 89l61 82.5l206 2l274 -306z" />
    <glyph glyph-name="Hbar" unicode="&#x126;" 
d="M1238 0l-500 -24l-4 462h-230l-14 -438h-448l38 1406l476 -22l-15 -357l208 4l1 407l456 -12zM748 666v113l-217 3l-5 -116h222z" />
    <glyph glyph-name="hbar" unicode="&#x127;" 
d="M1238 40l-500 -24l-4 422h-230l-14 -438h-448l38 1406l476 -22l-14 -334l207 4l1 364l456 -12zM748 666v136l-216 3l-6 -139h222z" />
    <glyph glyph-name="Itilde" unicode="&#x128;" horiz-adv-x="609" 
d="M591 1408l-110 -1362l-422 -22v1356zM706 1714c0 -38.667 -7.00195 -74.666 -21.002 -107.999s-33.167 -62.333 -57.5 -87s-53 -44 -86 -58s-68.167 -21 -105.5 -21c-29.333 0 -54.333 5.33301 -75 16s-38.167 24 -52.5 40s-26.666 33.333 -36.999 52l-28.5 52
c-8.66699 16 -17.5 29.333 -26.5 40s-19.167 16 -30.5 16c-7.33301 0 -13.666 -2.16699 -18.999 -6.5s-9.5 -9.5 -12.5 -15.5s-5.16699 -12.667 -6.5 -20s-2 -14 -2 -20c0 -20 2.5 -39.5 7.5 -58.5s11.167 -37.5 18.5 -55.5l-244 -20c-8 28 -13.667 56.167 -17 84.5
s-5 56.166 -5 83.499c0 40.667 5.33301 78.667 16 114s26.5 66 47.5 92s47 46.5 78 61.5s67.167 22.5 108.5 22.5c36.667 0 67 -5.66699 91 -17s44 -25.333 60 -42s28.5 -35 37.5 -55l24.5 -55c7.33301 -16.667 14.333 -30.667 21 -42s15.334 -17 26.001 -17
c13.333 0 23.666 6 30.999 18s11 24 11 36c0 20 -4 39.5 -12 58.5s-16.667 36.167 -26 51.5l248 40c11.333 -29.333 20.5 -58.833 27.5 -88.5s10.5 -60.167 10.5 -91.5z" />
    <glyph glyph-name="itilde" unicode="&#x129;" horiz-adv-x="603" 
d="M573 1408l-70 -1362l-422 -22l-40 1356zM694 1714c0 -38.667 -7.00195 -74.666 -21.002 -107.999s-33.167 -62.333 -57.5 -87s-53 -44 -86 -58s-68.167 -21 -105.5 -21c-29.333 0 -54.333 5.33301 -75 16s-38.167 24 -52.5 40s-26.666 33.333 -36.999 52l-28.5 52
c-8.66699 16 -17.5 29.333 -26.5 40s-19.167 16 -30.5 16c-7.33301 0 -13.666 -2.16699 -18.999 -6.5s-9.5 -9.5 -12.5 -15.5s-5.16699 -12.667 -6.5 -20s-2 -14 -2 -20c0 -20 2.5 -39.5 7.5 -58.5s11.167 -37.5 18.5 -55.5l-244 -20c-8 28 -13.667 56.167 -17 84.5
s-5 56.166 -5 83.499c0 40.667 5.33301 78.667 16 114s26.5 66 47.5 92s47 46.5 78 61.5s67.167 22.5 108.5 22.5c36.667 0 67 -5.66699 91 -17s44 -25.333 60 -42s28.5 -35 37.5 -55l24.5 -55c7.33301 -16.667 14.333 -30.667 21 -42s15.334 -17 26.001 -17
c13.333 0 23.666 6 30.999 18s11 24 11 36c0 20 -4 39.5 -12 58.5s-16.667 36.167 -26 51.5l248 40c11.333 -29.333 20.5 -58.833 27.5 -88.5s10.5 -60.167 10.5 -91.5z" />
    <glyph glyph-name="Imacron" unicode="&#x12a;" horiz-adv-x="609" 
d="M591 1408l-110 -1362l-422 -22v1356zM638 1466l-632 8l-18 238l654 12z" />
    <glyph glyph-name="imacron" unicode="&#x12b;" horiz-adv-x="603" 
d="M573 1408l-70 -1362l-422 -22l-40 1356zM626 1456l-632 8l-18 238l654 12z" />
    <glyph glyph-name="Ibreve" unicode="&#x12c;" horiz-adv-x="609" 
d="M591 1408l-110 -1362l-422 -22v1356zM601 1753c0 -42.667 -7.8291 -82.166 -23.4961 -118.499s-37 -67.833 -64 -94.5s-58.833 -47.5 -95.5 -62.5s-75.667 -22.5 -117 -22.5c-48 0 -90.333 7.33301 -127 22s-67.334 35.5 -92.001 62.5s-43.334 59.833 -56.001 98.5
s-19 82.334 -19 131.001v23c0 8 0.666992 15.667 2 23l232 -30c-0.666992 -10.667 -0.333984 -22.834 0.999023 -36.501s4.5 -26.667 9.5 -39s12 -22.833 21 -31.5s21.167 -13 36.5 -13c9.33301 0 17.166 2.5 23.499 7.5s11.5 11.5 15.5 19.5s6.83301 16.5 8.5 25.5
s2.5 17.5 2.5 25.5c0 19.333 -2.16699 37.666 -6.5 54.999s-9.5 35 -15.5 53l242 44c6 -22 11.167 -45.167 15.5 -69.5s6.5 -48.5 6.5 -72.5z" />
    <glyph glyph-name="ibreve" unicode="&#x12d;" horiz-adv-x="603" 
d="M573 1408l-70 -1362l-422 -22l-40 1356zM603 1738c0 -42.667 -7.8291 -82.166 -23.4961 -118.499s-37 -67.833 -64 -94.5s-58.833 -47.5 -95.5 -62.5s-75.667 -22.5 -117 -22.5c-48 0 -90.333 7.33301 -127 22s-67.334 35.5 -92.001 62.5s-43.334 59.833 -56.001 98.5
s-19 82.334 -19 131.001v23c0 8 0.666992 15.667 2 23l232 -30c-0.666992 -10.667 -0.333984 -22.834 0.999023 -36.501s4.5 -26.667 9.5 -39s12 -22.833 21 -31.5s21.167 -13 36.5 -13c9.33301 0 17.166 2.5 23.499 7.5s11.5 11.5 15.5 19.5s6.83301 16.5 8.5 25.5
s2.5 17.5 2.5 25.5c0 19.333 -2.16699 37.666 -6.5 54.999s-9.5 35 -15.5 53l242 44c6 -22 11.167 -45.167 15.5 -69.5s6.5 -48.5 6.5 -72.5z" />
    <glyph glyph-name="Iogonek" unicode="&#x12e;" horiz-adv-x="609" 
d="M489 -273c-29.333 -28 -62.334 -52.3291 -99.001 -72.9961s-75.667 -31 -117 -31c-30.667 0 -59.5 5.16699 -86.5 15.5s-50.667 24.666 -71 42.999s-36.5 40.333 -48.5 66s-18 54.167 -18 85.5c0 38 8.33301 73.167 25 105.5s37.334 62.166 62.001 89.499l-77 -4v1356
l532 28l-110 -1362l-110 -6l-35.5 -45c-12.333 -16 -23.5 -32 -33.5 -48s-18.333 -31.333 -25 -46s-10 -27.334 -10 -38.001c0 -12 4.33301 -22 13 -30s19 -12 31 -12c13.333 0 28 5.16699 44 15.5s28 21.166 36 32.499z" />
    <glyph glyph-name="iogonek" unicode="&#x12f;" horiz-adv-x="603" 
d="M502 -278c-29.333 -28 -62.332 -52.332 -98.999 -72.999s-75.667 -31 -117 -31c-30.667 0 -59.5 5.16699 -86.5 15.5s-50.667 24.666 -71 42.999s-36.5 40.333 -48.5 66s-18 54.167 -18 85.5c0 38.667 8.83301 74.667 26.5 108s39.167 64 64.5 92l-72 -4l-40 1356l532 28
l-70 -1362l-115 -6l-36 -46c-12.667 -16.667 -24.334 -33.167 -35.001 -49.5s-19.5 -32.166 -26.5 -47.499s-10.5 -28.333 -10.5 -39c0 -12 4.33301 -22 13 -30s19 -12 31 -12c13.333 0 28 5.16699 44 15.5s28 21.166 36 32.499z" />
    <glyph glyph-name="Idotaccent" unicode="&#x130;" horiz-adv-x="609" 
d="M591 1408l-110 -1362l-422 -22v1356zM527 1647c0 -27.333 -5.16602 -52.666 -15.499 -75.999s-24.5 -43.833 -42.5 -61.5s-39 -31.5 -63 -41.5s-49.667 -15 -77 -15c-29.333 0 -56.333 5 -81 15s-46 23.833 -64 41.5s-32 38.167 -42 61.5s-15 48.666 -15 75.999
c0 26.667 5 52 15 76s23.833 44.833 41.5 62.5s38.5 31.667 62.5 42s49.667 15.5 77 15.5c28.667 0 55.5 -5.16699 80.5 -15.5s46.667 -24.333 65 -42s32.666 -38.5 42.999 -62.5s15.5 -49.333 15.5 -76z" />
    <glyph glyph-name="dotlessi" unicode="&#x131;" horiz-adv-x="603" 
d="M573 1408l-70 -1362l-422 -22l-40 1356z" />
    <glyph glyph-name="IJ" unicode="&#x132;" horiz-adv-x="1631" 
d="M591 1408l-110 -1362l-422 -22v1356zM1593 824l-0.00195312 -117.002c0 -38.667 -2 -77.667 -6 -117c-7.33301 -83.333 -25.333 -162.166 -54 -236.499s-67.5 -139.5 -116.5 -195.5s-108.5 -100.333 -178.5 -133s-150.333 -49 -241 -49c-35.333 0 -72.166 3 -110.499 9
s-76.333 15 -114 27s-73.667 26.833 -108 44.5s-64.833 38.167 -91.5 61.5l62 414c39.333 -38 83 -68.833 131 -92.5s100.333 -35.5 157 -35.5c36.667 0 67.667 5.33301 93 16s46.333 25.334 63 44.001s29.834 40.5 39.501 65.5s16.667 51.667 21 80s7 57.5 8 87.5
s1.5 59.667 1.5 89c0 106 -5.33301 211.5 -16 316.5s-20 210.167 -28 315.5l458 30c20 -208 30 -416 30 -624z" />
    <glyph glyph-name="ij" unicode="&#x133;" horiz-adv-x="1636" 
d="M573 1408l-70 -1362l-422 -22l-40 1356zM1598 824l-0.00195312 -117.002c0 -38.667 -2 -77.667 -6 -117c-7.33301 -83.333 -25.333 -162.166 -54 -236.499s-67.5 -139.5 -116.5 -195.5s-108.5 -100.333 -178.5 -133s-150.333 -49 -241 -49
c-35.333 0 -72.166 3 -110.499 9s-76.333 15 -114 27s-73.667 26.833 -108 44.5s-64.833 38.167 -91.5 61.5l62 414c39.333 -38 83 -68.833 131 -92.5s100.333 -35.5 157 -35.5c36.667 0 67.667 5.33301 93 16s46.333 25.334 63 44.001s29.834 40.5 39.501 65.5
s16.667 51.667 21 80s7 57.5 8 87.5s1.5 59.667 1.5 89c0 106 -5.33301 211.5 -16 316.5s-20 210.167 -28 315.5l458 30c20 -208 30 -416 30 -624z" />
    <glyph glyph-name="Jcircumflex" unicode="&#x134;" horiz-adv-x="1044" 
d="M1006 824l-0.00195312 -117.002c0 -38.667 -2 -77.667 -6 -117c-7.33301 -83.333 -25.333 -162.166 -54 -236.499s-67.5 -139.5 -116.5 -195.5s-108.5 -100.333 -178.5 -133s-150.333 -49 -241 -49c-35.333 0 -72.166 3 -110.499 9s-76.333 15 -114 27
s-73.667 26.833 -108 44.5s-64.833 38.167 -91.5 61.5l62 414c39.333 -38 83 -68.833 131 -92.5s100.333 -35.5 157 -35.5c36.667 0 67.667 5.33301 93 16s46.333 25.334 63 44.001s29.834 40.5 39.501 65.5s16.667 51.667 21 80s7 57.5 8 87.5s1.5 59.667 1.5 89
c0 106 -5.33301 211.5 -16 316.5s-20 210.167 -28 315.5l458 30c20 -208 30 -416 30 -624zM854.998 1473l-156.001 203.999l-122 -194l-220 94c12.667 20.667 28.334 44.834 47.001 72.501l59 86l63 89l61 82.5l206 2l274 -306z" />
    <glyph glyph-name="jcircumflex" unicode="&#x135;" horiz-adv-x="1044" 
d="M1006 824l-0.00195312 -117.002c0 -38.667 -2 -77.667 -6 -117c-7.33301 -83.333 -25.333 -162.166 -54 -236.499s-67.5 -139.5 -116.5 -195.5s-108.5 -100.333 -178.5 -133s-150.333 -49 -241 -49c-35.333 0 -72.166 3 -110.499 9s-76.333 15 -114 27
s-73.667 26.833 -108 44.5s-64.833 38.167 -91.5 61.5l62 414c39.333 -38 83 -68.833 131 -92.5s100.333 -35.5 157 -35.5c36.667 0 67.667 5.33301 93 16s46.333 25.334 63 44.001s29.834 40.5 39.501 65.5s16.667 51.667 21 80s7 57.5 8 87.5s1.5 59.667 1.5 89
c0 106 -5.33301 211.5 -16 316.5s-20 210.167 -28 315.5l458 30c20 -208 30 -416 30 -624zM869.998 1478l-156.001 203.999l-122 -194l-220 94c12.667 20.667 28.334 44.834 47.001 72.501l59 86l63 89l61 82.5l206 2l274 -306z" />
    <glyph glyph-name="uni0136" unicode="&#x136;" horiz-adv-x="1258" 
d="M1319 1432l-482 -666l406 -708l-464 -82l-304 432l-16 -452l-416 -16l32 1532l466 -26l-36 -452l310 478zM763 -241c0 -22 -4.66602 -46.166 -13.999 -72.499s-22.333 -52.5 -39 -78.5s-36.834 -50.5 -60.501 -73.5s-50.167 -42.167 -79.5 -57.5l-0.5 16
c-0.333008 10.667 -0.833008 23.5 -1.5 38.5s-1.5 31.167 -2.5 48.5s-1.83301 32.666 -2.5 45.999c-29.333 10.667 -52.333 28.667 -69 54s-25 53.333 -25 84c0 20 3.83301 38.833 11.5 56.5s18.167 33.167 31.5 46.5s29 24 47 32s37 12 57 12s39 -4 57 -12
s33.667 -18.667 47 -32s23.833 -28.833 31.5 -46.5s11.5 -36.5 11.5 -56.5v-5z" />
    <glyph glyph-name="uni0137" unicode="&#x137;" horiz-adv-x="1234" 
d="M1280 1292l-442 -526l406 -688l-464 -82l-304 412l-16 -392l-416 -16l32 1432l466 -26l-36 -412l290 418zM763 -241c0 -22 -4.66602 -46.166 -13.999 -72.499s-22.333 -52.5 -39 -78.5s-36.834 -50.5 -60.501 -73.5s-50.167 -42.167 -79.5 -57.5l-0.5 16
c-0.333008 10.667 -0.833008 23.5 -1.5 38.5s-1.5 31.167 -2.5 48.5s-1.83301 32.666 -2.5 45.999c-29.333 10.667 -52.333 28.667 -69 54s-25 53.333 -25 84c0 20 3.83301 38.833 11.5 56.5s18.167 33.167 31.5 46.5s29 24 47 32s37 12 57 12s39 -4 57 -12
s33.667 -18.667 47 -32s23.833 -28.833 31.5 -46.5s11.5 -36.5 11.5 -56.5v-5z" />
    <glyph glyph-name="kgreenlandic" unicode="&#x138;" horiz-adv-x="1234" 
d="M1280 1292l-442 -526l406 -688l-464 -82l-304 412l-16 -392l-416 -16l32 1432l466 -26l-36 -412l290 418z" />
    <glyph glyph-name="Lacute" unicode="&#x139;" horiz-adv-x="926" 
d="M930 570l-42 -444l-842 -66c4 232.667 8.5 464 13.5 694s11.167 461.333 18.5 694h520l-44 -437.5c-14 -145.667 -24 -292.5 -30 -440.5c31.333 -1.33301 62.333 -2 93 -2h93c37.333 0 74 0.333008 110 1s72.667 1 110 1zM919 1777l-232.001 -131.5
c-75.333 -44.333 -150.666 -92.5 -225.999 -144.5l-128 140c13.333 16 29.333 33.833 48 53.5l59.5 60.5l65.5 62.5l66 60.5l159 139z" />
    <glyph glyph-name="lacute" unicode="&#x13a;" horiz-adv-x="924" 
d="M928 530l-42 -444l-842 -66l32 1428h520l-74 -918h406zM919 1777l-232.001 -131.5c-75.333 -44.333 -150.666 -92.5 -225.999 -144.5l-128 140c13.333 16 29.333 33.833 48 53.5l59.5 60.5l65.5 62.5l66 60.5l159 139z" />
    <glyph glyph-name="uni013B" unicode="&#x13b;" horiz-adv-x="926" 
d="M930 570l-42 -444l-842 -66c4 232.667 8.5 464 13.5 694s11.167 461.333 18.5 694h520l-44 -437.5c-14 -145.667 -24 -292.5 -30 -440.5c31.333 -1.33301 62.333 -2 93 -2h93c37.333 0 74 0.333008 110 1s72.667 1 110 1zM623 -131
c0 -22 -4.66602 -46.166 -13.999 -72.499s-22.333 -52.5 -39 -78.5s-36.834 -50.5 -60.501 -73.5s-50.167 -42.167 -79.5 -57.5l-0.5 16c-0.333008 10.667 -0.833008 23.5 -1.5 38.5s-1.5 31.167 -2.5 48.5s-1.83301 32.666 -2.5 45.999
c-29.333 10.667 -52.333 28.667 -69 54s-25 53.333 -25 84c0 20 3.83301 38.833 11.5 56.5s18.167 33.167 31.5 46.5s29 24 47 32s37 12 57 12s39 -4 57 -12s33.667 -18.667 47 -32s23.833 -28.833 31.5 -46.5s11.5 -36.5 11.5 -56.5v-5z" />
    <glyph glyph-name="uni013C" unicode="&#x13c;" horiz-adv-x="924" 
d="M928 530l-42 -444l-842 -66l32 1428h520l-74 -918h406zM623 -181c0 -22 -4.66602 -46.166 -13.999 -72.499s-22.333 -52.5 -39 -78.5s-36.834 -50.5 -60.501 -73.5s-50.167 -42.167 -79.5 -57.5l-0.5 16c-0.333008 10.667 -0.833008 23.5 -1.5 38.5
s-1.5 31.167 -2.5 48.5s-1.83301 32.666 -2.5 45.999c-29.333 10.667 -52.333 28.667 -69 54s-25 53.333 -25 84c0 20 3.83301 38.833 11.5 56.5s18.167 33.167 31.5 46.5s29 24 47 32s37 12 57 12s39 -4 57 -12s33.667 -18.667 47 -32s23.833 -28.833 31.5 -46.5
s11.5 -36.5 11.5 -56.5v-5z" />
    <glyph glyph-name="Lcaron" unicode="&#x13d;" horiz-adv-x="1013" 
d="M930 570l-42 -444l-842 -66c4 232.667 8.5 464 13.5 694s11.167 461.333 18.5 694h520l-44 -437.5c-14 -145.667 -24 -292.5 -30 -440.5c31.333 -1.33301 62.333 -2 93 -2h93c37.333 0 74 0.333008 110 1s72.667 1 110 1zM1011.42 1363.66
c-0.53418 -25.1182 -6.00586 -52.9072 -16.418 -83.3691c-10.4131 -30.4619 -25.2314 -60.5234 -44.4551 -90.1836c-19.2227 -29.6611 -42.3174 -57.7188 -69.2832 -84.1729s-57.2686 -48.499 -90.9092 -66.1348c0 0.53418 -0.266602 6.81348 -0.800781 18.8379
l-2.00293 44.0908c-0.800781 17.3682 -1.73535 35.9395 -2.80273 55.7129c-1.06836 19.7744 -1.86914 37.4102 -2.40332 52.9082c-33.1064 12.292 -59.2715 32.8672 -78.4941 61.7256c-19.2236 28.8594 -28.835 60.6582 -28.835 95.3955
c0 22.9795 4.40527 44.623 13.2158 64.9307c8.81055 20.3086 20.8252 38.0781 36.043 53.3086c15.2188 15.2314 32.9736 27.3896 53.2646 36.4746s42.1836 13.6279 65.6787 13.6279c22.9609 0 44.7207 -4.54297 65.2783 -13.6279
c20.5586 -9.08496 38.4473 -21.2432 53.665 -36.4746c15.2178 -15.2305 27.3662 -33 36.4443 -53.3086c9.07715 -20.3076 13.3486 -41.9512 12.8145 -64.9307v-4.81055z" />
    <glyph glyph-name="lcaron" unicode="&#x13e;" horiz-adv-x="1013" 
d="M928 530l-42 -444l-842 -66l32 1428h520l-74 -918h406zM1011.42 1363.66c-0.53418 -25.1182 -6.00586 -52.9072 -16.418 -83.3691c-10.4131 -30.4619 -25.2314 -60.5234 -44.4551 -90.1836c-19.2227 -29.6611 -42.3174 -57.7188 -69.2832 -84.1729
s-57.2686 -48.499 -90.9092 -66.1348c0 0.53418 -0.266602 6.81348 -0.800781 18.8379l-2.00293 44.0908c-0.800781 17.3682 -1.73535 35.9395 -2.80273 55.7129c-1.06836 19.7744 -1.86914 37.4102 -2.40332 52.9082c-33.1064 12.292 -59.2715 32.8672 -78.4941 61.7256
c-19.2236 28.8594 -28.835 60.6582 -28.835 95.3955c0 22.9795 4.40527 44.623 13.2158 64.9307c8.81055 20.3086 20.8252 38.0781 36.043 53.3086c15.2188 15.2314 32.9736 27.3896 53.2646 36.4746s42.1836 13.6279 65.6787 13.6279
c22.9609 0 44.7207 -4.54297 65.2783 -13.6279c20.5586 -9.08496 38.4473 -21.2432 53.665 -36.4746c15.2178 -15.2305 27.3662 -33 36.4443 -53.3086c9.07715 -20.3076 13.3486 -41.9512 12.8145 -64.9307v-4.81055z" />
    <glyph glyph-name="Ldot" unicode="&#x13f;" horiz-adv-x="1064" 
d="M930 570l-42 -444l-842 -66c4 232.667 8.5 464 13.5 694s11.167 461.333 18.5 694h520l-44 -437.5c-14 -145.667 -24 -292.5 -30 -440.5c31.333 -1.33301 62.333 -2 93 -2h93c37.333 0 74 0.333008 110 1s72.667 1 110 1zM1064 892
c0 -29.333 -5.66699 -56.666 -17 -81.999s-26.5 -47.5 -45.5 -66.5s-41.167 -34 -66.5 -45s-52.333 -16.5 -81 -16.5c-29.333 0 -56.666 5.5 -81.999 16.5s-47.5 26 -66.5 45s-34 41.167 -45 66.5s-16.5 52.666 -16.5 81.999c0 28.667 5.5 56 16.5 82s26 48.5 45 67.5
s41.167 34.167 66.5 45.5s52.666 17 81.999 17c28.667 0 55.667 -5.66699 81 -17s47.5 -26.5 66.5 -45.5s34.167 -41.5 45.5 -67.5s17 -53.333 17 -82z" />
    <glyph glyph-name="ldot" unicode="&#x140;" horiz-adv-x="1064" 
d="M928 530l-42 -444l-842 -66l32 1428h520l-74 -918h406zM1064 892c0 -29.333 -5.66699 -56.666 -17 -81.999s-26.5 -47.5 -45.5 -66.5s-41.167 -34 -66.5 -45s-52.333 -16.5 -81 -16.5c-29.333 0 -56.666 5.5 -81.999 16.5s-47.5 26 -66.5 45s-34 41.167 -45 66.5
s-16.5 52.666 -16.5 81.999c0 28.667 5.5 56 16.5 82s26 48.5 45 67.5s41.167 34.167 66.5 45.5s52.666 17 81.999 17c28.667 0 55.667 -5.66699 81 -17s47.5 -26.5 66.5 -45.5s34.167 -41.5 45.5 -67.5s17 -53.333 17 -82z" />
    <glyph glyph-name="Lslash" unicode="&#x141;" horiz-adv-x="932" 
d="M540 762c-2 -32 -3.83496 -64.001 -5.50195 -96.001s-3.16699 -64 -4.5 -96c31.333 -1.33301 62.333 -2 93 -2h93c37.333 0 74 0.333008 110 1s72.667 1 110 1l-42 -444l-842 -66c1.33301 93.333 2.83301 186.333 4.5 279s3.5 185.667 5.5 279l-84 -26l-4 138l92 32
c2 114.667 4.5 229 7.5 343s6.5 228.333 10.5 343h520c-9.33301 -84.667 -18.166 -169.167 -26.499 -253.5s-16.166 -169.166 -23.499 -254.499l126 46l4 -180z" />
    <glyph glyph-name="lslash" unicode="&#x142;" horiz-adv-x="932" 
d="M934 530l-42 -444l-842 -66l12 598l-86 -26l-4 138l94 34l16 684h520l-42 -504l118 42l4 -180l-136 -42l-18 -234h406z" />
    <glyph glyph-name="Nacute" unicode="&#x143;" horiz-adv-x="1441" 
d="M1411 1434l-72 -1356l-524 -48l-280 726l-44 -740h-450l36 1418l500 24l346 -720l16 680zM1237 1685l-232.001 -131.5c-75.333 -44.333 -150.666 -92.5 -225.999 -144.5l-128 140c13.333 16 29.333 33.833 48 53.5l59.5 60.5l65.5 62.5l66 60.5l159 139z" />
    <glyph glyph-name="nacute" unicode="&#x144;" horiz-adv-x="1335" 
d="M1292 506c0 -75.333 -0.839844 -149.83 -2.50684 -223.497s-4.16699 -147.834 -7.5 -222.501l-576 10c20 118 37.333 235.833 52 353.5s22 236.5 22 356.5c0 8.66699 -0.333008 22.667 -1 42s-2 41.166 -4 65.499s-4.83301 49.333 -8.5 75s-8.66699 49.167 -15 70.5
s-14 38.833 -23 52.5s-19.833 20.5 -32.5 20.5c-22.667 0 -41.834 -6.66699 -57.501 -20s-28.667 -30.5 -39 -51.5s-18.5 -44.5 -24.5 -70.5s-10.5 -52 -13.5 -78s-5 -50.5 -6 -73.5s-1.5 -41.833 -1.5 -56.5c-3.33301 -118 -6 -235.167 -8 -351.5
s-4.66699 -233.833 -8 -352.5l-510 -22l38.5 702c12.333 232.667 22.166 466.667 29.499 702l472 24l-4 -160c18.667 22.667 38.834 44 60.501 64s44.834 37.167 69.501 51.5s50.834 25.666 78.501 33.999s56.834 12.5 87.501 12.5c56.667 0 106.334 -9.33301 149.001 -28
s79.334 -44 110.001 -76s56.334 -69.833 77.001 -113.5s37.334 -90.167 50.001 -139.5s22.334 -100.833 29.001 -154.5s11.167 -106.5 13.5 -158.5s3.5 -102.333 3.5 -151v-133zM1126.99 1754l-232.001 -131.5c-75.333 -44.333 -150.666 -92.5 -225.999 -144.5l-128 140
c13.333 16 29.333 33.833 48 53.5l59.5 60.5l65.5 62.5l66 60.5l159 139z" />
    <glyph glyph-name="uni0145" unicode="&#x145;" horiz-adv-x="1441" 
d="M1411 1434l-72 -1356l-524 -48l-280 726l-44 -740h-450l36 1418l500 24l346 -720l16 680zM853 -191c0 -22 -4.66602 -46.166 -13.999 -72.499s-22.333 -52.5 -39 -78.5s-36.834 -50.5 -60.501 -73.5s-50.167 -42.167 -79.5 -57.5l-0.5 16
c-0.333008 10.667 -0.833008 23.5 -1.5 38.5s-1.5 31.167 -2.5 48.5s-1.83301 32.666 -2.5 45.999c-29.333 10.667 -52.333 28.667 -69 54s-25 53.333 -25 84c0 20 3.83301 38.833 11.5 56.5s18.167 33.167 31.5 46.5s29 24 47 32s37 12 57 12s39 -4 57 -12
s33.667 -18.667 47 -32s23.833 -28.833 31.5 -46.5s11.5 -36.5 11.5 -56.5v-5z" />
    </font>
</defs>
</svg>
